G04 #@! TF.FileFunction,Copper,L1,Top,Signal*
%FSLAX46Y46*%
G04 Gerber Fmt 4.6, Leading zero omitted, Abs format (unit mm)*
G04 Created by KiCad (PCBNEW 4.0.7) date 01/29/18 16:34:23*
%MOMM*%
%LPD*%
G01*
G04 APERTURE LIST*
%ADD10C,0.100000*%
%ADD11R,1.600000X1.600000*%
%ADD12C,1.600000*%
%ADD13R,3.000000X3.000000*%
%ADD14C,3.000000*%
%ADD15C,1.000000*%
%ADD16R,1.000000X1.000000*%
%ADD17R,4.500000X2.500000*%
%ADD18O,4.500000X2.500000*%
%ADD19C,2.400000*%
%ADD20O,2.400000X2.400000*%
%ADD21C,1.500000*%
G04 APERTURE END LIST*
D10*
D11*
X16510000Y31750000D03*
D12*
X14010000Y31750000D03*
D13*
X38100000Y19050000D03*
D14*
X38100000Y24130000D03*
D13*
X2540000Y31750000D03*
D14*
X7620000Y31750000D03*
D13*
X17780000Y3810000D03*
D14*
X22860000Y3810000D03*
D15*
X20320000Y13970000D03*
X19050000Y12700000D03*
D16*
X19050000Y15240000D03*
D17*
X2540000Y3810000D03*
D18*
X2540000Y9260000D03*
X2540000Y14710000D03*
D19*
X38100000Y31750000D03*
D20*
X22860000Y31750000D03*
D19*
X10160000Y2540000D03*
D20*
X10160000Y17780000D03*
D19*
X29210000Y3810000D03*
D20*
X29210000Y19050000D03*
D19*
X13970000Y24130000D03*
D20*
X29210000Y24130000D03*
D21*
X22860000Y31750000D02*
X22860000Y16510000D01*
X22860000Y16510000D02*
X20320000Y13970000D01*
X22860000Y31750000D02*
X16510000Y31750000D01*
X7620000Y31750000D02*
X14010000Y31750000D01*
X14010000Y31750000D02*
X14010000Y24170000D01*
X14010000Y24170000D02*
X13970000Y24130000D01*
X19050000Y15240000D02*
X19050000Y19050000D01*
X19050000Y19050000D02*
X13970000Y24130000D01*
X29210000Y24130000D02*
X29210000Y19050000D01*
X29210000Y19050000D02*
X38100000Y19050000D01*
X38100000Y31750000D02*
X38100000Y24130000D01*
X2540000Y31750000D02*
X2540000Y14710000D01*
X2540000Y9260000D02*
X12330000Y9260000D01*
X12330000Y9260000D02*
X17780000Y3810000D01*
X22860000Y3810000D02*
X29210000Y3810000D01*
X19050000Y12700000D02*
X15240000Y12700000D01*
X15240000Y12700000D02*
X10160000Y17780000D01*
X2540000Y3810000D02*
X8890000Y3810000D01*
X8890000Y3810000D02*
X10160000Y2540000D01*
M02*
