M48
;DRILL file {KiCad 4.0.7} date 01/29/18 16:34:28
;FORMAT={-:-/ absolute / metric / decimal}
FMAT,2
METRIC,TZ
T1C0.600
T2C0.800
T3C1.200
T4C1.500
T5C1.520
%
G90
G05
M71
T1
X19.05Y15.24
X19.05Y12.7
X20.32Y13.97
T2
X14.01Y31.75
X16.51Y31.75
T3
X10.16Y17.78
X10.16Y2.54
X13.97Y24.13
X22.86Y31.75
X29.21Y24.13
X29.21Y19.05
X29.21Y3.81
X38.1Y31.75
T4
X2.54Y14.71
X2.54Y9.26
X2.54Y3.81
T5
X2.54Y31.75
X7.62Y31.75
X17.78Y3.81
X22.86Y3.81
X38.1Y24.13
X38.1Y19.05
T0
M30
