solid Bolt-Drill-Guide
facet normal -3.1740550337369583e-16 1.0 -1.36521751454829e-15
  outer loop
    vertex 3.4995651273760044 49.999999999999986 -3.986520318141309
    vertex 28.49961956328904 50.0 -3.497390956040621
    vertex 27.999565221912544 50.0 -3.9971735404046376
  endloop
endfacet
facet normal -3.1740550337369583e-16 1.0 -1.36521751454829e-15
  outer loop
    vertex 28.49961956328904 50.0 -3.497390956040621
    vertex 3.4995651273760044 49.999999999999986 -3.986520318141309
    vertex 2.999619714573061 49.999999999999986 -3.4863029084380535
  endloop
endfacet
facet normal -3.1740550337369583e-16 1.0 -1.36521751454829e-15
  outer loop
    vertex 28.49961956328904 50.0 -3.497390956040621
    vertex 2.999619714573061 49.999999999999986 -3.4863029084380535
    vertex 28.499999999999993 50.0 0.0
  endloop
endfacet
facet normal -3.1740550337369583e-16 1.0 -1.36521751454829e-15
  outer loop
    vertex 28.499999999999993 50.0 0.0
    vertex 2.999619714573061 49.999999999999986 -3.4863029084380535
    vertex 2.9999999999999973 50.0 0.0
  endloop
endfacet
facet normal -0.00043482535571849563 3.931726090787995e-21 -0.9999999054634507
  outer loop
    vertex 13.77456517464428 30.129199655051465 -3.999999905463449
    vertex 13.249565174644278 15.0 -3.999999905463449
    vertex 12.956493388957417 30.756928214313138 -3.999999905463449
  endloop
endfacet
facet normal -0.00043482535571849563 3.931726090787995e-21 -0.9999999054634507
  outer loop
    vertex 13.249565174644278 15.0 -3.999999905463449
    vertex 13.77456517464428 30.129199655051465 -3.999999905463449
    vertex 13.334750608921608 15.647047612756301 -3.999999905463449
  endloop
endfacet
facet normal -0.00043482535571849563 3.931726090787995e-21 -0.9999999054634507
  outer loop
    vertex 13.334750608921608 15.647047612756301 -3.999999905463449
    vertex 13.77456517464428 30.129199655051465 -3.999999905463449
    vertex 13.584501665183183 16.25 -3.999999905463449
  endloop
endfacet
facet normal -0.00043482535571849563 3.931726090787995e-21 -0.9999999054634507
  outer loop
    vertex 13.584501665183183 16.25 -3.999999905463449
    vertex 13.77456517464428 30.129199655051465 -3.999999905463449
    vertex 13.98179822167791 16.76776695296637 -3.999999905463449
  endloop
endfacet
facet normal -0.00043482535571849563 3.931726090787995e-21 -0.9999999054634507
  outer loop
    vertex 13.98179822167791 16.76776695296637 -3.999999905463449
    vertex 13.77456517464428 30.129199655051465 -3.999999905463449
    vertex 14.727229946489324 29.734592986158184 -3.999999905463449
  endloop
endfacet
facet normal -0.00043482535571849563 3.931726090787995e-21 -0.9999999054634507
  outer loop
    vertex 13.98179822167791 16.76776695296637 -3.999999905463449
    vertex 14.727229946489324 29.734592986158184 -3.999999905463449
    vertex 14.49956517464428 17.1650635094611 -3.999999905463449
  endloop
endfacet
facet normal -0.00043482535571849563 3.931726090787995e-21 -0.9999999054634507
  outer loop
    vertex 14.49956517464428 17.1650635094611 -3.999999905463449
    vertex 14.727229946489324 29.734592986158184 -3.999999905463449
    vertex 15.102517561887975 17.414814565722672 -3.999999905463449
  endloop
endfacet
facet normal -0.00043482535571849563 3.931726090787995e-21 -0.9999999054634507
  outer loop
    vertex 15.102517561887975 17.414814565722672 -3.999999905463449
    vertex 14.727229946489324 29.734592986158184 -3.999999905463449
    vertex 15.74956517464428 29.6 -3.999999905463449
  endloop
endfacet
facet normal -0.00043482535571849563 3.931726090787995e-21 -0.9999999054634507
  outer loop
    vertex 15.102517561887975 17.414814565722672 -3.999999905463449
    vertex 15.74956517464428 29.6 -3.999999905463449
    vertex 15.74956517464428 17.5 -3.999999905463449
  endloop
endfacet
facet normal -0.00043482535571849563 3.931726090787995e-21 -0.9999999054634507
  outer loop
    vertex 15.74956517464428 17.5 -3.999999905463449
    vertex 15.74956517464428 29.6 -3.999999905463449
    vertex 16.77190040279924 29.734592986158184 -3.999999905463449
  endloop
endfacet
facet normal -0.00043482535571849563 3.931726090787995e-21 -0.9999999054634507
  outer loop
    vertex 15.74956517464428 17.5 -3.999999905463449
    vertex 16.77190040279924 29.734592986158184 -3.999999905463449
    vertex 16.39661278740058 17.414814565722672 -3.999999905463449
  endloop
endfacet
facet normal -0.00043482535571849563 3.931726090787995e-21 -0.9999999054634507
  outer loop
    vertex 16.39661278740058 17.414814565722672 -3.999999905463449
    vertex 16.77190040279924 29.734592986158184 -3.999999905463449
    vertex 16.99956517464428 17.1650635094611 -3.999999905463449
  endloop
endfacet
facet normal -0.00043482535571849563 3.931726090787995e-21 -0.9999999054634507
  outer loop
    vertex 16.99956517464428 17.1650635094611 -3.999999905463449
    vertex 16.77190040279924 29.734592986158184 -3.999999905463449
    vertex 17.724565174644283 30.129199655051472 -3.999999905463449
  endloop
endfacet
facet normal -0.00043482535571849563 3.931726090787995e-21 -0.9999999054634507
  outer loop
    vertex 16.99956517464428 17.1650635094611 -3.999999905463449
    vertex 17.724565174644283 30.129199655051472 -3.999999905463449
    vertex 17.51733212761065 16.767766952966372 -3.999999905463449
  endloop
endfacet
facet normal -0.00043482535571849563 3.931726090787995e-21 -0.9999999054634507
  outer loop
    vertex 17.51733212761065 16.767766952966372 -3.999999905463449
    vertex 17.724565174644283 30.129199655051472 -3.999999905463449
    vertex 17.914628684105377 16.25 -3.999999905463449
  endloop
endfacet
facet normal -0.00043482535571849563 3.931726090787995e-21 -0.9999999054634507
  outer loop
    vertex 17.914628684105377 16.25 -3.999999905463449
    vertex 17.724565174644283 30.129199655051472 -3.999999905463449
    vertex 18.542636960331144 30.756928214313138 -3.999999905463449
  endloop
endfacet
facet normal -0.00043482535571849563 3.931726090787995e-21 -0.9999999054634507
  outer loop
    vertex 17.914628684105377 16.25 -3.999999905463449
    vertex 18.542636960331144 30.756928214313138 -3.999999905463449
    vertex 18.16437974036695 15.647047612756301 -3.999999905463449
  endloop
endfacet
facet normal -0.00043482535571849563 3.931726090787995e-21 -0.9999999054634507
  outer loop
    vertex 18.16437974036695 15.647047612756301 -3.999999905463449
    vertex 18.542636960331144 30.756928214313138 -3.999999905463449
    vertex 18.24956517464428 15.0 -3.999999905463449
  endloop
endfacet
facet normal -0.00043482535571849563 3.931726090787995e-21 -0.9999999054634507
  outer loop
    vertex 3.4995651273760044 49.999999999999986 -3.986520318141309
    vertex 11.93415816080246 34.57233522815496 -3.999999905463449
    vertex 3.4995651273760044 0.0 -3.986520318141309
  endloop
endfacet
facet normal -0.00043482535571849563 3.931726090787995e-21 -0.9999999054634507
  outer loop
    vertex 11.93415816080246 34.57233522815496 -3.999999905463449
    vertex 3.4995651273760044 49.999999999999986 -3.986520318141309
    vertex 12.328764829695748 35.525 -3.999999905463449
  endloop
endfacet
facet normal -0.00043482535571849563 3.931726090787995e-21 -0.9999999054634507
  outer loop
    vertex 12.328764829695748 35.525 -3.999999905463449
    vertex 3.4995651273760044 49.999999999999986 -3.986520318141309
    vertex 12.956493388957417 36.34307178568687 -3.999999905463449
  endloop
endfacet
facet normal -0.00043482535571849563 3.931726090787995e-21 -0.9999999054634507
  outer loop
    vertex 12.956493388957417 36.34307178568687 -3.999999905463449
    vertex 3.4995651273760044 49.999999999999986 -3.986520318141309
    vertex 27.999565221912544 50.0 -3.9971735404046376
  endloop
endfacet
facet normal -0.00043482535571849563 3.931726090787995e-21 -0.9999999054634507
  outer loop
    vertex 3.4995651273760044 0.0 -3.986520318141309
    vertex 11.93415816080246 34.57233522815496 -3.999999905463449
    vertex 11.79956517464428 33.55 -3.999999905463449
  endloop
endfacet
facet normal -0.00043482535571849563 3.931726090787995e-21 -0.9999999054634507
  outer loop
    vertex 12.956493388957417 36.34307178568687 -3.999999905463449
    vertex 27.999565221912544 50.0 -3.9971735404046376
    vertex 13.77456517464428 36.97080034494853 -3.999999905463449
  endloop
endfacet
facet normal -0.00043482535571849563 3.931726090787995e-21 -0.9999999054634507
  outer loop
    vertex 13.77456517464428 36.97080034494853 -3.999999905463449
    vertex 27.999565221912544 50.0 -3.9971735404046376
    vertex 14.727229946489322 37.36540701384182 -3.999999905463449
  endloop
endfacet
facet normal -0.00043482535571849563 3.931726090787995e-21 -0.9999999054634507
  outer loop
    vertex 14.727229946489322 37.36540701384182 -3.999999905463449
    vertex 27.999565221912544 50.0 -3.9971735404046376
    vertex 15.74956517464428 37.5 -3.999999905463449
  endloop
endfacet
facet normal -0.00043482535571849563 3.931726090787995e-21 -0.9999999054634507
  outer loop
    vertex 15.74956517464428 37.5 -3.999999905463449
    vertex 27.999565221912544 50.0 -3.9971735404046376
    vertex 16.771900402799236 37.365407013841825 -3.999999905463449
  endloop
endfacet
facet normal -0.00043482535571849563 3.931726090787995e-21 -0.9999999054634507
  outer loop
    vertex 16.771900402799236 37.365407013841825 -3.999999905463449
    vertex 27.999565221912544 50.0 -3.9971735404046376
    vertex 17.72456517464428 36.970800344948536 -3.999999905463449
  endloop
endfacet
facet normal -0.00043482535571849563 3.931726090787995e-21 -0.9999999054634507
  outer loop
    vertex 17.72456517464428 36.970800344948536 -3.999999905463449
    vertex 27.999565221912544 50.0 -3.9971735404046376
    vertex 18.54263696033114 36.34307178568687 -3.999999905463449
  endloop
endfacet
facet normal -0.00043482535571849563 3.931726090787995e-21 -0.9999999054634507
  outer loop
    vertex 18.54263696033114 36.34307178568687 -3.999999905463449
    vertex 27.999565221912544 50.0 -3.9971735404046376
    vertex 19.17036551959281 35.525000000000006 -3.999999905463449
  endloop
endfacet
facet normal -0.00043482535571849563 3.931726090787995e-21 -0.9999999054634507
  outer loop
    vertex 19.17036551959281 35.525000000000006 -3.999999905463449
    vertex 27.999565221912544 50.0 -3.9971735404046376
    vertex 19.5649721884861 34.57233522815496 -3.999999905463449
  endloop
endfacet
facet normal -0.00043482535571849563 3.931726090787995e-21 -0.9999999054634507
  outer loop
    vertex 19.5649721884861 34.57233522815496 -3.999999905463449
    vertex 27.999565221912544 50.0 -3.9971735404046376
    vertex 19.699565174644277 33.55 -3.999999905463449
  endloop
endfacet
facet normal -0.00043482535571849563 3.931726090787995e-21 -0.9999999054634507
  outer loop
    vertex 3.4995651273760044 0.0 -3.986520318141309
    vertex 13.981798221677913 13.232233047033631 -3.999999905463449
    vertex 27.999565221912544 0.0 -3.9971735404046376
  endloop
endfacet
facet normal -0.00043482535571849563 3.931726090787995e-21 -0.9999999054634507
  outer loop
    vertex 13.981798221677913 13.232233047033631 -3.999999905463449
    vertex 3.4995651273760044 0.0 -3.986520318141309
    vertex 13.584501665183183 13.75 -3.999999905463449
  endloop
endfacet
facet normal -0.00043482535571849563 3.931726090787995e-21 -0.9999999054634507
  outer loop
    vertex 13.584501665183183 13.75 -3.999999905463449
    vertex 3.4995651273760044 0.0 -3.986520318141309
    vertex 13.334750608921608 14.352952387243697 -3.999999905463449
  endloop
endfacet
facet normal -0.00043482535571849563 3.931726090787995e-21 -0.9999999054634507
  outer loop
    vertex 13.334750608921608 14.352952387243697 -3.999999905463449
    vertex 3.4995651273760044 0.0 -3.986520318141309
    vertex 13.249565174644278 15.0 -3.999999905463449
  endloop
endfacet
facet normal -0.00043482535571849563 3.931726090787995e-21 -0.9999999054634507
  outer loop
    vertex 13.249565174644278 15.0 -3.999999905463449
    vertex 3.4995651273760044 0.0 -3.986520318141309
    vertex 11.79956517464428 33.55 -3.999999905463449
  endloop
endfacet
facet normal -0.00043482535571849563 3.931726090787995e-21 -0.9999999054634507
  outer loop
    vertex 13.249565174644278 15.0 -3.999999905463449
    vertex 11.79956517464428 33.55 -3.999999905463449
    vertex 11.93415816080246 32.52766477184504 -3.999999905463449
  endloop
endfacet
facet normal -0.00043482535571849563 3.931726090787995e-21 -0.9999999054634507
  outer loop
    vertex 13.249565174644278 15.0 -3.999999905463449
    vertex 11.93415816080246 32.52766477184504 -3.999999905463449
    vertex 12.328764829695748 31.575 -3.999999905463449
  endloop
endfacet
facet normal -0.00043482535571849563 3.931726090787995e-21 -0.9999999054634507
  outer loop
    vertex 13.249565174644278 15.0 -3.999999905463449
    vertex 12.328764829695748 31.575 -3.999999905463449
    vertex 12.956493388957417 30.756928214313138 -3.999999905463449
  endloop
endfacet
facet normal -0.00043482535571849563 3.931726090787995e-21 -0.9999999054634507
  outer loop
    vertex 27.999565221912544 0.0 -3.9971735404046376
    vertex 13.981798221677913 13.232233047033631 -3.999999905463449
    vertex 14.49956517464428 12.834936490538903 -3.999999905463449
  endloop
endfacet
facet normal -0.00043482535571849563 3.931726090787995e-21 -0.9999999054634507
  outer loop
    vertex 27.999565221912544 0.0 -3.9971735404046376
    vertex 14.49956517464428 12.834936490538903 -3.999999905463449
    vertex 15.102517561887979 12.58518543427733 -3.999999905463449
  endloop
endfacet
facet normal -0.00043482535571849563 3.931726090787995e-21 -0.9999999054634507
  outer loop
    vertex 27.999565221912544 0.0 -3.9971735404046376
    vertex 15.102517561887979 12.58518543427733 -3.999999905463449
    vertex 15.74956517464428 12.5 -3.999999905463449
  endloop
endfacet
facet normal -0.00043482535571849563 3.931726090787995e-21 -0.9999999054634507
  outer loop
    vertex 27.999565221912544 0.0 -3.9971735404046376
    vertex 15.74956517464428 12.5 -3.999999905463449
    vertex 16.396612787400585 12.58518543427733 -3.999999905463449
  endloop
endfacet
facet normal -0.00043482535571849563 3.931726090787995e-21 -0.9999999054634507
  outer loop
    vertex 27.999565221912544 0.0 -3.9971735404046376
    vertex 16.396612787400585 12.58518543427733 -3.999999905463449
    vertex 16.99956517464428 12.834936490538903 -3.999999905463449
  endloop
endfacet
facet normal -0.00043482535571849563 3.931726090787995e-21 -0.9999999054634507
  outer loop
    vertex 27.999565221912544 0.0 -3.9971735404046376
    vertex 16.99956517464428 12.834936490538903 -3.999999905463449
    vertex 17.51733212761065 13.232233047033631 -3.999999905463449
  endloop
endfacet
facet normal -0.00043482535571849563 3.931726090787995e-21 -0.9999999054634507
  outer loop
    vertex 27.999565221912544 0.0 -3.9971735404046376
    vertex 17.51733212761065 13.232233047033631 -3.999999905463449
    vertex 17.914628684105377 13.75 -3.999999905463449
  endloop
endfacet
facet normal -0.00043482535571849563 3.931726090787995e-21 -0.9999999054634507
  outer loop
    vertex 27.999565221912544 0.0 -3.9971735404046376
    vertex 17.914628684105377 13.75 -3.999999905463449
    vertex 18.16437974036695 14.352952387243699 -3.999999905463449
  endloop
endfacet
facet normal -0.00043482535571849563 3.931726090787995e-21 -0.9999999054634507
  outer loop
    vertex 27.999565221912544 0.0 -3.9971735404046376
    vertex 18.16437974036695 14.352952387243699 -3.999999905463449
    vertex 18.24956517464428 15.0 -3.999999905463449
  endloop
endfacet
facet normal -0.00043482535571849563 3.931726090787995e-21 -0.9999999054634507
  outer loop
    vertex 27.999565221912544 0.0 -3.9971735404046376
    vertex 18.24956517464428 15.0 -3.999999905463449
    vertex 18.542636960331144 30.756928214313138 -3.999999905463449
  endloop
endfacet
facet normal -0.00043482535571849563 3.931726090787995e-21 -0.9999999054634507
  outer loop
    vertex 27.999565221912544 0.0 -3.9971735404046376
    vertex 18.542636960331144 30.756928214313138 -3.999999905463449
    vertex 19.170365519592814 31.575000000000003 -3.999999905463449
  endloop
endfacet
facet normal -0.00043482535571849563 3.931726090787995e-21 -0.9999999054634507
  outer loop
    vertex 27.999565221912544 0.0 -3.9971735404046376
    vertex 19.170365519592814 31.575000000000003 -3.999999905463449
    vertex 19.5649721884861 32.527664771845046 -3.999999905463449
  endloop
endfacet
facet normal -0.00043482535571849563 3.931726090787995e-21 -0.9999999054634507
  outer loop
    vertex 27.999565221912544 0.0 -3.9971735404046376
    vertex 19.5649721884861 32.527664771845046 -3.999999905463449
    vertex 19.699565174644277 33.55 -3.999999905463449
  endloop
endfacet
facet normal -0.00043482535571849563 3.931726090787995e-21 -0.9999999054634507
  outer loop
    vertex 27.999565221912544 0.0 -3.9971735404046376
    vertex 19.699565174644277 33.55 -3.999999905463449
    vertex 27.999565221912544 50.0 -3.9971735404046376
  endloop
endfacet
facet normal -0.9238795325112876 0.38268343236508795 -0.0
  outer loop
    vertex 19.565407013841817 32.527664771845046 5.0
    vertex 19.170365519592814 31.575000000000003 -3.999999905463449
    vertex 19.170800344948532 31.575000000000003 5.0
  endloop
endfacet
facet normal -0.9238795325112876 0.38268343236508795 -0.0
  outer loop
    vertex 19.170365519592814 31.575000000000003 -3.999999905463449
    vertex 19.565407013841817 32.527664771845046 5.0
    vertex 19.5649721884861 32.527664771845046 -3.999999905463449
  endloop
endfacet
facet normal -0.9914448613738106 0.13052619222005143 -0.0
  outer loop
    vertex 19.699999999999996 33.55 5.0
    vertex 19.5649721884861 32.527664771845046 -3.999999905463449
    vertex 19.565407013841817 32.527664771845046 5.0
  endloop
endfacet
facet normal -0.9914448613738106 0.13052619222005143 -0.0
  outer loop
    vertex 19.5649721884861 32.527664771845046 -3.999999905463449
    vertex 19.699999999999996 33.55 5.0
    vertex 19.699565174644277 33.55 -3.999999905463449
  endloop
endfacet
facet normal -0.9914448613738106 -0.13052619222005074 -0.0
  outer loop
    vertex 19.565407013841817 34.57233522815496 5.0
    vertex 19.699565174644277 33.55 -3.999999905463449
    vertex 19.699999999999996 33.55 5.0
  endloop
endfacet
facet normal -0.9914448613738106 -0.13052619222005074 -0.0
  outer loop
    vertex 19.699565174644277 33.55 -3.999999905463449
    vertex 19.565407013841817 34.57233522815496 5.0
    vertex 19.5649721884861 34.57233522815496 -3.999999905463449
  endloop
endfacet
facet normal -0.9238795325112867 -0.38268343236509034 -0.0
  outer loop
    vertex 19.17080034494853 35.525000000000006 5.0
    vertex 19.5649721884861 34.57233522815496 -3.999999905463449
    vertex 19.565407013841817 34.57233522815496 5.0
  endloop
endfacet
facet normal -0.9238795325112867 -0.38268343236509034 -0.0
  outer loop
    vertex 19.5649721884861 34.57233522815496 -3.999999905463449
    vertex 19.17080034494853 35.525000000000006 5.0
    vertex 19.17036551959281 35.525000000000006 -3.999999905463449
  endloop
endfacet
facet normal -0.793353340291234 -0.6087614290087221 -0.0
  outer loop
    vertex 18.543071785686855 36.34307178568687 5.0
    vertex 19.17036551959281 35.525000000000006 -3.999999905463449
    vertex 19.17080034494853 35.525000000000006 5.0
  endloop
endfacet
facet normal -0.793353340291234 -0.6087614290087221 -0.0
  outer loop
    vertex 19.17036551959281 35.525000000000006 -3.999999905463449
    vertex 18.543071785686855 36.34307178568687 5.0
    vertex 18.54263696033114 36.34307178568687 -3.999999905463449
  endloop
endfacet
facet normal -0.6087614290087221 -0.793353340291234 -0.0
  outer loop
    vertex 18.543071785686855 36.34307178568687 5.0
    vertex 17.72456517464428 36.970800344948536 -3.999999905463449
    vertex 18.54263696033114 36.34307178568687 -3.999999905463449
  endloop
endfacet
facet normal -0.6087614290087221 -0.793353340291234 -0.0
  outer loop
    vertex 17.72456517464428 36.970800344948536 -3.999999905463449
    vertex 18.543071785686855 36.34307178568687 5.0
    vertex 17.724999999999994 36.970800344948536 5.0
  endloop
endfacet
facet normal -0.38268343236509034 -0.9238795325112867 -0.0
  outer loop
    vertex 17.724999999999994 36.970800344948536 5.0
    vertex 16.771900402799236 37.365407013841825 -3.999999905463449
    vertex 17.72456517464428 36.970800344948536 -3.999999905463449
  endloop
endfacet
facet normal -0.38268343236509034 -0.9238795325112867 -0.0
  outer loop
    vertex 16.771900402799236 37.365407013841825 -3.999999905463449
    vertex 17.724999999999994 36.970800344948536 5.0
    vertex 16.77233522815495 37.365407013841825 5.0
  endloop
endfacet
facet normal -0.13052619222004838 -0.9914448613738108 -0.0
  outer loop
    vertex 16.77233522815495 37.365407013841825 5.0
    vertex 15.74956517464428 37.5 -3.999999905463449
    vertex 16.771900402799236 37.365407013841825 -3.999999905463449
  endloop
endfacet
facet normal -0.13052619222004838 -0.9914448613738108 -0.0
  outer loop
    vertex 15.74956517464428 37.5 -3.999999905463449
    vertex 16.77233522815495 37.365407013841825 5.0
    vertex 15.749999999999996 37.5 5.0
  endloop
endfacet
facet normal 0.1305261922200534 -0.9914448613738102 -0.0
  outer loop
    vertex 15.749999999999996 37.5 5.0
    vertex 14.727229946489322 37.36540701384182 -3.999999905463449
    vertex 15.74956517464428 37.5 -3.999999905463449
  endloop
endfacet
facet normal 0.1305261922200534 -0.9914448613738102 -0.0
  outer loop
    vertex 14.727229946489322 37.36540701384182 -3.999999905463449
    vertex 15.749999999999996 37.5 5.0
    vertex 14.727664771845038 37.36540701384182 5.0
  endloop
endfacet
facet normal 0.3826834323650913 -0.9238795325112863 -0.0
  outer loop
    vertex 14.727664771845038 37.36540701384182 5.0
    vertex 13.77456517464428 36.97080034494853 -3.999999905463449
    vertex 14.727229946489322 37.36540701384182 -3.999999905463449
  endloop
endfacet
facet normal 0.3826834323650913 -0.9238795325112863 -0.0
  outer loop
    vertex 13.77456517464428 36.97080034494853 -3.999999905463449
    vertex 14.727664771845038 37.36540701384182 5.0
    vertex 13.774999999999997 36.97080034494853 5.0
  endloop
endfacet
facet normal 0.6087614290087174 -0.7933533402912378 -0.0
  outer loop
    vertex 13.774999999999997 36.97080034494853 5.0
    vertex 12.956493388957417 36.34307178568687 -3.999999905463449
    vertex 13.77456517464428 36.97080034494853 -3.999999905463449
  endloop
endfacet
facet normal 0.6087614290087174 -0.7933533402912378 -0.0
  outer loop
    vertex 12.956493388957417 36.34307178568687 -3.999999905463449
    vertex 13.774999999999997 36.97080034494853 5.0
    vertex 12.956928214313134 36.34307178568687 5.0
  endloop
endfacet
facet normal 0.7933533402912374 -0.6087614290087178 -0.0
  outer loop
    vertex 12.956493388957417 36.34307178568687 -3.999999905463449
    vertex 12.329199655051465 35.525 5.0
    vertex 12.328764829695748 35.525 -3.999999905463449
  endloop
endfacet
facet normal 0.7933533402912374 -0.6087614290087178 -0.0
  outer loop
    vertex 12.329199655051465 35.525 5.0
    vertex 12.956493388957417 36.34307178568687 -3.999999905463449
    vertex 12.956928214313134 36.34307178568687 5.0
  endloop
endfacet
facet normal 0.923879532511286 -0.3826834323650923 -0.0
  outer loop
    vertex 12.328764829695748 35.525 -3.999999905463449
    vertex 11.934592986158178 34.57233522815496 5.0
    vertex 11.93415816080246 34.57233522815496 -3.999999905463449
  endloop
endfacet
facet normal 0.923879532511286 -0.3826834323650923 -0.0
  outer loop
    vertex 11.934592986158178 34.57233522815496 5.0
    vertex 12.328764829695748 35.525 -3.999999905463449
    vertex 12.329199655051465 35.525 5.0
  endloop
endfacet
facet normal 0.9914448613738106 -0.13052619222005074 -0.0
  outer loop
    vertex 11.93415816080246 34.57233522815496 -3.999999905463449
    vertex 11.799999999999999 33.55 5.0
    vertex 11.79956517464428 33.55 -3.999999905463449
  endloop
endfacet
facet normal 0.9914448613738106 -0.13052619222005074 -0.0
  outer loop
    vertex 11.799999999999999 33.55 5.0
    vertex 11.93415816080246 34.57233522815496 -3.999999905463449
    vertex 11.934592986158178 34.57233522815496 5.0
  endloop
endfacet
facet normal 0.9914448613738106 0.13052619222005074 0.0
  outer loop
    vertex 11.79956517464428 33.55 -3.999999905463449
    vertex 11.934592986158178 32.52766477184504 5.0
    vertex 11.93415816080246 32.52766477184504 -3.999999905463449
  endloop
endfacet
facet normal 0.9914448613738106 0.13052619222005074 0.0
  outer loop
    vertex 11.934592986158178 32.52766477184504 5.0
    vertex 11.79956517464428 33.55 -3.999999905463449
    vertex 11.799999999999999 33.55 5.0
  endloop
endfacet
facet normal 0.9238795325112867 0.38268343236509034 0.0
  outer loop
    vertex 11.93415816080246 32.52766477184504 -3.999999905463449
    vertex 12.329199655051465 31.575 5.0
    vertex 12.328764829695748 31.575 -3.999999905463449
  endloop
endfacet
facet normal 0.9238795325112867 0.38268343236509034 0.0
  outer loop
    vertex 12.329199655051465 31.575 5.0
    vertex 11.93415816080246 32.52766477184504 -3.999999905463449
    vertex 11.934592986158178 32.52766477184504 5.0
  endloop
endfacet
facet normal 0.7933533402912354 0.6087614290087204 0.0
  outer loop
    vertex 12.328764829695748 31.575 -3.999999905463449
    vertex 12.956928214313134 30.756928214313138 5.0
    vertex 12.956493388957417 30.756928214313138 -3.999999905463449
  endloop
endfacet
facet normal 0.7933533402912354 0.6087614290087204 0.0
  outer loop
    vertex 12.956928214313134 30.756928214313138 5.0
    vertex 12.328764829695748 31.575 -3.999999905463449
    vertex 12.329199655051465 31.575 5.0
  endloop
endfacet
facet normal 0.6087614290087209 0.7933533402912352 0.0
  outer loop
    vertex 12.956928214313134 30.756928214313138 5.0
    vertex 13.77456517464428 30.129199655051465 -3.999999905463449
    vertex 12.956493388957417 30.756928214313138 -3.999999905463449
  endloop
endfacet
facet normal 0.6087614290087209 0.7933533402912352 0.0
  outer loop
    vertex 13.77456517464428 30.129199655051465 -3.999999905463449
    vertex 12.956928214313134 30.756928214313138 5.0
    vertex 13.774999999999997 30.129199655051465 5.0
  endloop
endfacet
facet normal 0.3826834323650856 0.9238795325112885 0.0
  outer loop
    vertex 13.774999999999997 30.129199655051465 5.0
    vertex 14.727229946489324 29.734592986158184 -3.999999905463449
    vertex 13.77456517464428 30.129199655051465 -3.999999905463449
  endloop
endfacet
facet normal 0.3826834323650856 0.9238795325112885 0.0
  outer loop
    vertex 14.727229946489324 29.734592986158184 -3.999999905463449
    vertex 13.774999999999997 30.129199655051465 5.0
    vertex 14.72766477184504 29.734592986158184 5.0
  endloop
endfacet
facet normal 0.1305261922200538 0.9914448613738103 0.0
  outer loop
    vertex 14.72766477184504 29.734592986158184 5.0
    vertex 15.74956517464428 29.6 -3.999999905463449
    vertex 14.727229946489324 29.734592986158184 -3.999999905463449
  endloop
endfacet
facet normal 0.1305261922200538 0.9914448613738103 0.0
  outer loop
    vertex 15.74956517464428 29.6 -3.999999905463449
    vertex 14.72766477184504 29.734592986158184 5.0
    vertex 15.749999999999996 29.6 5.0
  endloop
endfacet
facet normal -0.1305261922200534 0.9914448613738102 -0.0
  outer loop
    vertex 15.749999999999996 29.6 5.0
    vertex 16.77190040279924 29.734592986158184 -3.999999905463449
    vertex 15.74956517464428 29.6 -3.999999905463449
  endloop
endfacet
facet normal -0.1305261922200534 0.9914448613738102 -0.0
  outer loop
    vertex 16.77190040279924 29.734592986158184 -3.999999905463449
    vertex 15.749999999999996 29.6 5.0
    vertex 16.772335228154954 29.734592986158184 5.0
  endloop
endfacet
facet normal -0.38268343236509034 0.9238795325112867 -0.0
  outer loop
    vertex 16.772335228154954 29.734592986158184 5.0
    vertex 17.724565174644283 30.129199655051472 -3.999999905463449
    vertex 16.77190040279924 29.734592986158184 -3.999999905463449
  endloop
endfacet
facet normal -0.38268343236509034 0.9238795325112867 -0.0
  outer loop
    vertex 17.724565174644283 30.129199655051472 -3.999999905463449
    vertex 16.772335228154954 29.734592986158184 5.0
    vertex 17.724999999999998 30.129199655051472 5.0
  endloop
endfacet
facet normal -0.6087614290087188 0.7933533402912367 -0.0
  outer loop
    vertex 17.724999999999998 30.129199655051472 5.0
    vertex 18.542636960331144 30.756928214313138 -3.999999905463449
    vertex 17.724565174644283 30.129199655051472 -3.999999905463449
  endloop
endfacet
facet normal -0.6087614290087188 0.7933533402912367 -0.0
  outer loop
    vertex 18.542636960331144 30.756928214313138 -3.999999905463449
    vertex 17.724999999999998 30.129199655051472 5.0
    vertex 18.54307178568686 30.756928214313138 5.0
  endloop
endfacet
facet normal -0.793353340291236 0.6087614290087194 -0.0
  outer loop
    vertex 19.170800344948532 31.575000000000003 5.0
    vertex 18.542636960331144 30.756928214313138 -3.999999905463449
    vertex 18.54307178568686 30.756928214313138 5.0
  endloop
endfacet
facet normal -0.793353340291236 0.6087614290087194 -0.0
  outer loop
    vertex 18.542636960331144 30.756928214313138 -3.999999905463449
    vertex 19.170800344948532 31.575000000000003 5.0
    vertex 19.170365519592814 31.575000000000003 -3.999999905463449
  endloop
endfacet
facet normal -0.13052619222005188 -0.9914448613738104 -0.0
  outer loop
    vertex 16.397047612756296 17.414814565722672 0.0
    vertex 15.74956517464428 17.5 -3.999999905463449
    vertex 16.39661278740058 17.414814565722672 -3.999999905463449
  endloop
endfacet
facet normal -0.13052619222005188 -0.9914448613738104 -0.0
  outer loop
    vertex 15.74956517464428 17.5 -3.999999905463449
    vertex 16.397047612756296 17.414814565722672 0.0
    vertex 15.749999999999996 17.5 0.0
  endloop
endfacet
facet normal 0.13052619222005132 -0.9914448613738106 -0.0
  outer loop
    vertex 15.749999999999996 17.5 0.0
    vertex 15.102517561887975 17.414814565722672 -3.999999905463449
    vertex 15.74956517464428 17.5 -3.999999905463449
  endloop
endfacet
facet normal 0.13052619222005132 -0.9914448613738106 -0.0
  outer loop
    vertex 15.102517561887975 17.414814565722672 -3.999999905463449
    vertex 15.749999999999996 17.5 0.0
    vertex 15.102952387243693 17.414814565722672 0.0
  endloop
endfacet
facet normal 0.3826834323650902 -0.9238795325112866 -0.0
  outer loop
    vertex 15.102952387243693 17.414814565722672 0.0
    vertex 14.49956517464428 17.1650635094611 -3.999999905463449
    vertex 15.102517561887975 17.414814565722672 -3.999999905463449
  endloop
endfacet
facet normal 0.3826834323650902 -0.9238795325112866 -0.0
  outer loop
    vertex 14.49956517464428 17.1650635094611 -3.999999905463449
    vertex 15.102952387243693 17.414814565722672 0.0
    vertex 14.499999999999996 17.1650635094611 0.0
  endloop
endfacet
facet normal 0.6087614290087223 -0.793353340291234 -0.0
  outer loop
    vertex 14.499999999999996 17.1650635094611 0.0
    vertex 13.98179822167791 16.76776695296637 -3.999999905463449
    vertex 14.49956517464428 17.1650635094611 -3.999999905463449
  endloop
endfacet
facet normal 0.6087614290087223 -0.793353340291234 -0.0
  outer loop
    vertex 13.98179822167791 16.76776695296637 -3.999999905463449
    vertex 14.499999999999996 17.1650635094611 0.0
    vertex 13.982233047033626 16.76776695296637 0.0
  endloop
endfacet
facet normal 0.7933533402912362 -0.6087614290087197 -0.0
  outer loop
    vertex 13.98179822167791 16.76776695296637 -3.999999905463449
    vertex 13.5849364905389 16.25 0.0
    vertex 13.584501665183183 16.25 -3.999999905463449
  endloop
endfacet
facet normal 0.7933533402912362 -0.6087614290087197 -0.0
  outer loop
    vertex 13.5849364905389 16.25 0.0
    vertex 13.98179822167791 16.76776695296637 -3.999999905463449
    vertex 13.982233047033626 16.76776695296637 0.0
  endloop
endfacet
facet normal 0.9238795325112866 -0.3826834323650902 -0.0
  outer loop
    vertex 13.584501665183183 16.25 -3.999999905463449
    vertex 13.335185434277324 15.647047612756301 0.0
    vertex 13.334750608921608 15.647047612756301 -3.999999905463449
  endloop
endfacet
facet normal 0.9238795325112866 -0.3826834323650902 -0.0
  outer loop
    vertex 13.335185434277324 15.647047612756301 0.0
    vertex 13.584501665183183 16.25 -3.999999905463449
    vertex 13.5849364905389 16.25 0.0
  endloop
endfacet
facet normal 0.9914448613738104 -0.13052619222005188 -0.0
  outer loop
    vertex 13.334750608921608 15.647047612756301 -3.999999905463449
    vertex 13.249999999999995 15.0 0.0
    vertex 13.249565174644278 15.0 -3.999999905463449
  endloop
endfacet
facet normal 0.9914448613738104 -0.13052619222005188 -0.0
  outer loop
    vertex 13.249999999999995 15.0 0.0
    vertex 13.334750608921608 15.647047612756301 -3.999999905463449
    vertex 13.335185434277324 15.647047612756301 0.0
  endloop
endfacet
facet normal 0.9914448613738106 0.13052619222005132 0.0
  outer loop
    vertex 13.249565174644278 15.0 -3.999999905463449
    vertex 13.335185434277324 14.352952387243697 0.0
    vertex 13.334750608921608 14.352952387243697 -3.999999905463449
  endloop
endfacet
facet normal 0.9914448613738106 0.13052619222005132 0.0
  outer loop
    vertex 13.335185434277324 14.352952387243697 0.0
    vertex 13.249565174644278 15.0 -3.999999905463449
    vertex 13.249999999999995 15.0 0.0
  endloop
endfacet
facet normal 0.9238795325112866 0.3826834323650902 0.0
  outer loop
    vertex 13.334750608921608 14.352952387243697 -3.999999905463449
    vertex 13.5849364905389 13.75 0.0
    vertex 13.584501665183183 13.75 -3.999999905463449
  endloop
endfacet
facet normal 0.9238795325112866 0.3826834323650902 0.0
  outer loop
    vertex 13.5849364905389 13.75 0.0
    vertex 13.334750608921608 14.352952387243697 -3.999999905463449
    vertex 13.335185434277324 14.352952387243697 0.0
  endloop
endfacet
facet normal 0.793353340291234 0.6087614290087223 0.0
  outer loop
    vertex 13.584501665183183 13.75 -3.999999905463449
    vertex 13.98223304703363 13.232233047033631 0.0
    vertex 13.981798221677913 13.232233047033631 -3.999999905463449
  endloop
endfacet
facet normal 0.793353340291234 0.6087614290087223 0.0
  outer loop
    vertex 13.98223304703363 13.232233047033631 0.0
    vertex 13.584501665183183 13.75 -3.999999905463449
    vertex 13.5849364905389 13.75 0.0
  endloop
endfacet
facet normal 0.6087614290087217 0.7933533402912344 0.0
  outer loop
    vertex 13.98223304703363 13.232233047033631 0.0
    vertex 14.49956517464428 12.834936490538903 -3.999999905463449
    vertex 13.981798221677913 13.232233047033631 -3.999999905463449
  endloop
endfacet
facet normal 0.6087614290087217 0.7933533402912344 0.0
  outer loop
    vertex 14.49956517464428 12.834936490538903 -3.999999905463449
    vertex 13.98223304703363 13.232233047033631 0.0
    vertex 14.499999999999996 12.834936490538903 0.0
  endloop
endfacet
facet normal 0.3826834323650887 0.9238795325112873 0.0
  outer loop
    vertex 14.499999999999996 12.834936490538903 0.0
    vertex 15.102517561887979 12.58518543427733 -3.999999905463449
    vertex 14.49956517464428 12.834936490538903 -3.999999905463449
  endloop
endfacet
facet normal 0.3826834323650887 0.9238795325112873 0.0
  outer loop
    vertex 15.102517561887979 12.58518543427733 -3.999999905463449
    vertex 14.499999999999996 12.834936490538903 0.0
    vertex 15.102952387243695 12.58518543427733 0.0
  endloop
endfacet
facet normal 0.13052619222005188 0.9914448613738104 0.0
  outer loop
    vertex 15.102952387243695 12.58518543427733 0.0
    vertex 15.74956517464428 12.5 -3.999999905463449
    vertex 15.102517561887979 12.58518543427733 -3.999999905463449
  endloop
endfacet
facet normal 0.13052619222005188 0.9914448613738104 0.0
  outer loop
    vertex 15.74956517464428 12.5 -3.999999905463449
    vertex 15.102952387243695 12.58518543427733 0.0
    vertex 15.749999999999996 12.5 0.0
  endloop
endfacet
facet normal -0.13052619222005132 0.9914448613738106 -0.0
  outer loop
    vertex 15.749999999999996 12.5 0.0
    vertex 16.396612787400585 12.58518543427733 -3.999999905463449
    vertex 15.74956517464428 12.5 -3.999999905463449
  endloop
endfacet
facet normal -0.13052619222005132 0.9914448613738106 -0.0
  outer loop
    vertex 16.396612787400585 12.58518543427733 -3.999999905463449
    vertex 15.749999999999996 12.5 0.0
    vertex 16.3970476127563 12.58518543427733 0.0
  endloop
endfacet
facet normal -0.3826834323650902 0.9238795325112866 -0.0
  outer loop
    vertex 16.3970476127563 12.58518543427733 0.0
    vertex 16.99956517464428 12.834936490538903 -3.999999905463449
    vertex 16.396612787400585 12.58518543427733 -3.999999905463449
  endloop
endfacet
facet normal -0.3826834323650902 0.9238795325112866 -0.0
  outer loop
    vertex 16.99956517464428 12.834936490538903 -3.999999905463449
    vertex 16.3970476127563 12.58518543427733 0.0
    vertex 16.999999999999996 12.834936490538903 0.0
  endloop
endfacet
facet normal -0.6087614290087197 0.7933533402912362 -0.0
  outer loop
    vertex 16.999999999999996 12.834936490538903 0.0
    vertex 17.51733212761065 13.232233047033631 -3.999999905463449
    vertex 16.99956517464428 12.834936490538903 -3.999999905463449
  endloop
endfacet
facet normal -0.6087614290087197 0.7933533402912362 -0.0
  outer loop
    vertex 17.51733212761065 13.232233047033631 -3.999999905463449
    vertex 16.999999999999996 12.834936490538903 0.0
    vertex 17.517766952966365 13.232233047033631 0.0
  endloop
endfacet
facet normal -0.7933533402912362 0.6087614290087197 -0.0
  outer loop
    vertex 17.915063509461095 13.75 0.0
    vertex 17.51733212761065 13.232233047033631 -3.999999905463449
    vertex 17.517766952966365 13.232233047033631 0.0
  endloop
endfacet
facet normal -0.7933533402912362 0.6087614290087197 -0.0
  outer loop
    vertex 17.51733212761065 13.232233047033631 -3.999999905463449
    vertex 17.915063509461095 13.75 0.0
    vertex 17.914628684105377 13.75 -3.999999905463449
  endloop
endfacet
facet normal -0.9238795325112873 0.3826834323650887 -0.0
  outer loop
    vertex 18.16481456572267 14.352952387243699 0.0
    vertex 17.914628684105377 13.75 -3.999999905463449
    vertex 17.915063509461095 13.75 0.0
  endloop
endfacet
facet normal -0.9238795325112873 0.3826834323650887 -0.0
  outer loop
    vertex 17.914628684105377 13.75 -3.999999905463449
    vertex 18.16481456572267 14.352952387243699 0.0
    vertex 18.16437974036695 14.352952387243699 -3.999999905463449
  endloop
endfacet
facet normal -0.9914448613738104 0.13052619222005188 -0.0
  outer loop
    vertex 18.249999999999996 15.0 0.0
    vertex 18.16437974036695 14.352952387243699 -3.999999905463449
    vertex 18.16481456572267 14.352952387243699 0.0
  endloop
endfacet
facet normal -0.9914448613738104 0.13052619222005188 -0.0
  outer loop
    vertex 18.16437974036695 14.352952387243699 -3.999999905463449
    vertex 18.249999999999996 15.0 0.0
    vertex 18.24956517464428 15.0 -3.999999905463449
  endloop
endfacet
facet normal -0.9914448613738104 -0.13052619222005188 -0.0
  outer loop
    vertex 18.16481456572267 15.647047612756301 0.0
    vertex 18.24956517464428 15.0 -3.999999905463449
    vertex 18.249999999999996 15.0 0.0
  endloop
endfacet
facet normal -0.9914448613738104 -0.13052619222005188 -0.0
  outer loop
    vertex 18.24956517464428 15.0 -3.999999905463449
    vertex 18.16481456572267 15.647047612756301 0.0
    vertex 18.16437974036695 15.647047612756301 -3.999999905463449
  endloop
endfacet
facet normal -0.9238795325112873 -0.3826834323650887 -0.0
  outer loop
    vertex 17.915063509461095 16.25 0.0
    vertex 18.16437974036695 15.647047612756301 -3.999999905463449
    vertex 18.16481456572267 15.647047612756301 0.0
  endloop
endfacet
facet normal -0.9238795325112873 -0.3826834323650887 -0.0
  outer loop
    vertex 18.16437974036695 15.647047612756301 -3.999999905463449
    vertex 17.915063509461095 16.25 0.0
    vertex 17.914628684105377 16.25 -3.999999905463449
  endloop
endfacet
facet normal -0.7933533402912362 -0.6087614290087197 -0.0
  outer loop
    vertex 17.517766952966365 16.767766952966372 0.0
    vertex 17.914628684105377 16.25 -3.999999905463449
    vertex 17.915063509461095 16.25 0.0
  endloop
endfacet
facet normal -0.7933533402912362 -0.6087614290087197 -0.0
  outer loop
    vertex 17.914628684105377 16.25 -3.999999905463449
    vertex 17.517766952966365 16.767766952966372 0.0
    vertex 17.51733212761065 16.767766952966372 -3.999999905463449
  endloop
endfacet
facet normal -0.6087614290087197 -0.7933533402912362 -0.0
  outer loop
    vertex 17.517766952966365 16.767766952966372 0.0
    vertex 16.99956517464428 17.1650635094611 -3.999999905463449
    vertex 17.51733212761065 16.767766952966372 -3.999999905463449
  endloop
endfacet
facet normal -0.6087614290087197 -0.7933533402912362 -0.0
  outer loop
    vertex 16.99956517464428 17.1650635094611 -3.999999905463449
    vertex 17.517766952966365 16.767766952966372 0.0
    vertex 16.999999999999996 17.1650635094611 0.0
  endloop
endfacet
facet normal -0.3826834323650887 -0.9238795325112873 -0.0
  outer loop
    vertex 16.999999999999996 17.1650635094611 0.0
    vertex 16.39661278740058 17.414814565722672 -3.999999905463449
    vertex 16.99956517464428 17.1650635094611 -3.999999905463449
  endloop
endfacet
facet normal -0.3826834323650887 -0.9238795325112873 -0.0
  outer loop
    vertex 16.39661278740058 17.414814565722672 -3.999999905463449
    vertex 16.999999999999996 17.1650635094611 0.0
    vertex 16.397047612756296 17.414814565722672 0.0
  endloop
endfacet
facet normal -0.0 -0.0 1.0
  outer loop
    vertex 2.9999999999999973 0.0 0.0
    vertex 3.7499999999999987 33.55 0.0
    vertex 2.9999999999999973 50.0 0.0
  endloop
endfacet
facet normal -0.0 -0.0 1.0
  outer loop
    vertex 3.7499999999999987 33.55 0.0
    vertex 2.9999999999999973 0.0 0.0
    vertex 3.852661663514273 31.983685693359384 0.0
  endloop
endfacet
facet normal -0.0 -0.0 1.0
  outer loop
    vertex 3.852661663514273 31.983685693359384 0.0
    vertex 2.9999999999999973 0.0 0.0
    vertex 4.158890084531177 30.444171458769755 0.0
  endloop
endfacet
facet normal -0.0 -0.0 1.0
  outer loop
    vertex 4.158890084531177 30.444171458769755 0.0
    vertex 2.9999999999999973 0.0 0.0
    vertex 4.663445609864555 28.957798811618932 0.0
  endloop
endfacet
facet normal -0.0 -0.0 1.0
  outer loop
    vertex 4.663445609864555 28.957798811618932 0.0
    vertex 2.9999999999999973 0.0 0.0
    vertex 5.357695154586732 27.550000000000004 0.0
  endloop
endfacet
facet normal -0.0 -0.0 1.0
  outer loop
    vertex 5.357695154586732 27.550000000000004 0.0
    vertex 2.9999999999999973 0.0 0.0
    vertex 13.5849364905389 13.75 0.0
  endloop
endfacet
facet normal -0.0 -0.0 1.0
  outer loop
    vertex 13.5849364905389 13.75 0.0
    vertex 2.9999999999999973 0.0 0.0
    vertex 13.98223304703363 13.232233047033631 0.0
  endloop
endfacet
facet normal -0.0 -0.0 1.0
  outer loop
    vertex 13.98223304703363 13.232233047033631 0.0
    vertex 2.9999999999999973 0.0 0.0
    vertex 28.499999999999993 0.0 0.0
  endloop
endfacet
facet normal -0.0 -0.0 1.0
  outer loop
    vertex 5.357695154586732 27.550000000000004 0.0
    vertex 13.5849364905389 13.75 0.0
    vertex 6.229759916505174 26.244862851895356 0.0
  endloop
endfacet
facet normal -0.0 -0.0 1.0
  outer loop
    vertex 6.229759916505174 26.244862851895356 0.0
    vertex 13.5849364905389 13.75 0.0
    vertex 7.264718625761423 25.064718625761436 0.0
  endloop
endfacet
facet normal -0.0 -0.0 1.0
  outer loop
    vertex 7.264718625761423 25.064718625761436 0.0
    vertex 13.5849364905389 13.75 0.0
    vertex 8.444862851895348 24.029759916505185 0.0
  endloop
endfacet
facet normal -0.0 -0.0 1.0
  outer loop
    vertex 8.444862851895348 24.029759916505185 0.0
    vertex 13.5849364905389 13.75 0.0
    vertex 13.335185434277324 14.352952387243697 0.0
  endloop
endfacet
facet normal -0.0 -0.0 1.0
  outer loop
    vertex 8.444862851895348 24.029759916505185 0.0
    vertex 13.335185434277324 14.352952387243697 0.0
    vertex 9.749999999999991 23.15769515458674 0.0
  endloop
endfacet
facet normal -0.0 -0.0 1.0
  outer loop
    vertex 9.749999999999991 23.15769515458674 0.0
    vertex 13.335185434277324 14.352952387243697 0.0
    vertex 11.157798811618912 22.463445609864564 0.0
  endloop
endfacet
facet normal -0.0 -0.0 1.0
  outer loop
    vertex 11.157798811618912 22.463445609864564 0.0
    vertex 13.335185434277324 14.352952387243697 0.0
    vertex 13.249999999999995 15.0 0.0
  endloop
endfacet
facet normal -0.0 -0.0 1.0
  outer loop
    vertex 11.157798811618912 22.463445609864564 0.0
    vertex 13.249999999999995 15.0 0.0
    vertex 12.644171458769739 21.958890084531188 0.0
  endloop
endfacet
facet normal -0.0 -0.0 1.0
  outer loop
    vertex 13.98223304703363 13.232233047033631 0.0
    vertex 28.499999999999993 0.0 0.0
    vertex 14.499999999999996 12.834936490538903 0.0
  endloop
endfacet
facet normal -0.0 -0.0 1.0
  outer loop
    vertex 14.499999999999996 12.834936490538903 0.0
    vertex 28.499999999999993 0.0 0.0
    vertex 15.102952387243695 12.58518543427733 0.0
  endloop
endfacet
facet normal -0.0 -0.0 1.0
  outer loop
    vertex 15.102952387243695 12.58518543427733 0.0
    vertex 28.499999999999993 0.0 0.0
    vertex 15.749999999999996 12.5 0.0
  endloop
endfacet
facet normal -0.0 -0.0 1.0
  outer loop
    vertex 15.749999999999996 12.5 0.0
    vertex 28.499999999999993 0.0 0.0
    vertex 16.3970476127563 12.58518543427733 0.0
  endloop
endfacet
facet normal -0.0 -0.0 1.0
  outer loop
    vertex 16.3970476127563 12.58518543427733 0.0
    vertex 28.499999999999993 0.0 0.0
    vertex 16.999999999999996 12.834936490538903 0.0
  endloop
endfacet
facet normal -0.0 -0.0 1.0
  outer loop
    vertex 16.999999999999996 12.834936490538903 0.0
    vertex 28.499999999999993 0.0 0.0
    vertex 17.517766952966365 13.232233047033631 0.0
  endloop
endfacet
facet normal -0.0 -0.0 1.0
  outer loop
    vertex 17.517766952966365 13.232233047033631 0.0
    vertex 28.499999999999993 0.0 0.0
    vertex 17.915063509461095 13.75 0.0
  endloop
endfacet
facet normal -0.0 -0.0 1.0
  outer loop
    vertex 17.915063509461095 13.75 0.0
    vertex 28.499999999999993 0.0 0.0
    vertex 18.16481456572267 14.352952387243699 0.0
  endloop
endfacet
facet normal -0.0 -0.0 1.0
  outer loop
    vertex 18.16481456572267 14.352952387243699 0.0
    vertex 28.499999999999993 0.0 0.0
    vertex 18.249999999999996 15.0 0.0
  endloop
endfacet
facet normal -0.0 -0.0 1.0
  outer loop
    vertex 18.249999999999996 15.0 0.0
    vertex 28.499999999999993 0.0 0.0
    vertex 18.855828541230238 21.95889008453118 0.0
  endloop
endfacet
facet normal -0.0 -0.0 1.0
  outer loop
    vertex 18.855828541230238 21.95889008453118 0.0
    vertex 28.499999999999993 0.0 0.0
    vertex 20.34220118838107 22.46344560986456 0.0
  endloop
endfacet
facet normal -0.0 -0.0 1.0
  outer loop
    vertex 20.34220118838107 22.46344560986456 0.0
    vertex 28.499999999999993 0.0 0.0
    vertex 21.74999999999999 23.157695154586733 0.0
  endloop
endfacet
facet normal -0.0 -0.0 1.0
  outer loop
    vertex 21.74999999999999 23.157695154586733 0.0
    vertex 28.499999999999993 0.0 0.0
    vertex 23.05513714810463 24.029759916505174 0.0
  endloop
endfacet
facet normal -0.0 -0.0 1.0
  outer loop
    vertex 23.05513714810463 24.029759916505174 0.0
    vertex 28.499999999999993 0.0 0.0
    vertex 24.235281374238564 25.064718625761433 0.0
  endloop
endfacet
facet normal -0.0 -0.0 1.0
  outer loop
    vertex 24.235281374238564 25.064718625761433 0.0
    vertex 28.499999999999993 0.0 0.0
    vertex 25.270240083494812 26.244862851895352 0.0
  endloop
endfacet
facet normal -0.0 -0.0 1.0
  outer loop
    vertex 25.270240083494812 26.244862851895352 0.0
    vertex 28.499999999999993 0.0 0.0
    vertex 26.142304845413253 27.549999999999994 0.0
  endloop
endfacet
facet normal -0.0 -0.0 1.0
  outer loop
    vertex 26.142304845413253 27.549999999999994 0.0
    vertex 28.499999999999993 0.0 0.0
    vertex 26.836554390135433 28.957798811618915 0.0
  endloop
endfacet
facet normal -0.0 -0.0 1.0
  outer loop
    vertex 26.836554390135433 28.957798811618915 0.0
    vertex 28.499999999999993 0.0 0.0
    vertex 27.341109915468813 30.444171458769745 0.0
  endloop
endfacet
facet normal -0.0 -0.0 1.0
  outer loop
    vertex 27.341109915468813 30.444171458769745 0.0
    vertex 28.499999999999993 0.0 0.0
    vertex 27.647338336485717 31.98368569335937 0.0
  endloop
endfacet
facet normal -0.0 -0.0 1.0
  outer loop
    vertex 27.647338336485717 31.98368569335937 0.0
    vertex 28.499999999999993 0.0 0.0
    vertex 27.749999999999993 33.55 0.0
  endloop
endfacet
facet normal -0.0 -0.0 1.0
  outer loop
    vertex 2.9999999999999973 50.0 0.0
    vertex 12.64417145876975 45.14110991546882 0.0
    vertex 28.499999999999993 50.0 0.0
  endloop
endfacet
facet normal -0.0 -0.0 1.0
  outer loop
    vertex 12.64417145876975 45.14110991546882 0.0
    vertex 2.9999999999999973 50.0 0.0
    vertex 11.157798811618923 44.636554390135444 0.0
  endloop
endfacet
facet normal -0.0 -0.0 1.0
  outer loop
    vertex 11.157798811618923 44.636554390135444 0.0
    vertex 2.9999999999999973 50.0 0.0
    vertex 9.75 43.94230484541327 0.0
  endloop
endfacet
facet normal -0.0 -0.0 1.0
  outer loop
    vertex 9.75 43.94230484541327 0.0
    vertex 2.9999999999999973 50.0 0.0
    vertex 8.444862851895355 43.070240083494824 0.0
  endloop
endfacet
facet normal -0.0 -0.0 1.0
  outer loop
    vertex 8.444862851895355 43.070240083494824 0.0
    vertex 2.9999999999999973 50.0 0.0
    vertex 7.264718625761429 42.03528137423857 0.0
  endloop
endfacet
facet normal -0.0 -0.0 1.0
  outer loop
    vertex 7.264718625761429 42.03528137423857 0.0
    vertex 2.9999999999999973 50.0 0.0
    vertex 6.229759916505178 40.85513714810465 0.0
  endloop
endfacet
facet normal -0.0 -0.0 1.0
  outer loop
    vertex 6.229759916505178 40.85513714810465 0.0
    vertex 2.9999999999999973 50.0 0.0
    vertex 5.357695154586736 39.550000000000004 0.0
  endloop
endfacet
facet normal -0.0 -0.0 1.0
  outer loop
    vertex 5.357695154586736 39.550000000000004 0.0
    vertex 2.9999999999999973 50.0 0.0
    vertex 4.663445609864557 38.14220118838108 0.0
  endloop
endfacet
facet normal -0.0 -0.0 1.0
  outer loop
    vertex 4.663445609864557 38.14220118838108 0.0
    vertex 2.9999999999999973 50.0 0.0
    vertex 4.15889008453118 36.65582854123025 0.0
  endloop
endfacet
facet normal -0.0 -0.0 1.0
  outer loop
    vertex 4.15889008453118 36.65582854123025 0.0
    vertex 2.9999999999999973 50.0 0.0
    vertex 3.852661663514275 35.116314306640625 0.0
  endloop
endfacet
facet normal -0.0 -0.0 1.0
  outer loop
    vertex 3.852661663514275 35.116314306640625 0.0
    vertex 2.9999999999999973 50.0 0.0
    vertex 3.7499999999999987 33.55 0.0
  endloop
endfacet
facet normal -0.0 -0.0 1.0
  outer loop
    vertex 28.499999999999993 50.0 0.0
    vertex 12.64417145876975 45.14110991546882 0.0
    vertex 14.183685693359381 45.44733833648572 0.0
  endloop
endfacet
facet normal -0.0 -0.0 1.0
  outer loop
    vertex 28.499999999999993 50.0 0.0
    vertex 14.183685693359381 45.44733833648572 0.0
    vertex 15.749999999999996 45.55 0.0
  endloop
endfacet
facet normal -0.0 -0.0 1.0
  outer loop
    vertex 28.499999999999993 50.0 0.0
    vertex 15.749999999999996 45.55 0.0
    vertex 17.316314306640617 45.44733833648572 0.0
  endloop
endfacet
facet normal -0.0 -0.0 1.0
  outer loop
    vertex 28.499999999999993 50.0 0.0
    vertex 17.316314306640617 45.44733833648572 0.0
    vertex 18.85582854123025 45.14110991546882 0.0
  endloop
endfacet
facet normal -0.0 -0.0 1.0
  outer loop
    vertex 28.499999999999993 50.0 0.0
    vertex 18.85582854123025 45.14110991546882 0.0
    vertex 20.342201188381072 44.636554390135444 0.0
  endloop
endfacet
facet normal -0.0 -0.0 1.0
  outer loop
    vertex 28.499999999999993 50.0 0.0
    vertex 20.342201188381072 44.636554390135444 0.0
    vertex 21.749999999999996 43.94230484541327 0.0
  endloop
endfacet
facet normal -0.0 -0.0 1.0
  outer loop
    vertex 28.499999999999993 50.0 0.0
    vertex 21.749999999999996 43.94230484541327 0.0
    vertex 23.05513714810464 43.070240083494824 0.0
  endloop
endfacet
facet normal -0.0 -0.0 1.0
  outer loop
    vertex 28.499999999999993 50.0 0.0
    vertex 23.05513714810464 43.070240083494824 0.0
    vertex 24.235281374238564 42.03528137423857 0.0
  endloop
endfacet
facet normal -0.0 -0.0 1.0
  outer loop
    vertex 28.499999999999993 50.0 0.0
    vertex 24.235281374238564 42.03528137423857 0.0
    vertex 25.27024008349482 40.855137148104646 0.0
  endloop
endfacet
facet normal -0.0 -0.0 1.0
  outer loop
    vertex 28.499999999999993 50.0 0.0
    vertex 25.27024008349482 40.855137148104646 0.0
    vertex 26.142304845413257 39.550000000000004 0.0
  endloop
endfacet
facet normal -0.0 -0.0 1.0
  outer loop
    vertex 28.499999999999993 50.0 0.0
    vertex 26.142304845413257 39.550000000000004 0.0
    vertex 26.836554390135433 38.14220118838107 0.0
  endloop
endfacet
facet normal -0.0 -0.0 1.0
  outer loop
    vertex 28.499999999999993 50.0 0.0
    vertex 26.836554390135433 38.14220118838107 0.0
    vertex 27.341109915468813 36.65582854123025 0.0
  endloop
endfacet
facet normal -0.0 -0.0 1.0
  outer loop
    vertex 28.499999999999993 50.0 0.0
    vertex 27.341109915468813 36.65582854123025 0.0
    vertex 27.647338336485717 35.116314306640625 0.0
  endloop
endfacet
facet normal -0.0 -0.0 1.0
  outer loop
    vertex 28.499999999999993 50.0 0.0
    vertex 27.647338336485717 35.116314306640625 0.0
    vertex 27.749999999999993 33.55 0.0
  endloop
endfacet
facet normal -0.0 -0.0 1.0
  outer loop
    vertex 28.499999999999993 50.0 0.0
    vertex 27.749999999999993 33.55 0.0
    vertex 28.499999999999993 0.0 0.0
  endloop
endfacet
facet normal -0.0 -0.0 1.0
  outer loop
    vertex 12.644171458769739 21.958890084531188 0.0
    vertex 13.335185434277324 15.647047612756301 0.0
    vertex 14.183685693359367 21.652661663514277 0.0
  endloop
endfacet
facet normal -0.0 -0.0 1.0
  outer loop
    vertex 13.335185434277324 15.647047612756301 0.0
    vertex 12.644171458769739 21.958890084531188 0.0
    vertex 13.249999999999995 15.0 0.0
  endloop
endfacet
facet normal -0.0 -0.0 1.0
  outer loop
    vertex 14.183685693359367 21.652661663514277 0.0
    vertex 13.335185434277324 15.647047612756301 0.0
    vertex 13.5849364905389 16.25 0.0
  endloop
endfacet
facet normal -0.0 -0.0 1.0
  outer loop
    vertex 14.183685693359367 21.652661663514277 0.0
    vertex 13.5849364905389 16.25 0.0
    vertex 13.982233047033626 16.76776695296637 0.0
  endloop
endfacet
facet normal -0.0 -0.0 1.0
  outer loop
    vertex 14.183685693359367 21.652661663514277 0.0
    vertex 13.982233047033626 16.76776695296637 0.0
    vertex 14.499999999999996 17.1650635094611 0.0
  endloop
endfacet
facet normal -0.0 -0.0 1.0
  outer loop
    vertex 14.183685693359367 21.652661663514277 0.0
    vertex 14.499999999999996 17.1650635094611 0.0
    vertex 15.749999999999993 21.550000000000004 0.0
  endloop
endfacet
facet normal -0.0 -0.0 1.0
  outer loop
    vertex 15.749999999999993 21.550000000000004 0.0
    vertex 14.499999999999996 17.1650635094611 0.0
    vertex 15.102952387243693 17.414814565722672 0.0
  endloop
endfacet
facet normal -0.0 -0.0 1.0
  outer loop
    vertex 15.749999999999993 21.550000000000004 0.0
    vertex 15.102952387243693 17.414814565722672 0.0
    vertex 15.749999999999996 17.5 0.0
  endloop
endfacet
facet normal -0.0 -0.0 1.0
  outer loop
    vertex 15.749999999999993 21.550000000000004 0.0
    vertex 15.749999999999996 17.5 0.0
    vertex 17.316314306640614 21.652661663514277 0.0
  endloop
endfacet
facet normal -0.0 -0.0 1.0
  outer loop
    vertex 17.316314306640614 21.652661663514277 0.0
    vertex 15.749999999999996 17.5 0.0
    vertex 16.397047612756296 17.414814565722672 0.0
  endloop
endfacet
facet normal -0.0 -0.0 1.0
  outer loop
    vertex 17.316314306640614 21.652661663514277 0.0
    vertex 16.397047612756296 17.414814565722672 0.0
    vertex 16.999999999999996 17.1650635094611 0.0
  endloop
endfacet
facet normal -0.0 -0.0 1.0
  outer loop
    vertex 17.316314306640614 21.652661663514277 0.0
    vertex 16.999999999999996 17.1650635094611 0.0
    vertex 17.517766952966365 16.767766952966372 0.0
  endloop
endfacet
facet normal -0.0 -0.0 1.0
  outer loop
    vertex 17.316314306640614 21.652661663514277 0.0
    vertex 17.517766952966365 16.767766952966372 0.0
    vertex 18.855828541230238 21.95889008453118 0.0
  endloop
endfacet
facet normal -0.0 -0.0 1.0
  outer loop
    vertex 18.855828541230238 21.95889008453118 0.0
    vertex 17.517766952966365 16.767766952966372 0.0
    vertex 17.915063509461095 16.25 0.0
  endloop
endfacet
facet normal -0.0 -0.0 1.0
  outer loop
    vertex 18.855828541230238 21.95889008453118 0.0
    vertex 17.915063509461095 16.25 0.0
    vertex 18.16481456572267 15.647047612756301 0.0
  endloop
endfacet
facet normal -0.0 -0.0 1.0
  outer loop
    vertex 18.855828541230238 21.95889008453118 0.0
    vertex 18.16481456572267 15.647047612756301 0.0
    vertex 18.249999999999996 15.0 0.0
  endloop
endfacet
facet normal -0.9999999940507924 -2.97607039168483e-22 0.00010907985756299334
  outer loop
    vertex 2.9999999999999973 50.0 0.0
    vertex 2.999619714573061 0.0 -3.4863029084380535
    vertex 2.9999999999999973 0.0 0.0
  endloop
endfacet
facet normal -0.9999999940507924 -2.97607039168483e-22 0.00010907985756299334
  outer loop
    vertex 2.999619714573061 0.0 -3.4863029084380535
    vertex 2.9999999999999973 50.0 0.0
    vertex 2.999619714573061 49.999999999999986 -3.4863029084380535
  endloop
endfacet
facet normal 0.9999999940837507 -0.0 -0.00010877728955217177
  outer loop
    vertex 28.49961956328904 50.0 -3.497390956040621
    vertex 28.499999999999993 0.0 0.0
    vertex 28.49961956328904 0.0 -3.497390956040621
  endloop
endfacet
facet normal 0.9999999940837507 -0.0 -0.00010877728955217177
  outer loop
    vertex 28.499999999999993 0.0 0.0
    vertex 28.49961956328904 50.0 -3.497390956040621
    vertex 28.499999999999993 50.0 0.0
  endloop
endfacet
facet normal 0.0 -1.0 0.0
  outer loop
    vertex 28.49961956328904 0.0 -3.497390956040621
    vertex 3.4995651273760044 0.0 -3.986520318141309
    vertex 27.999565221912544 0.0 -3.9971735404046376
  endloop
endfacet
facet normal 0.0 -1.0 0.0
  outer loop
    vertex 3.4995651273760044 0.0 -3.986520318141309
    vertex 28.49961956328904 0.0 -3.497390956040621
    vertex 2.999619714573061 0.0 -3.4863029084380535
  endloop
endfacet
facet normal 0.0 -1.0 0.0
  outer loop
    vertex 2.999619714573061 0.0 -3.4863029084380535
    vertex 28.49961956328904 0.0 -3.497390956040621
    vertex 28.499999999999993 0.0 0.0
  endloop
endfacet
facet normal 0.0 -1.0 0.0
  outer loop
    vertex 2.999619714573061 0.0 -3.4863029084380535
    vertex 28.499999999999993 0.0 0.0
    vertex 2.9999999999999973 0.0 0.0
  endloop
endfacet
facet normal -0.7072990545732346 0.0 -0.7069144555034991
  outer loop
    vertex 2.999619714573061 49.999999999999986 -3.4863029084380535
    vertex 3.4995651273760044 0.0 -3.986520318141309
    vertex 2.999619714573061 0.0 -3.4863029084380535
  endloop
endfacet
facet normal -0.7072990545732346 0.0 -0.7069144555034991
  outer loop
    vertex 3.4995651273760044 0.0 -3.986520318141309
    vertex 2.999619714573061 49.999999999999986 -3.4863029084380535
    vertex 3.4995651273760044 49.999999999999986 -3.986520318141309
  endloop
endfacet
facet normal 0.7069145625065301 0.0 -0.7072989476283712
  outer loop
    vertex 28.49961956328904 50.0 -3.497390956040621
    vertex 27.999565221912544 0.0 -3.9971735404046376
    vertex 27.999565221912544 50.0 -3.9971735404046376
  endloop
endfacet
facet normal 0.7069145625065301 0.0 -0.7072989476283712
  outer loop
    vertex 27.999565221912544 0.0 -3.9971735404046376
    vertex 28.49961956328904 50.0 -3.497390956040621
    vertex 28.49961956328904 0.0 -3.497390956040621
  endloop
endfacet
facet normal 0.0 0.0 1.0
  outer loop
    vertex 3.852661663514273 31.983685693359384 5.0
    vertex 3.852661663514275 35.116314306640625 5.0
    vertex 3.7499999999999987 33.55 5.0
  endloop
endfacet
facet normal 0.0 0.0 1.0
  outer loop
    vertex 3.852661663514275 35.116314306640625 5.0
    vertex 3.852661663514273 31.983685693359384 5.0
    vertex 4.158890084531177 30.444171458769755 5.0
  endloop
endfacet
facet normal 0.0 0.0 1.0
  outer loop
    vertex 3.852661663514275 35.116314306640625 5.0
    vertex 4.158890084531177 30.444171458769755 5.0
    vertex 4.15889008453118 36.65582854123025 5.0
  endloop
endfacet
facet normal 0.0 0.0 1.0
  outer loop
    vertex 4.15889008453118 36.65582854123025 5.0
    vertex 4.158890084531177 30.444171458769755 5.0
    vertex 4.663445609864555 28.957798811618932 5.0
  endloop
endfacet
facet normal 0.0 0.0 1.0
  outer loop
    vertex 4.15889008453118 36.65582854123025 5.0
    vertex 4.663445609864555 28.957798811618932 5.0
    vertex 4.663445609864557 38.14220118838108 5.0
  endloop
endfacet
facet normal 0.0 0.0 1.0
  outer loop
    vertex 4.663445609864557 38.14220118838108 5.0
    vertex 4.663445609864555 28.957798811618932 5.0
    vertex 5.357695154586732 27.550000000000004 5.0
  endloop
endfacet
facet normal 0.0 0.0 1.0
  outer loop
    vertex 4.663445609864557 38.14220118838108 5.0
    vertex 5.357695154586732 27.550000000000004 5.0
    vertex 5.357695154586736 39.550000000000004 5.0
  endloop
endfacet
facet normal 0.0 0.0 1.0
  outer loop
    vertex 5.357695154586736 39.550000000000004 5.0
    vertex 5.357695154586732 27.550000000000004 5.0
    vertex 6.229759916505174 26.244862851895356 5.0
  endloop
endfacet
facet normal 0.0 0.0 1.0
  outer loop
    vertex 5.357695154586736 39.550000000000004 5.0
    vertex 6.229759916505174 26.244862851895356 5.0
    vertex 6.229759916505178 40.85513714810465 5.0
  endloop
endfacet
facet normal 0.0 0.0 1.0
  outer loop
    vertex 6.229759916505178 40.85513714810465 5.0
    vertex 6.229759916505174 26.244862851895356 5.0
    vertex 7.264718625761423 25.064718625761436 5.0
  endloop
endfacet
facet normal 0.0 0.0 1.0
  outer loop
    vertex 6.229759916505178 40.85513714810465 5.0
    vertex 7.264718625761423 25.064718625761436 5.0
    vertex 7.264718625761429 42.03528137423857 5.0
  endloop
endfacet
facet normal 0.0 0.0 1.0
  outer loop
    vertex 7.264718625761429 42.03528137423857 5.0
    vertex 7.264718625761423 25.064718625761436 5.0
    vertex 8.444862851895348 24.029759916505185 5.0
  endloop
endfacet
facet normal 0.0 0.0 1.0
  outer loop
    vertex 7.264718625761429 42.03528137423857 5.0
    vertex 8.444862851895348 24.029759916505185 5.0
    vertex 8.444862851895355 43.070240083494824 5.0
  endloop
endfacet
facet normal 0.0 0.0 1.0
  outer loop
    vertex 8.444862851895355 43.070240083494824 5.0
    vertex 8.444862851895348 24.029759916505185 5.0
    vertex 9.749999999999991 23.15769515458674 5.0
  endloop
endfacet
facet normal 0.0 0.0 1.0
  outer loop
    vertex 8.444862851895355 43.070240083494824 5.0
    vertex 9.749999999999991 23.15769515458674 5.0
    vertex 9.75 43.94230484541327 5.0
  endloop
endfacet
facet normal 0.0 0.0 1.0
  outer loop
    vertex 9.75 43.94230484541327 5.0
    vertex 9.749999999999991 23.15769515458674 5.0
    vertex 11.157798811618912 22.463445609864564 5.0
  endloop
endfacet
facet normal 0.0 0.0 1.0
  outer loop
    vertex 9.75 43.94230484541327 5.0
    vertex 11.157798811618912 22.463445609864564 5.0
    vertex 11.157798811618923 44.636554390135444 5.0
  endloop
endfacet
facet normal 0.0 0.0 1.0
  outer loop
    vertex 11.157798811618923 44.636554390135444 5.0
    vertex 11.157798811618912 22.463445609864564 5.0
    vertex 11.799999999999999 33.55 5.0
  endloop
endfacet
facet normal 0.0 0.0 1.0
  outer loop
    vertex 11.799999999999999 33.55 5.0
    vertex 11.157798811618912 22.463445609864564 5.0
    vertex 12.644171458769739 21.958890084531188 5.0
  endloop
endfacet
facet normal 0.0 0.0 1.0
  outer loop
    vertex 11.799999999999999 33.55 5.0
    vertex 12.644171458769739 21.958890084531188 5.0
    vertex 11.934592986158178 32.52766477184504 5.0
  endloop
endfacet
facet normal 0.0 0.0 1.0
  outer loop
    vertex 11.934592986158178 32.52766477184504 5.0
    vertex 12.644171458769739 21.958890084531188 5.0
    vertex 12.329199655051465 31.575 5.0
  endloop
endfacet
facet normal 0.0 0.0 1.0
  outer loop
    vertex 12.329199655051465 31.575 5.0
    vertex 12.644171458769739 21.958890084531188 5.0
    vertex 12.956928214313134 30.756928214313138 5.0
  endloop
endfacet
facet normal 0.0 0.0 1.0
  outer loop
    vertex 12.956928214313134 30.756928214313138 5.0
    vertex 12.644171458769739 21.958890084531188 5.0
    vertex 14.183685693359367 21.652661663514277 5.0
  endloop
endfacet
facet normal 0.0 0.0 1.0
  outer loop
    vertex 12.956928214313134 30.756928214313138 5.0
    vertex 14.183685693359367 21.652661663514277 5.0
    vertex 13.774999999999997 30.129199655051465 5.0
  endloop
endfacet
facet normal 0.0 0.0 1.0
  outer loop
    vertex 13.774999999999997 30.129199655051465 5.0
    vertex 14.183685693359367 21.652661663514277 5.0
    vertex 14.72766477184504 29.734592986158184 5.0
  endloop
endfacet
facet normal 0.0 0.0 1.0
  outer loop
    vertex 14.72766477184504 29.734592986158184 5.0
    vertex 14.183685693359367 21.652661663514277 5.0
    vertex 15.749999999999993 21.550000000000004 5.0
  endloop
endfacet
facet normal 0.0 0.0 1.0
  outer loop
    vertex 14.72766477184504 29.734592986158184 5.0
    vertex 15.749999999999993 21.550000000000004 5.0
    vertex 15.749999999999996 29.6 5.0
  endloop
endfacet
facet normal 0.0 0.0 1.0
  outer loop
    vertex 15.749999999999996 29.6 5.0
    vertex 15.749999999999993 21.550000000000004 5.0
    vertex 17.316314306640614 21.652661663514277 5.0
  endloop
endfacet
facet normal 0.0 0.0 1.0
  outer loop
    vertex 15.749999999999996 29.6 5.0
    vertex 17.316314306640614 21.652661663514277 5.0
    vertex 16.772335228154954 29.734592986158184 5.0
  endloop
endfacet
facet normal 0.0 0.0 1.0
  outer loop
    vertex 16.772335228154954 29.734592986158184 5.0
    vertex 17.316314306640614 21.652661663514277 5.0
    vertex 17.724999999999998 30.129199655051472 5.0
  endloop
endfacet
facet normal 0.0 0.0 1.0
  outer loop
    vertex 17.724999999999998 30.129199655051472 5.0
    vertex 17.316314306640614 21.652661663514277 5.0
    vertex 18.855828541230238 21.95889008453118 5.0
  endloop
endfacet
facet normal 0.0 0.0 1.0
  outer loop
    vertex 17.724999999999998 30.129199655051472 5.0
    vertex 18.855828541230238 21.95889008453118 5.0
    vertex 18.54307178568686 30.756928214313138 5.0
  endloop
endfacet
facet normal 0.0 0.0 1.0
  outer loop
    vertex 18.54307178568686 30.756928214313138 5.0
    vertex 18.855828541230238 21.95889008453118 5.0
    vertex 19.170800344948532 31.575000000000003 5.0
  endloop
endfacet
facet normal 0.0 0.0 1.0
  outer loop
    vertex 19.170800344948532 31.575000000000003 5.0
    vertex 18.855828541230238 21.95889008453118 5.0
    vertex 20.34220118838107 22.46344560986456 5.0
  endloop
endfacet
facet normal 0.0 0.0 1.0
  outer loop
    vertex 19.170800344948532 31.575000000000003 5.0
    vertex 20.34220118838107 22.46344560986456 5.0
    vertex 19.565407013841817 32.527664771845046 5.0
  endloop
endfacet
facet normal 0.0 0.0 1.0
  outer loop
    vertex 19.565407013841817 32.527664771845046 5.0
    vertex 20.34220118838107 22.46344560986456 5.0
    vertex 19.699999999999996 33.55 5.0
  endloop
endfacet
facet normal 0.0 0.0 1.0
  outer loop
    vertex 11.799999999999999 33.55 5.0
    vertex 12.64417145876975 45.14110991546882 5.0
    vertex 11.157798811618923 44.636554390135444 5.0
  endloop
endfacet
facet normal 0.0 0.0 1.0
  outer loop
    vertex 12.64417145876975 45.14110991546882 5.0
    vertex 11.799999999999999 33.55 5.0
    vertex 11.934592986158178 34.57233522815496 5.0
  endloop
endfacet
facet normal 0.0 0.0 1.0
  outer loop
    vertex 12.64417145876975 45.14110991546882 5.0
    vertex 11.934592986158178 34.57233522815496 5.0
    vertex 12.329199655051465 35.525 5.0
  endloop
endfacet
facet normal 0.0 0.0 1.0
  outer loop
    vertex 12.64417145876975 45.14110991546882 5.0
    vertex 12.329199655051465 35.525 5.0
    vertex 12.956928214313134 36.34307178568687 5.0
  endloop
endfacet
facet normal 0.0 0.0 1.0
  outer loop
    vertex 12.64417145876975 45.14110991546882 5.0
    vertex 12.956928214313134 36.34307178568687 5.0
    vertex 14.183685693359381 45.44733833648572 5.0
  endloop
endfacet
facet normal 0.0 0.0 1.0
  outer loop
    vertex 14.183685693359381 45.44733833648572 5.0
    vertex 12.956928214313134 36.34307178568687 5.0
    vertex 13.774999999999997 36.97080034494853 5.0
  endloop
endfacet
facet normal 0.0 0.0 1.0
  outer loop
    vertex 14.183685693359381 45.44733833648572 5.0
    vertex 13.774999999999997 36.97080034494853 5.0
    vertex 14.727664771845038 37.36540701384182 5.0
  endloop
endfacet
facet normal 0.0 0.0 1.0
  outer loop
    vertex 14.183685693359381 45.44733833648572 5.0
    vertex 14.727664771845038 37.36540701384182 5.0
    vertex 15.749999999999996 45.55 5.0
  endloop
endfacet
facet normal 0.0 0.0 1.0
  outer loop
    vertex 15.749999999999996 45.55 5.0
    vertex 14.727664771845038 37.36540701384182 5.0
    vertex 15.749999999999996 37.5 5.0
  endloop
endfacet
facet normal 0.0 0.0 1.0
  outer loop
    vertex 15.749999999999996 45.55 5.0
    vertex 15.749999999999996 37.5 5.0
    vertex 16.77233522815495 37.365407013841825 5.0
  endloop
endfacet
facet normal 0.0 0.0 1.0
  outer loop
    vertex 15.749999999999996 45.55 5.0
    vertex 16.77233522815495 37.365407013841825 5.0
    vertex 17.316314306640617 45.44733833648572 5.0
  endloop
endfacet
facet normal 0.0 0.0 1.0
  outer loop
    vertex 17.316314306640617 45.44733833648572 5.0
    vertex 16.77233522815495 37.365407013841825 5.0
    vertex 17.724999999999994 36.970800344948536 5.0
  endloop
endfacet
facet normal 0.0 0.0 1.0
  outer loop
    vertex 17.316314306640617 45.44733833648572 5.0
    vertex 17.724999999999994 36.970800344948536 5.0
    vertex 18.85582854123025 45.14110991546882 5.0
  endloop
endfacet
facet normal 0.0 0.0 1.0
  outer loop
    vertex 18.85582854123025 45.14110991546882 5.0
    vertex 17.724999999999994 36.970800344948536 5.0
    vertex 18.543071785686855 36.34307178568687 5.0
  endloop
endfacet
facet normal 0.0 0.0 1.0
  outer loop
    vertex 18.85582854123025 45.14110991546882 5.0
    vertex 18.543071785686855 36.34307178568687 5.0
    vertex 19.17080034494853 35.525000000000006 5.0
  endloop
endfacet
facet normal 0.0 0.0 1.0
  outer loop
    vertex 18.85582854123025 45.14110991546882 5.0
    vertex 19.17080034494853 35.525000000000006 5.0
    vertex 20.342201188381072 44.636554390135444 5.0
  endloop
endfacet
facet normal 0.0 0.0 1.0
  outer loop
    vertex 20.342201188381072 44.636554390135444 5.0
    vertex 19.17080034494853 35.525000000000006 5.0
    vertex 19.565407013841817 34.57233522815496 5.0
  endloop
endfacet
facet normal 0.0 0.0 1.0
  outer loop
    vertex 20.342201188381072 44.636554390135444 5.0
    vertex 19.565407013841817 34.57233522815496 5.0
    vertex 19.699999999999996 33.55 5.0
  endloop
endfacet
facet normal 0.0 0.0 1.0
  outer loop
    vertex 20.342201188381072 44.636554390135444 5.0
    vertex 19.699999999999996 33.55 5.0
    vertex 20.34220118838107 22.46344560986456 5.0
  endloop
endfacet
facet normal 0.0 0.0 1.0
  outer loop
    vertex 20.342201188381072 44.636554390135444 5.0
    vertex 20.34220118838107 22.46344560986456 5.0
    vertex 21.74999999999999 23.157695154586733 5.0
  endloop
endfacet
facet normal 0.0 0.0 1.0
  outer loop
    vertex 20.342201188381072 44.636554390135444 5.0
    vertex 21.74999999999999 23.157695154586733 5.0
    vertex 21.749999999999996 43.94230484541327 5.0
  endloop
endfacet
facet normal 0.0 0.0 1.0
  outer loop
    vertex 21.749999999999996 43.94230484541327 5.0
    vertex 21.74999999999999 23.157695154586733 5.0
    vertex 23.05513714810463 24.029759916505174 5.0
  endloop
endfacet
facet normal 0.0 0.0 1.0
  outer loop
    vertex 21.749999999999996 43.94230484541327 5.0
    vertex 23.05513714810463 24.029759916505174 5.0
    vertex 23.05513714810464 43.070240083494824 5.0
  endloop
endfacet
facet normal 0.0 0.0 1.0
  outer loop
    vertex 23.05513714810464 43.070240083494824 5.0
    vertex 23.05513714810463 24.029759916505174 5.0
    vertex 24.235281374238564 25.064718625761433 5.0
  endloop
endfacet
facet normal 0.0 0.0 1.0
  outer loop
    vertex 23.05513714810464 43.070240083494824 5.0
    vertex 24.235281374238564 25.064718625761433 5.0
    vertex 24.235281374238564 42.03528137423857 5.0
  endloop
endfacet
facet normal 0.0 0.0 1.0
  outer loop
    vertex 24.235281374238564 42.03528137423857 5.0
    vertex 24.235281374238564 25.064718625761433 5.0
    vertex 25.270240083494812 26.244862851895352 5.0
  endloop
endfacet
facet normal 0.0 0.0 1.0
  outer loop
    vertex 24.235281374238564 42.03528137423857 5.0
    vertex 25.270240083494812 26.244862851895352 5.0
    vertex 25.27024008349482 40.855137148104646 5.0
  endloop
endfacet
facet normal 0.0 0.0 1.0
  outer loop
    vertex 25.27024008349482 40.855137148104646 5.0
    vertex 25.270240083494812 26.244862851895352 5.0
    vertex 26.142304845413253 27.549999999999994 5.0
  endloop
endfacet
facet normal 0.0 0.0 1.0
  outer loop
    vertex 25.27024008349482 40.855137148104646 5.0
    vertex 26.142304845413253 27.549999999999994 5.0
    vertex 26.142304845413257 39.550000000000004 5.0
  endloop
endfacet
facet normal 0.0 0.0 1.0
  outer loop
    vertex 26.142304845413257 39.550000000000004 5.0
    vertex 26.142304845413253 27.549999999999994 5.0
    vertex 26.836554390135433 28.957798811618915 5.0
  endloop
endfacet
facet normal 0.0 0.0 1.0
  outer loop
    vertex 26.142304845413257 39.550000000000004 5.0
    vertex 26.836554390135433 28.957798811618915 5.0
    vertex 26.836554390135433 38.14220118838107 5.0
  endloop
endfacet
facet normal 0.0 0.0 1.0
  outer loop
    vertex 26.836554390135433 38.14220118838107 5.0
    vertex 26.836554390135433 28.957798811618915 5.0
    vertex 27.341109915468813 30.444171458769745 5.0
  endloop
endfacet
facet normal 0.0 0.0 1.0
  outer loop
    vertex 26.836554390135433 38.14220118838107 5.0
    vertex 27.341109915468813 30.444171458769745 5.0
    vertex 27.341109915468813 36.65582854123025 5.0
  endloop
endfacet
facet normal 0.0 0.0 1.0
  outer loop
    vertex 27.341109915468813 36.65582854123025 5.0
    vertex 27.341109915468813 30.444171458769745 5.0
    vertex 27.647338336485717 31.98368569335937 5.0
  endloop
endfacet
facet normal 0.0 0.0 1.0
  outer loop
    vertex 27.341109915468813 36.65582854123025 5.0
    vertex 27.647338336485717 31.98368569335937 5.0
    vertex 27.647338336485717 35.116314306640625 5.0
  endloop
endfacet
facet normal 0.0 0.0 1.0
  outer loop
    vertex 27.647338336485717 35.116314306640625 5.0
    vertex 27.647338336485717 31.98368569335937 5.0
    vertex 27.749999999999993 33.55 5.0
  endloop
endfacet
facet normal 0.8968727415326891 0.44228869021899986 0.0
  outer loop
    vertex 26.142304845413257 39.550000000000004 0.0
    vertex 26.836554390135433 38.14220118838107 5.0
    vertex 26.836554390135433 38.14220118838107 0.0
  endloop
endfacet
facet normal 0.8968727415326891 0.44228869021899986 0.0
  outer loop
    vertex 26.836554390135433 38.14220118838107 5.0
    vertex 26.142304845413257 39.550000000000004 0.0
    vertex 26.142304845413257 39.550000000000004 5.0
  endloop
endfacet
facet normal 0.8314696123025452 0.5555702330196022 0.0
  outer loop
    vertex 25.27024008349482 40.855137148104646 0.0
    vertex 26.142304845413257 39.550000000000004 5.0
    vertex 26.142304845413257 39.550000000000004 0.0
  endloop
endfacet
facet normal 0.8314696123025452 0.5555702330196022 0.0
  outer loop
    vertex 26.142304845413257 39.550000000000004 5.0
    vertex 25.27024008349482 40.855137148104646 0.0
    vertex 25.27024008349482 40.855137148104646 5.0
  endloop
endfacet
facet normal 0.7518398074789776 0.6593458151000688 0.0
  outer loop
    vertex 24.235281374238564 42.03528137423857 0.0
    vertex 25.27024008349482 40.855137148104646 5.0
    vertex 25.27024008349482 40.855137148104646 0.0
  endloop
endfacet
facet normal 0.7518398074789776 0.6593458151000688 0.0
  outer loop
    vertex 25.27024008349482 40.855137148104646 5.0
    vertex 24.235281374238564 42.03528137423857 0.0
    vertex 24.235281374238564 42.03528137423857 5.0
  endloop
endfacet
facet normal 0.6593458151000687 0.7518398074789776 0.0
  outer loop
    vertex 23.05513714810464 43.070240083494824 5.0
    vertex 24.235281374238564 42.03528137423857 0.0
    vertex 23.05513714810464 43.070240083494824 0.0
  endloop
endfacet
facet normal 0.6593458151000687 0.7518398074789776 0.0
  outer loop
    vertex 24.235281374238564 42.03528137423857 0.0
    vertex 23.05513714810464 43.070240083494824 5.0
    vertex 24.235281374238564 42.03528137423857 5.0
  endloop
endfacet
facet normal 0.5555702330196038 0.8314696123025441 0.0
  outer loop
    vertex 21.749999999999996 43.94230484541327 5.0
    vertex 23.05513714810464 43.070240083494824 0.0
    vertex 21.749999999999996 43.94230484541327 0.0
  endloop
endfacet
facet normal 0.5555702330196038 0.8314696123025441 0.0
  outer loop
    vertex 23.05513714810464 43.070240083494824 0.0
    vertex 21.749999999999996 43.94230484541327 5.0
    vertex 23.05513714810464 43.070240083494824 5.0
  endloop
endfacet
facet normal 0.4422886902190005 0.8968727415326887 0.0
  outer loop
    vertex 20.342201188381072 44.636554390135444 5.0
    vertex 21.749999999999996 43.94230484541327 0.0
    vertex 20.342201188381072 44.636554390135444 0.0
  endloop
endfacet
facet normal 0.4422886902190005 0.8968727415326887 0.0
  outer loop
    vertex 21.749999999999996 43.94230484541327 0.0
    vertex 20.342201188381072 44.636554390135444 5.0
    vertex 21.749999999999996 43.94230484541327 5.0
  endloop
endfacet
facet normal 0.3214394653031591 0.9469301294951066 0.0
  outer loop
    vertex 18.85582854123025 45.14110991546882 5.0
    vertex 20.342201188381072 44.636554390135444 0.0
    vertex 18.85582854123025 45.14110991546882 0.0
  endloop
endfacet
facet normal 0.3214394653031591 0.9469301294951066 0.0
  outer loop
    vertex 20.342201188381072 44.636554390135444 0.0
    vertex 18.85582854123025 45.14110991546882 5.0
    vertex 20.342201188381072 44.636554390135444 5.0
  endloop
endfacet
facet normal 0.19509032201613064 0.9807852804032301 0.0
  outer loop
    vertex 17.316314306640617 45.44733833648572 5.0
    vertex 18.85582854123025 45.14110991546882 0.0
    vertex 17.316314306640617 45.44733833648572 0.0
  endloop
endfacet
facet normal 0.19509032201613064 0.9807852804032301 0.0
  outer loop
    vertex 18.85582854123025 45.14110991546882 0.0
    vertex 17.316314306640617 45.44733833648572 5.0
    vertex 18.85582854123025 45.14110991546882 5.0
  endloop
endfacet
facet normal 0.06540312923014092 0.9978589232386037 0.0
  outer loop
    vertex 15.749999999999996 45.55 5.0
    vertex 17.316314306640617 45.44733833648572 0.0
    vertex 15.749999999999996 45.55 0.0
  endloop
endfacet
facet normal 0.06540312923014092 0.9978589232386037 0.0
  outer loop
    vertex 17.316314306640617 45.44733833648572 0.0
    vertex 15.749999999999996 45.55 5.0
    vertex 17.316314306640617 45.44733833648572 5.0
  endloop
endfacet
facet normal -0.06540312923014117 0.9978589232386038 0.0
  outer loop
    vertex 14.183685693359381 45.44733833648572 5.0
    vertex 15.749999999999996 45.55 0.0
    vertex 14.183685693359381 45.44733833648572 0.0
  endloop
endfacet
facet normal -0.06540312923014117 0.9978589232386038 0.0
  outer loop
    vertex 15.749999999999996 45.55 0.0
    vertex 14.183685693359381 45.44733833648572 5.0
    vertex 15.749999999999996 45.55 5.0
  endloop
endfacet
facet normal -0.19509032201612683 0.9807852804032309 0.0
  outer loop
    vertex 12.64417145876975 45.14110991546882 5.0
    vertex 14.183685693359381 45.44733833648572 0.0
    vertex 12.64417145876975 45.14110991546882 0.0
  endloop
endfacet
facet normal -0.19509032201612683 0.9807852804032309 0.0
  outer loop
    vertex 14.183685693359381 45.44733833648572 0.0
    vertex 12.64417145876975 45.14110991546882 5.0
    vertex 14.183685693359381 45.44733833648572 5.0
  endloop
endfacet
facet normal -0.3214394653031623 0.9469301294951056 0.0
  outer loop
    vertex 11.157798811618923 44.636554390135444 5.0
    vertex 12.64417145876975 45.14110991546882 0.0
    vertex 11.157798811618923 44.636554390135444 0.0
  endloop
endfacet
facet normal -0.3214394653031623 0.9469301294951056 0.0
  outer loop
    vertex 12.64417145876975 45.14110991546882 0.0
    vertex 11.157798811618923 44.636554390135444 5.0
    vertex 12.64417145876975 45.14110991546882 5.0
  endloop
endfacet
facet normal -0.4422886902190009 0.8968727415326886 0.0
  outer loop
    vertex 9.75 43.94230484541327 5.0
    vertex 11.157798811618923 44.636554390135444 0.0
    vertex 9.75 43.94230484541327 0.0
  endloop
endfacet
facet normal -0.4422886902190009 0.8968727415326886 0.0
  outer loop
    vertex 11.157798811618923 44.636554390135444 0.0
    vertex 9.75 43.94230484541327 5.0
    vertex 11.157798811618923 44.636554390135444 5.0
  endloop
endfacet
facet normal -0.5555702330196014 0.8314696123025458 0.0
  outer loop
    vertex 8.444862851895355 43.070240083494824 5.0
    vertex 9.75 43.94230484541327 0.0
    vertex 8.444862851895355 43.070240083494824 0.0
  endloop
endfacet
facet normal -0.5555702330196014 0.8314696123025458 0.0
  outer loop
    vertex 9.75 43.94230484541327 0.0
    vertex 8.444862851895355 43.070240083494824 5.0
    vertex 9.75 43.94230484541327 5.0
  endloop
endfacet
facet normal -0.6593458151000698 0.7518398074789766 0.0
  outer loop
    vertex 7.264718625761429 42.03528137423857 5.0
    vertex 8.444862851895355 43.070240083494824 0.0
    vertex 7.264718625761429 42.03528137423857 0.0
  endloop
endfacet
facet normal -0.6593458151000698 0.7518398074789766 0.0
  outer loop
    vertex 8.444862851895355 43.070240083494824 0.0
    vertex 7.264718625761429 42.03528137423857 5.0
    vertex 8.444862851895355 43.070240083494824 5.0
  endloop
endfacet
facet normal -0.7518398074789767 0.6593458151000696 0.0
  outer loop
    vertex 7.264718625761429 42.03528137423857 5.0
    vertex 6.229759916505178 40.85513714810465 0.0
    vertex 6.229759916505178 40.85513714810465 5.0
  endloop
endfacet
facet normal -0.7518398074789767 0.6593458151000696 0.0
  outer loop
    vertex 6.229759916505178 40.85513714810465 0.0
    vertex 7.264718625761429 42.03528137423857 5.0
    vertex 7.264718625761429 42.03528137423857 0.0
  endloop
endfacet
facet normal -0.8314696123025446 0.5555702330196035 0.0
  outer loop
    vertex 6.229759916505178 40.85513714810465 5.0
    vertex 5.357695154586736 39.550000000000004 0.0
    vertex 5.357695154586736 39.550000000000004 5.0
  endloop
endfacet
facet normal -0.8314696123025446 0.5555702330196035 0.0
  outer loop
    vertex 5.357695154586736 39.550000000000004 0.0
    vertex 6.229759916505178 40.85513714810465 5.0
    vertex 6.229759916505178 40.85513714810465 0.0
  endloop
endfacet
facet normal -0.8968727415326884 0.44228869021900125 0.0
  outer loop
    vertex 5.357695154586736 39.550000000000004 5.0
    vertex 4.663445609864557 38.14220118838108 0.0
    vertex 4.663445609864557 38.14220118838108 5.0
  endloop
endfacet
facet normal -0.8968727415326884 0.44228869021900125 0.0
  outer loop
    vertex 4.663445609864557 38.14220118838108 0.0
    vertex 5.357695154586736 39.550000000000004 5.0
    vertex 5.357695154586736 39.550000000000004 0.0
  endloop
endfacet
facet normal -0.9469301294951059 0.3214394653031609 0.0
  outer loop
    vertex 4.663445609864557 38.14220118838108 5.0
    vertex 4.15889008453118 36.65582854123025 0.0
    vertex 4.15889008453118 36.65582854123025 5.0
  endloop
endfacet
facet normal -0.9469301294951059 0.3214394653031609 0.0
  outer loop
    vertex 4.15889008453118 36.65582854123025 0.0
    vertex 4.663445609864557 38.14220118838108 5.0
    vertex 4.663445609864557 38.14220118838108 0.0
  endloop
endfacet
facet normal -0.9807852804032305 0.195090322016128 0.0
  outer loop
    vertex 4.15889008453118 36.65582854123025 5.0
    vertex 3.852661663514275 35.116314306640625 0.0
    vertex 3.852661663514275 35.116314306640625 5.0
  endloop
endfacet
facet normal -0.9807852804032305 0.195090322016128 0.0
  outer loop
    vertex 3.852661663514275 35.116314306640625 0.0
    vertex 4.15889008453118 36.65582854123025 5.0
    vertex 4.15889008453118 36.65582854123025 0.0
  endloop
endfacet
facet normal -0.9978589232386035 0.0654031292301436 0.0
  outer loop
    vertex 3.852661663514275 35.116314306640625 5.0
    vertex 3.7499999999999987 33.55 0.0
    vertex 3.7499999999999987 33.55 5.0
  endloop
endfacet
facet normal -0.9978589232386035 0.0654031292301436 0.0
  outer loop
    vertex 3.7499999999999987 33.55 0.0
    vertex 3.852661663514275 35.116314306640625 5.0
    vertex 3.852661663514275 35.116314306640625 0.0
  endloop
endfacet
facet normal -0.9978589232386036 -0.06540312923014295 -0.0
  outer loop
    vertex 3.7499999999999987 33.55 5.0
    vertex 3.852661663514273 31.983685693359384 0.0
    vertex 3.852661663514273 31.983685693359384 5.0
  endloop
endfacet
facet normal -0.9978589232386036 -0.06540312923014295 -0.0
  outer loop
    vertex 3.852661663514273 31.983685693359384 0.0
    vertex 3.7499999999999987 33.55 5.0
    vertex 3.7499999999999987 33.55 0.0
  endloop
endfacet
facet normal -0.9807852804032308 -0.19509032201612717 -0.0
  outer loop
    vertex 3.852661663514273 31.983685693359384 5.0
    vertex 4.158890084531177 30.444171458769755 0.0
    vertex 4.158890084531177 30.444171458769755 5.0
  endloop
endfacet
facet normal -0.9807852804032308 -0.19509032201612717 -0.0
  outer loop
    vertex 4.158890084531177 30.444171458769755 0.0
    vertex 3.852661663514273 31.983685693359384 5.0
    vertex 3.852661663514273 31.983685693359384 0.0
  endloop
endfacet
facet normal -0.9469301294951057 -0.32143946530316203 -0.0
  outer loop
    vertex 4.158890084531177 30.444171458769755 5.0
    vertex 4.663445609864555 28.957798811618932 0.0
    vertex 4.663445609864555 28.957798811618932 5.0
  endloop
endfacet
facet normal -0.9469301294951057 -0.32143946530316203 -0.0
  outer loop
    vertex 4.663445609864555 28.957798811618932 0.0
    vertex 4.158890084531177 30.444171458769755 5.0
    vertex 4.158890084531177 30.444171458769755 0.0
  endloop
endfacet
facet normal -0.8968727415326887 -0.4422886902190005 -0.0
  outer loop
    vertex 4.663445609864555 28.957798811618932 5.0
    vertex 5.357695154586732 27.550000000000004 0.0
    vertex 5.357695154586732 27.550000000000004 5.0
  endloop
endfacet
facet normal -0.8968727415326887 -0.4422886902190005 -0.0
  outer loop
    vertex 5.357695154586732 27.550000000000004 0.0
    vertex 4.663445609864555 28.957798811618932 5.0
    vertex 4.663445609864555 28.957798811618932 0.0
  endloop
endfacet
facet normal -0.8314696123025456 -0.5555702330196018 -0.0
  outer loop
    vertex 5.357695154586732 27.550000000000004 5.0
    vertex 6.229759916505174 26.244862851895356 0.0
    vertex 6.229759916505174 26.244862851895356 5.0
  endloop
endfacet
facet normal -0.8314696123025456 -0.5555702330196018 -0.0
  outer loop
    vertex 6.229759916505174 26.244862851895356 0.0
    vertex 5.357695154586732 27.550000000000004 5.0
    vertex 5.357695154586732 27.550000000000004 0.0
  endloop
endfacet
facet normal -0.7518398074789773 -0.6593458151000692 -0.0
  outer loop
    vertex 6.229759916505174 26.244862851895356 5.0
    vertex 7.264718625761423 25.064718625761436 0.0
    vertex 7.264718625761423 25.064718625761436 5.0
  endloop
endfacet
facet normal -0.7518398074789773 -0.6593458151000692 -0.0
  outer loop
    vertex 7.264718625761423 25.064718625761436 0.0
    vertex 6.229759916505174 26.244862851895356 5.0
    vertex 6.229759916505174 26.244862851895356 0.0
  endloop
endfacet
facet normal -0.6593458151000693 -0.7518398074789772 -0.0
  outer loop
    vertex 8.444862851895348 24.029759916505185 5.0
    vertex 7.264718625761423 25.064718625761436 0.0
    vertex 8.444862851895348 24.029759916505185 0.0
  endloop
endfacet
facet normal -0.6593458151000693 -0.7518398074789772 -0.0
  outer loop
    vertex 7.264718625761423 25.064718625761436 0.0
    vertex 8.444862851895348 24.029759916505185 5.0
    vertex 7.264718625761423 25.064718625761436 5.0
  endloop
endfacet
facet normal -0.5555702330196031 -0.8314696123025447 -0.0
  outer loop
    vertex 9.749999999999991 23.15769515458674 5.0
    vertex 8.444862851895348 24.029759916505185 0.0
    vertex 9.749999999999991 23.15769515458674 0.0
  endloop
endfacet
facet normal -0.5555702330196031 -0.8314696123025447 -0.0
  outer loop
    vertex 8.444862851895348 24.029759916505185 0.0
    vertex 9.749999999999991 23.15769515458674 5.0
    vertex 8.444862851895348 24.029759916505185 5.0
  endloop
endfacet
facet normal -0.4422886902190013 -0.8968727415326885 -0.0
  outer loop
    vertex 11.157798811618912 22.463445609864564 5.0
    vertex 9.749999999999991 23.15769515458674 0.0
    vertex 11.157798811618912 22.463445609864564 0.0
  endloop
endfacet
facet normal -0.4422886902190013 -0.8968727415326885 -0.0
  outer loop
    vertex 9.749999999999991 23.15769515458674 0.0
    vertex 11.157798811618912 22.463445609864564 5.0
    vertex 9.749999999999991 23.15769515458674 5.0
  endloop
endfacet
facet normal -0.3214394653031623 -0.9469301294951056 -0.0
  outer loop
    vertex 12.644171458769739 21.958890084531188 5.0
    vertex 11.157798811618912 22.463445609864564 0.0
    vertex 12.644171458769739 21.958890084531188 0.0
  endloop
endfacet
facet normal -0.3214394653031623 -0.9469301294951056 -0.0
  outer loop
    vertex 11.157798811618912 22.463445609864564 0.0
    vertex 12.644171458769739 21.958890084531188 5.0
    vertex 11.157798811618912 22.463445609864564 5.0
  endloop
endfacet
facet normal -0.1950903220161308 -0.9807852804032301 -0.0
  outer loop
    vertex 14.183685693359367 21.652661663514277 5.0
    vertex 12.644171458769739 21.958890084531188 0.0
    vertex 14.183685693359367 21.652661663514277 0.0
  endloop
endfacet
facet normal -0.1950903220161308 -0.9807852804032301 -0.0
  outer loop
    vertex 12.644171458769739 21.958890084531188 0.0
    vertex 14.183685693359367 21.652661663514277 5.0
    vertex 12.644171458769739 21.958890084531188 5.0
  endloop
endfacet
facet normal -0.06540312923014248 -0.9978589232386036 -0.0
  outer loop
    vertex 15.749999999999993 21.550000000000004 5.0
    vertex 14.183685693359367 21.652661663514277 0.0
    vertex 15.749999999999993 21.550000000000004 0.0
  endloop
endfacet
facet normal -0.06540312923014248 -0.9978589232386036 -0.0
  outer loop
    vertex 14.183685693359367 21.652661663514277 0.0
    vertex 15.749999999999993 21.550000000000004 5.0
    vertex 14.183685693359367 21.652661663514277 5.0
  endloop
endfacet
facet normal 0.06540312923014283 -0.9978589232386035 0.0
  outer loop
    vertex 17.316314306640614 21.652661663514277 5.0
    vertex 15.749999999999993 21.550000000000004 0.0
    vertex 17.316314306640614 21.652661663514277 0.0
  endloop
endfacet
facet normal 0.06540312923014283 -0.9978589232386035 0.0
  outer loop
    vertex 15.749999999999993 21.550000000000004 0.0
    vertex 17.316314306640614 21.652661663514277 5.0
    vertex 15.749999999999993 21.550000000000004 5.0
  endloop
endfacet
facet normal 0.1950903220161275 -0.9807852804032307 0.0
  outer loop
    vertex 18.855828541230238 21.95889008453118 5.0
    vertex 17.316314306640614 21.652661663514277 0.0
    vertex 18.855828541230238 21.95889008453118 0.0
  endloop
endfacet
facet normal 0.1950903220161275 -0.9807852804032307 0.0
  outer loop
    vertex 17.316314306640614 21.652661663514277 0.0
    vertex 18.855828541230238 21.95889008453118 5.0
    vertex 17.316314306640614 21.652661663514277 5.0
  endloop
endfacet
facet normal 0.32143946530316175 -0.9469301294951057 0.0
  outer loop
    vertex 20.34220118838107 22.46344560986456 5.0
    vertex 18.855828541230238 21.95889008453118 0.0
    vertex 20.34220118838107 22.46344560986456 0.0
  endloop
endfacet
facet normal 0.32143946530316175 -0.9469301294951057 0.0
  outer loop
    vertex 18.855828541230238 21.95889008453118 0.0
    vertex 20.34220118838107 22.46344560986456 5.0
    vertex 18.855828541230238 21.95889008453118 5.0
  endloop
endfacet
facet normal 0.4422886902189998 -0.896872741532689 0.0
  outer loop
    vertex 21.74999999999999 23.157695154586733 5.0
    vertex 20.34220118838107 22.46344560986456 0.0
    vertex 21.74999999999999 23.157695154586733 0.0
  endloop
endfacet
facet normal 0.4422886902189998 -0.896872741532689 0.0
  outer loop
    vertex 20.34220118838107 22.46344560986456 0.0
    vertex 21.74999999999999 23.157695154586733 5.0
    vertex 20.34220118838107 22.46344560986456 5.0
  endloop
endfacet
facet normal 0.5555702330196035 -0.8314696123025446 0.0
  outer loop
    vertex 23.05513714810463 24.029759916505174 5.0
    vertex 21.74999999999999 23.157695154586733 0.0
    vertex 23.05513714810463 24.029759916505174 0.0
  endloop
endfacet
facet normal 0.5555702330196035 -0.8314696123025446 0.0
  outer loop
    vertex 21.74999999999999 23.157695154586733 0.0
    vertex 23.05513714810463 24.029759916505174 5.0
    vertex 21.74999999999999 23.157695154586733 5.0
  endloop
endfacet
facet normal 0.6593458151000681 -0.7518398074789782 0.0
  outer loop
    vertex 24.235281374238564 25.064718625761433 5.0
    vertex 23.05513714810463 24.029759916505174 0.0
    vertex 24.235281374238564 25.064718625761433 0.0
  endloop
endfacet
facet normal 0.6593458151000681 -0.7518398074789782 0.0
  outer loop
    vertex 23.05513714810463 24.029759916505174 0.0
    vertex 24.235281374238564 25.064718625761433 5.0
    vertex 23.05513714810463 24.029759916505174 5.0
  endloop
endfacet
facet normal 0.7518398074789767 -0.6593458151000696 0.0
  outer loop
    vertex 25.270240083494812 26.244862851895352 0.0
    vertex 24.235281374238564 25.064718625761433 5.0
    vertex 24.235281374238564 25.064718625761433 0.0
  endloop
endfacet
facet normal 0.7518398074789767 -0.6593458151000696 0.0
  outer loop
    vertex 24.235281374238564 25.064718625761433 5.0
    vertex 25.270240083494812 26.244862851895352 0.0
    vertex 25.270240083494812 26.244862851895352 5.0
  endloop
endfacet
facet normal 0.8314696123025452 -0.5555702330196022 0.0
  outer loop
    vertex 26.142304845413253 27.549999999999994 0.0
    vertex 25.270240083494812 26.244862851895352 5.0
    vertex 25.270240083494812 26.244862851895352 0.0
  endloop
endfacet
facet normal 0.8314696123025452 -0.5555702330196022 0.0
  outer loop
    vertex 25.270240083494812 26.244862851895352 5.0
    vertex 26.142304845413253 27.549999999999994 0.0
    vertex 26.142304845413253 27.549999999999994 5.0
  endloop
endfacet
facet normal 0.8968727415326869 -0.44228869021900413 0.0
  outer loop
    vertex 26.836554390135433 28.957798811618915 0.0
    vertex 26.142304845413253 27.549999999999994 5.0
    vertex 26.142304845413253 27.549999999999994 0.0
  endloop
endfacet
facet normal 0.8968727415326869 -0.44228869021900413 0.0
  outer loop
    vertex 26.142304845413253 27.549999999999994 5.0
    vertex 26.836554390135433 28.957798811618915 0.0
    vertex 26.836554390135433 28.957798811618915 5.0
  endloop
endfacet
facet normal 0.9469301294951057 -0.32143946530316175 0.0
  outer loop
    vertex 27.341109915468813 30.444171458769745 0.0
    vertex 26.836554390135433 28.957798811618915 5.0
    vertex 26.836554390135433 28.957798811618915 0.0
  endloop
endfacet
facet normal 0.9469301294951057 -0.32143946530316175 0.0
  outer loop
    vertex 26.836554390135433 28.957798811618915 5.0
    vertex 27.341109915468813 30.444171458769745 0.0
    vertex 27.341109915468813 30.444171458769745 5.0
  endloop
endfacet
facet normal 0.9807852804032307 -0.19509032201612783 0.0
  outer loop
    vertex 27.647338336485717 31.98368569335937 0.0
    vertex 27.341109915468813 30.444171458769745 5.0
    vertex 27.341109915468813 30.444171458769745 0.0
  endloop
endfacet
facet normal 0.9807852804032307 -0.19509032201612783 0.0
  outer loop
    vertex 27.341109915468813 30.444171458769745 5.0
    vertex 27.647338336485717 31.98368569335937 0.0
    vertex 27.647338336485717 31.98368569335937 5.0
  endloop
endfacet
facet normal 0.9978589232386035 -0.06540312923014403 0.0
  outer loop
    vertex 27.749999999999993 33.55 0.0
    vertex 27.647338336485717 31.98368569335937 5.0
    vertex 27.647338336485717 31.98368569335937 0.0
  endloop
endfacet
facet normal 0.9978589232386035 -0.06540312923014403 0.0
  outer loop
    vertex 27.647338336485717 31.98368569335937 5.0
    vertex 27.749999999999993 33.55 0.0
    vertex 27.749999999999993 33.55 5.0
  endloop
endfacet
facet normal 0.9978589232386035 0.0654031292301445 0.0
  outer loop
    vertex 27.647338336485717 35.116314306640625 0.0
    vertex 27.749999999999993 33.55 5.0
    vertex 27.749999999999993 33.55 0.0
  endloop
endfacet
facet normal 0.9978589232386035 0.0654031292301445 0.0
  outer loop
    vertex 27.749999999999993 33.55 5.0
    vertex 27.647338336485717 35.116314306640625 0.0
    vertex 27.647338336485717 35.116314306640625 5.0
  endloop
endfacet
facet normal 0.9807852804032308 0.19509032201612717 0.0
  outer loop
    vertex 27.341109915468813 36.65582854123025 0.0
    vertex 27.647338336485717 35.116314306640625 5.0
    vertex 27.647338336485717 35.116314306640625 0.0
  endloop
endfacet
facet normal 0.9807852804032308 0.19509032201612717 0.0
  outer loop
    vertex 27.647338336485717 35.116314306640625 5.0
    vertex 27.341109915468813 36.65582854123025 0.0
    vertex 27.341109915468813 36.65582854123025 5.0
  endloop
endfacet
facet normal 0.9469301294951052 0.3214394653031628 0.0
  outer loop
    vertex 26.836554390135433 38.14220118838107 0.0
    vertex 27.341109915468813 36.65582854123025 5.0
    vertex 27.341109915468813 36.65582854123025 0.0
  endloop
endfacet
facet normal 0.9469301294951052 0.3214394653031628 0.0
  outer loop
    vertex 27.341109915468813 36.65582854123025 5.0
    vertex 26.836554390135433 38.14220118838107 0.0
    vertex 26.836554390135433 38.14220118838107 5.0
  endloop
endfacet
endsolid Bolt-Drill-Guide
