solid Gear-1-Bushing
facet normal -0.9238795325112871 -0.3826834323650894 -0.0
  outer loop
    vertex 2.165063509461097 1.2499999999999998 16.499999999999996
    vertex 2.4148145657226707 0.6470476127563018 0.0
    vertex 2.4148145657226707 0.6470476127563018 16.499999999999996
  endloop
endfacet
facet normal -0.9238795325112871 -0.3826834323650894 -0.0
  outer loop
    vertex 2.4148145657226707 0.6470476127563018 0.0
    vertex 2.165063509461097 1.2499999999999998 16.499999999999996
    vertex 2.165063509461097 1.2499999999999998 0.0
  endloop
endfacet
facet normal -0.7933533402912353 -0.6087614290087204 -0.0
  outer loop
    vertex 1.767766952966369 1.767766952966369 16.499999999999996
    vertex 2.165063509461097 1.2499999999999998 0.0
    vertex 2.165063509461097 1.2499999999999998 16.499999999999996
  endloop
endfacet
facet normal -0.7933533402912353 -0.6087614290087204 -0.0
  outer loop
    vertex 2.165063509461097 1.2499999999999998 0.0
    vertex 1.767766952966369 1.767766952966369 16.499999999999996
    vertex 1.767766952966369 1.767766952966369 0.0
  endloop
endfacet
facet normal -0.6087614290087204 -0.7933533402912353 -0.0
  outer loop
    vertex 1.767766952966369 1.767766952966369 16.499999999999996
    vertex 1.2500000000000004 2.1650635094610964 0.0
    vertex 1.767766952966369 1.767766952966369 0.0
  endloop
endfacet
facet normal -0.6087614290087204 -0.7933533402912353 -0.0
  outer loop
    vertex 1.2500000000000004 2.1650635094610964 0.0
    vertex 1.767766952966369 1.767766952966369 16.499999999999996
    vertex 1.2500000000000004 2.1650635094610964 16.499999999999996
  endloop
endfacet
facet normal -0.3826834323650899 -0.9238795325112867 -0.0
  outer loop
    vertex 1.2500000000000004 2.1650635094610964 16.499999999999996
    vertex 0.6470476127563024 2.4148145657226707 0.0
    vertex 1.2500000000000004 2.1650635094610964 0.0
  endloop
endfacet
facet normal -0.3826834323650899 -0.9238795325112867 -0.0
  outer loop
    vertex 0.6470476127563024 2.4148145657226707 0.0
    vertex 1.2500000000000004 2.1650635094610964 16.499999999999996
    vertex 0.6470476127563024 2.4148145657226707 16.499999999999996
  endloop
endfacet
facet normal -0.13052619222005168 -0.9914448613738105 -0.0
  outer loop
    vertex 0.6470476127563024 2.4148145657226707 16.499999999999996
    vertex 1.5308084989341916e-16 2.5 0.0
    vertex 0.6470476127563024 2.4148145657226707 0.0
  endloop
endfacet
facet normal -0.13052619222005168 -0.9914448613738105 -0.0
  outer loop
    vertex 1.5308084989341916e-16 2.5 0.0
    vertex 0.6470476127563024 2.4148145657226707 16.499999999999996
    vertex 1.5308084989341916e-16 2.5 16.499999999999996
  endloop
endfacet
facet normal 0.13052619222005177 -0.9914448613738104 0.0
  outer loop
    vertex 1.5308084989341916e-16 2.5 16.499999999999996
    vertex -0.6470476127563015 2.4148145657226707 0.0
    vertex 1.5308084989341916e-16 2.5 0.0
  endloop
endfacet
facet normal 0.13052619222005177 -0.9914448613738104 0.0
  outer loop
    vertex -0.6470476127563015 2.4148145657226707 0.0
    vertex 1.5308084989341916e-16 2.5 16.499999999999996
    vertex -0.6470476127563015 2.4148145657226707 16.499999999999996
  endloop
endfacet
facet normal 0.3826834323650894 -0.923879532511287 0.0
  outer loop
    vertex -0.6470476127563015 2.4148145657226707 16.499999999999996
    vertex -1.2499999999999996 2.165063509461097 0.0
    vertex -0.6470476127563015 2.4148145657226707 0.0
  endloop
endfacet
facet normal 0.3826834323650894 -0.923879532511287 0.0
  outer loop
    vertex -1.2499999999999996 2.165063509461097 0.0
    vertex -0.6470476127563015 2.4148145657226707 16.499999999999996
    vertex -1.2499999999999996 2.165063509461097 16.499999999999996
  endloop
endfacet
facet normal 0.6087614290087204 -0.7933533402912353 0.0
  outer loop
    vertex -1.2499999999999996 2.165063509461097 16.499999999999996
    vertex -1.7677669529663687 1.767766952966369 0.0
    vertex -1.2499999999999996 2.165063509461097 0.0
  endloop
endfacet
facet normal 0.6087614290087204 -0.7933533402912353 0.0
  outer loop
    vertex -1.7677669529663687 1.767766952966369 0.0
    vertex -1.2499999999999996 2.165063509461097 16.499999999999996
    vertex -1.7677669529663687 1.767766952966369 16.499999999999996
  endloop
endfacet
facet normal 0.793353340291235 -0.6087614290087209 0.0
  outer loop
    vertex -1.7677669529663687 1.767766952966369 0.0
    vertex -2.1650635094610964 1.2500000000000009 16.499999999999996
    vertex -2.1650635094610964 1.2500000000000009 0.0
  endloop
endfacet
facet normal 0.793353340291235 -0.6087614290087209 0.0
  outer loop
    vertex -2.1650635094610964 1.2500000000000009 16.499999999999996
    vertex -1.7677669529663687 1.767766952966369 0.0
    vertex -1.7677669529663687 1.767766952966369 16.499999999999996
  endloop
endfacet
facet normal 0.9238795325112866 -0.38268343236509006 0.0
  outer loop
    vertex -2.1650635094610964 1.2500000000000009 0.0
    vertex -2.4148145657226707 0.6470476127563025 16.499999999999996
    vertex -2.4148145657226707 0.6470476127563025 0.0
  endloop
endfacet
facet normal 0.9238795325112866 -0.38268343236509006 0.0
  outer loop
    vertex -2.4148145657226707 0.6470476127563025 16.499999999999996
    vertex -2.1650635094610964 1.2500000000000009 0.0
    vertex -2.1650635094610964 1.2500000000000009 16.499999999999996
  endloop
endfacet
facet normal 0.9914448613738105 -0.13052619222005168 0.0
  outer loop
    vertex -2.4148145657226707 0.6470476127563025 0.0
    vertex -2.5 3.061616997868383e-16 16.499999999999996
    vertex -2.5 3.061616997868383e-16 0.0
  endloop
endfacet
facet normal 0.9914448613738105 -0.13052619222005168 0.0
  outer loop
    vertex -2.5 3.061616997868383e-16 16.499999999999996
    vertex -2.4148145657226707 0.6470476127563025 0.0
    vertex -2.4148145657226707 0.6470476127563025 16.499999999999996
  endloop
endfacet
facet normal 0.9914448613738105 0.13052619222005138 0.0
  outer loop
    vertex -2.5 3.061616997868383e-16 0.0
    vertex -2.414814565722671 -0.6470476127563008 16.499999999999996
    vertex -2.414814565722671 -0.6470476127563008 0.0
  endloop
endfacet
facet normal 0.9914448613738105 0.13052619222005138 0.0
  outer loop
    vertex -2.414814565722671 -0.6470476127563008 16.499999999999996
    vertex -2.5 3.061616997868383e-16 0.0
    vertex -2.5 3.061616997868383e-16 16.499999999999996
  endloop
endfacet
facet normal 0.9238795325112871 0.3826834323650891 0.0
  outer loop
    vertex -2.414814565722671 -0.6470476127563008 0.0
    vertex -2.1650635094610973 -1.2499999999999993 16.499999999999996
    vertex -2.1650635094610973 -1.2499999999999993 0.0
  endloop
endfacet
facet normal 0.9238795325112871 0.3826834323650891 0.0
  outer loop
    vertex -2.1650635094610973 -1.2499999999999993 16.499999999999996
    vertex -2.414814565722671 -0.6470476127563008 0.0
    vertex -2.414814565722671 -0.6470476127563008 16.499999999999996
  endloop
endfacet
facet normal 0.7933533402912353 0.6087614290087204 0.0
  outer loop
    vertex -2.1650635094610973 -1.2499999999999993 0.0
    vertex -1.7677669529663698 -1.767766952966368 16.499999999999996
    vertex -1.7677669529663698 -1.767766952966368 0.0
  endloop
endfacet
facet normal 0.7933533402912353 0.6087614290087204 0.0
  outer loop
    vertex -1.7677669529663698 -1.767766952966368 16.499999999999996
    vertex -2.1650635094610973 -1.2499999999999993 0.0
    vertex -2.1650635094610973 -1.2499999999999993 16.499999999999996
  endloop
endfacet
facet normal 0.6087614290087209 0.7933533402912352 0.0
  outer loop
    vertex -1.7677669529663698 -1.767766952966368 16.499999999999996
    vertex -1.250000000000001 -2.165063509461096 0.0
    vertex -1.7677669529663698 -1.767766952966368 0.0
  endloop
endfacet
facet normal 0.6087614290087209 0.7933533402912352 0.0
  outer loop
    vertex -1.250000000000001 -2.165063509461096 0.0
    vertex -1.7677669529663698 -1.767766952966368 16.499999999999996
    vertex -1.250000000000001 -2.165063509461096 16.499999999999996
  endloop
endfacet
facet normal 0.3826834323650907 0.9238795325112863 0.0
  outer loop
    vertex -1.250000000000001 -2.165063509461096 16.499999999999996
    vertex -0.6470476127563038 -2.4148145657226703 0.0
    vertex -1.250000000000001 -2.165063509461096 0.0
  endloop
endfacet
facet normal 0.3826834323650907 0.9238795325112863 0.0
  outer loop
    vertex -0.6470476127563038 -2.4148145657226703 0.0
    vertex -1.250000000000001 -2.165063509461096 16.499999999999996
    vertex -0.6470476127563038 -2.4148145657226703 16.499999999999996
  endloop
endfacet
facet normal 0.130526192220052 0.9914448613738104 0.0
  outer loop
    vertex -0.6470476127563038 -2.4148145657226703 16.499999999999996
    vertex -4.592425496802574e-16 -2.5 0.0
    vertex -0.6470476127563038 -2.4148145657226703 0.0
  endloop
endfacet
facet normal 0.130526192220052 0.9914448613738104 0.0
  outer loop
    vertex -4.592425496802574e-16 -2.5 0.0
    vertex -0.6470476127563038 -2.4148145657226703 16.499999999999996
    vertex -4.592425496802574e-16 -2.5 16.499999999999996
  endloop
endfacet
facet normal -0.13052619222005135 0.9914448613738105 0.0
  outer loop
    vertex -4.592425496802574e-16 -2.5 16.499999999999996
    vertex 0.6470476127563007 -2.414814565722671 0.0
    vertex -4.592425496802574e-16 -2.5 0.0
  endloop
endfacet
facet normal -0.13052619222005135 0.9914448613738105 0.0
  outer loop
    vertex 0.6470476127563007 -2.414814565722671 0.0
    vertex -4.592425496802574e-16 -2.5 16.499999999999996
    vertex 0.6470476127563007 -2.414814565722671 16.499999999999996
  endloop
endfacet
facet normal -0.38268343236508917 0.923879532511287 0.0
  outer loop
    vertex 0.6470476127563007 -2.414814565722671 16.499999999999996
    vertex 1.2499999999999982 -2.1650635094610977 0.0
    vertex 0.6470476127563007 -2.414814565722671 0.0
  endloop
endfacet
facet normal -0.38268343236508917 0.923879532511287 0.0
  outer loop
    vertex 1.2499999999999982 -2.1650635094610977 0.0
    vertex 0.6470476127563007 -2.414814565722671 16.499999999999996
    vertex 1.2499999999999982 -2.1650635094610977 16.499999999999996
  endloop
endfacet
facet normal -0.6087614290087201 0.7933533402912355 0.0
  outer loop
    vertex 1.2499999999999982 -2.1650635094610977 16.499999999999996
    vertex 1.7677669529663682 -1.7677669529663693 0.0
    vertex 1.2499999999999982 -2.1650635094610977 0.0
  endloop
endfacet
facet normal -0.6087614290087201 0.7933533402912355 0.0
  outer loop
    vertex 1.7677669529663682 -1.7677669529663693 0.0
    vertex 1.2499999999999982 -2.1650635094610977 16.499999999999996
    vertex 1.7677669529663682 -1.7677669529663693 16.499999999999996
  endloop
endfacet
facet normal -0.7933533402912352 0.6087614290087208 0.0
  outer loop
    vertex 2.165063509461096 -1.250000000000001 16.499999999999996
    vertex 1.7677669529663682 -1.7677669529663693 0.0
    vertex 1.7677669529663682 -1.7677669529663693 16.499999999999996
  endloop
endfacet
facet normal -0.7933533402912352 0.6087614290087208 0.0
  outer loop
    vertex 1.7677669529663682 -1.7677669529663693 0.0
    vertex 2.165063509461096 -1.250000000000001 16.499999999999996
    vertex 2.165063509461096 -1.250000000000001 0.0
  endloop
endfacet
facet normal -0.9238795325112864 0.3826834323650908 0.0
  outer loop
    vertex 2.4148145657226703 -0.647047612756304 16.499999999999996
    vertex 2.165063509461096 -1.250000000000001 0.0
    vertex 2.165063509461096 -1.250000000000001 16.499999999999996
  endloop
endfacet
facet normal -0.9238795325112864 0.3826834323650908 0.0
  outer loop
    vertex 2.165063509461096 -1.250000000000001 0.0
    vertex 2.4148145657226703 -0.647047612756304 16.499999999999996
    vertex 2.4148145657226703 -0.647047612756304 0.0
  endloop
endfacet
facet normal -0.9914448613738105 0.13052619222005188 0.0
  outer loop
    vertex 2.5 0.0 16.499999999999996
    vertex 2.4148145657226703 -0.647047612756304 0.0
    vertex 2.4148145657226703 -0.647047612756304 16.499999999999996
  endloop
endfacet
facet normal -0.9914448613738105 0.13052619222005188 0.0
  outer loop
    vertex 2.4148145657226703 -0.647047612756304 0.0
    vertex 2.5 0.0 16.499999999999996
    vertex 2.5 0.0 0.0
  endloop
endfacet
facet normal -0.9914448613738104 -0.13052619222005174 -0.0
  outer loop
    vertex 2.4148145657226707 0.6470476127563018 16.499999999999996
    vertex 2.5 0.0 0.0
    vertex 2.5 0.0 16.499999999999996
  endloop
endfacet
facet normal -0.9914448613738104 -0.13052619222005174 -0.0
  outer loop
    vertex 2.5 0.0 0.0
    vertex 2.4148145657226707 0.6470476127563018 16.499999999999996
    vertex 2.4148145657226707 0.6470476127563018 0.0
  endloop
endfacet
facet normal 0.0 0.0 -1.0
  outer loop
    vertex -1.8273666910807194 13.880228059233346 0.0
    vertex -2.5 3.061616997868383e-16 0.0
    vertex -3.6234666314352886 13.522961568046956 0.0
  endloop
endfacet
facet normal 0.0 0.0 -1.0
  outer loop
    vertex -2.5 3.061616997868383e-16 0.0
    vertex -1.8273666910807194 13.880228059233346 0.0
    vertex -2.4148145657226707 0.6470476127563025 0.0
  endloop
endfacet
facet normal 0.0 0.0 -1.0
  outer loop
    vertex -2.4148145657226707 0.6470476127563025 0.0
    vertex -1.8273666910807194 13.880228059233346 0.0
    vertex -2.1650635094610964 1.2500000000000009 0.0
  endloop
endfacet
facet normal 0.0 0.0 -1.0
  outer loop
    vertex -2.1650635094610964 1.2500000000000009 0.0
    vertex -1.8273666910807194 13.880228059233346 0.0
    vertex -1.7677669529663687 1.767766952966369 0.0
  endloop
endfacet
facet normal 0.0 0.0 -1.0
  outer loop
    vertex -1.7677669529663687 1.767766952966369 0.0
    vertex -1.8273666910807194 13.880228059233346 0.0
    vertex 8.572527594031472e-16 14.0 0.0
  endloop
endfacet
facet normal 0.0 0.0 -1.0
  outer loop
    vertex -1.7677669529663687 1.767766952966369 0.0
    vertex 8.572527594031472e-16 14.0 0.0
    vertex -1.2499999999999996 2.165063509461097 0.0
  endloop
endfacet
facet normal 0.0 0.0 -1.0
  outer loop
    vertex -1.2499999999999996 2.165063509461097 0.0
    vertex 8.572527594031472e-16 14.0 0.0
    vertex -0.6470476127563015 2.4148145657226707 0.0
  endloop
endfacet
facet normal 0.0 0.0 -1.0
  outer loop
    vertex -0.6470476127563015 2.4148145657226707 0.0
    vertex 8.572527594031472e-16 14.0 0.0
    vertex 1.5308084989341916e-16 2.5 0.0
  endloop
endfacet
facet normal 0.0 0.0 -1.0
  outer loop
    vertex 1.5308084989341916e-16 2.5 0.0
    vertex 8.572527594031472e-16 14.0 0.0
    vertex 0.6470476127563024 2.4148145657226707 0.0
  endloop
endfacet
facet normal 0.0 0.0 -1.0
  outer loop
    vertex 0.6470476127563024 2.4148145657226707 0.0
    vertex 8.572527594031472e-16 14.0 0.0
    vertex 1.8273666910807238 13.880228059233346 0.0
  endloop
endfacet
facet normal 0.0 0.0 -1.0
  outer loop
    vertex 0.6470476127563024 2.4148145657226707 0.0
    vertex 1.8273666910807238 13.880228059233346 0.0
    vertex 1.2500000000000004 2.1650635094610964 0.0
  endloop
endfacet
facet normal 0.0 0.0 -1.0
  outer loop
    vertex 1.2500000000000004 2.1650635094610964 0.0
    vertex 1.8273666910807238 13.880228059233346 0.0
    vertex 1.767766952966369 1.767766952966369 0.0
  endloop
endfacet
facet normal 0.0 0.0 -1.0
  outer loop
    vertex 1.767766952966369 1.767766952966369 0.0
    vertex 1.8273666910807238 13.880228059233346 0.0
    vertex 2.165063509461097 1.2499999999999998 0.0
  endloop
endfacet
facet normal 0.0 0.0 -1.0
  outer loop
    vertex 2.165063509461097 1.2499999999999998 0.0
    vertex 1.8273666910807238 13.880228059233346 0.0
    vertex 3.6234666314352935 13.522961568046956 0.0
  endloop
endfacet
facet normal 0.0 0.0 -1.0
  outer loop
    vertex 2.165063509461097 1.2499999999999998 0.0
    vertex 3.6234666314352935 13.522961568046956 0.0
    vertex 2.4148145657226707 0.6470476127563018 0.0
  endloop
endfacet
facet normal 0.0 0.0 -1.0
  outer loop
    vertex 2.4148145657226707 0.6470476127563018 0.0
    vertex 3.6234666314352935 13.522961568046956 0.0
    vertex 2.5 0.0 0.0
  endloop
endfacet
facet normal 0.0 0.0 -1.0
  outer loop
    vertex 2.5 0.0 0.0
    vertex 3.6234666314352935 13.522961568046956 0.0
    vertex 3.623466631435284 -13.522961568046957 0.0
  endloop
endfacet
facet normal 0.0 0.0 -1.0
  outer loop
    vertex 3.623466631435284 -13.522961568046957 0.0
    vertex 3.6234666314352935 13.522961568046956 0.0
    vertex 5.357568053111248 -12.934313455158017 0.0
  endloop
endfacet
facet normal 0.0 0.0 -1.0
  outer loop
    vertex 5.357568053111248 -12.934313455158017 0.0
    vertex 3.6234666314352935 13.522961568046956 0.0
    vertex 5.357568053111257 12.934313455158016 0.0
  endloop
endfacet
facet normal 0.0 0.0 -1.0
  outer loop
    vertex 5.357568053111248 -12.934313455158017 0.0
    vertex 5.357568053111257 12.934313455158016 0.0
    vertex 6.99999999999999 -12.124355652982146 0.0
  endloop
endfacet
facet normal 0.0 0.0 -1.0
  outer loop
    vertex 6.99999999999999 -12.124355652982146 0.0
    vertex 5.357568053111257 12.934313455158016 0.0
    vertex 7.000000000000001 12.12435565298214 0.0
  endloop
endfacet
facet normal 0.0 0.0 -1.0
  outer loop
    vertex 6.99999999999999 -12.124355652982146 0.0
    vertex 7.000000000000001 12.12435565298214 0.0
    vertex 8.522660006122079 -11.1069467640773 0.0
  endloop
endfacet
facet normal 0.0 0.0 -1.0
  outer loop
    vertex 8.522660006122079 -11.1069467640773 0.0
    vertex 7.000000000000001 12.12435565298214 0.0
    vertex 8.52266000612209 11.106946764077291 0.0
  endloop
endfacet
facet normal 0.0 0.0 -1.0
  outer loop
    vertex 8.522660006122079 -11.1069467640773 0.0
    vertex 8.52266000612209 11.106946764077291 0.0
    vertex 9.899494936611664 -9.899494936611667 0.0
  endloop
endfacet
facet normal 0.0 0.0 -1.0
  outer loop
    vertex 9.899494936611664 -9.899494936611667 0.0
    vertex 8.52266000612209 11.106946764077291 0.0
    vertex 9.899494936611665 9.899494936611665 0.0
  endloop
endfacet
facet normal 0.0 0.0 -1.0
  outer loop
    vertex 9.899494936611664 -9.899494936611667 0.0
    vertex 9.899494936611665 9.899494936611665 0.0
    vertex 11.10694676407729 -8.522660006122093 0.0
  endloop
endfacet
facet normal 0.0 0.0 -1.0
  outer loop
    vertex 11.10694676407729 -8.522660006122093 0.0
    vertex 9.899494936611665 9.899494936611665 0.0
    vertex 11.106946764077293 8.522660006122086 0.0
  endloop
endfacet
facet normal 0.0 0.0 -1.0
  outer loop
    vertex 11.10694676407729 -8.522660006122093 0.0
    vertex 11.106946764077293 8.522660006122086 0.0
    vertex 12.124355652982137 -7.000000000000005 0.0
  endloop
endfacet
facet normal 0.0 0.0 -1.0
  outer loop
    vertex 12.124355652982137 -7.000000000000005 0.0
    vertex 11.106946764077293 8.522660006122086 0.0
    vertex 12.12435565298214 6.999999999999998 0.0
  endloop
endfacet
facet normal 0.0 0.0 -1.0
  outer loop
    vertex 12.124355652982137 -7.000000000000005 0.0
    vertex 12.12435565298214 6.999999999999998 0.0
    vertex 12.934313455158012 -5.357568053111265 0.0
  endloop
endfacet
facet normal 0.0 0.0 -1.0
  outer loop
    vertex 12.934313455158012 -5.357568053111265 0.0
    vertex 12.12435565298214 6.999999999999998 0.0
    vertex 12.934313455158016 5.357568053111257 0.0
  endloop
endfacet
facet normal 0.0 0.0 -1.0
  outer loop
    vertex 12.934313455158012 -5.357568053111265 0.0
    vertex 12.934313455158016 5.357568053111257 0.0
    vertex 13.522961568046952 -3.623466631435302 0.0
  endloop
endfacet
facet normal 0.0 0.0 -1.0
  outer loop
    vertex 13.522961568046952 -3.623466631435302 0.0
    vertex 12.934313455158016 5.357568053111257 0.0
    vertex 13.522961568046956 3.6234666314352904 0.0
  endloop
endfacet
facet normal 0.0 0.0 -1.0
  outer loop
    vertex 13.522961568046952 -3.623466631435302 0.0
    vertex 13.522961568046956 3.6234666314352904 0.0
    vertex 13.880228059233344 -1.8273666910807358 0.0
  endloop
endfacet
facet normal 0.0 0.0 -1.0
  outer loop
    vertex 13.880228059233344 -1.8273666910807358 0.0
    vertex 13.522961568046956 3.6234666314352904 0.0
    vertex 13.880228059233346 1.827366691080722 0.0
  endloop
endfacet
facet normal 0.0 0.0 -1.0
  outer loop
    vertex 13.880228059233344 -1.8273666910807358 0.0
    vertex 13.880228059233346 1.827366691080722 0.0
    vertex 14.0 0.0 0.0
  endloop
endfacet
facet normal 0.0 0.0 -1.0
  outer loop
    vertex -13.880228059233346 1.8273666910807278 0.0
    vertex -13.880228059233346 -1.8273666910807187 0.0
    vertex -14.0 1.7145055188062944e-15 0.0
  endloop
endfacet
facet normal 0.0 0.0 -1.0
  outer loop
    vertex -13.880228059233346 -1.8273666910807187 0.0
    vertex -13.880228059233346 1.8273666910807278 0.0
    vertex -13.522961568046956 3.623466631435294 0.0
  endloop
endfacet
facet normal 0.0 0.0 -1.0
  outer loop
    vertex -13.880228059233346 -1.8273666910807187 0.0
    vertex -13.522961568046956 3.623466631435294 0.0
    vertex -13.522961568046957 -3.623466631435285 0.0
  endloop
endfacet
facet normal 0.0 0.0 -1.0
  outer loop
    vertex -13.522961568046957 -3.623466631435285 0.0
    vertex -13.522961568046956 3.623466631435294 0.0
    vertex -12.934313455158017 -5.357568053111249 0.0
  endloop
endfacet
facet normal 0.0 0.0 -1.0
  outer loop
    vertex -12.934313455158017 -5.357568053111249 0.0
    vertex -13.522961568046956 3.623466631435294 0.0
    vertex -12.934313455158016 5.357568053111258 0.0
  endloop
endfacet
facet normal 0.0 0.0 -1.0
  outer loop
    vertex -12.934313455158017 -5.357568053111249 0.0
    vertex -12.934313455158016 5.357568053111258 0.0
    vertex -12.124355652982143 -6.999999999999996 0.0
  endloop
endfacet
facet normal 0.0 0.0 -1.0
  outer loop
    vertex -12.124355652982143 -6.999999999999996 0.0
    vertex -12.934313455158016 5.357568053111258 0.0
    vertex -12.124355652982139 7.000000000000004 0.0
  endloop
endfacet
facet normal 0.0 0.0 -1.0
  outer loop
    vertex -12.124355652982143 -6.999999999999996 0.0
    vertex -12.124355652982139 7.000000000000004 0.0
    vertex -11.106946764077296 -8.522660006122084 0.0
  endloop
endfacet
facet normal 0.0 0.0 -1.0
  outer loop
    vertex -11.106946764077296 -8.522660006122084 0.0
    vertex -12.124355652982139 7.000000000000004 0.0
    vertex -11.106946764077291 8.522660006122093 0.0
  endloop
endfacet
facet normal 0.0 0.0 -1.0
  outer loop
    vertex -11.106946764077296 -8.522660006122084 0.0
    vertex -11.106946764077291 8.522660006122093 0.0
    vertex -9.89949493661167 -9.899494936611658 0.0
  endloop
endfacet
facet normal 0.0 0.0 -1.0
  outer loop
    vertex -9.89949493661167 -9.899494936611658 0.0
    vertex -11.106946764077291 8.522660006122093 0.0
    vertex -9.899494936611665 9.899494936611665 0.0
  endloop
endfacet
facet normal 0.0 0.0 -1.0
  outer loop
    vertex -9.89949493661167 -9.899494936611658 0.0
    vertex -9.899494936611665 9.899494936611665 0.0
    vertex -8.522660006122093 -11.10694676407729 0.0
  endloop
endfacet
facet normal 0.0 0.0 -1.0
  outer loop
    vertex -8.522660006122093 -11.10694676407729 0.0
    vertex -9.899494936611665 9.899494936611665 0.0
    vertex -8.522660006122084 11.106946764077296 0.0
  endloop
endfacet
facet normal 0.0 0.0 -1.0
  outer loop
    vertex -8.522660006122093 -11.10694676407729 0.0
    vertex -8.522660006122084 11.106946764077296 0.0
    vertex -7.000000000000005 -12.124355652982137 0.0
  endloop
endfacet
facet normal 0.0 0.0 -1.0
  outer loop
    vertex -7.000000000000005 -12.124355652982137 0.0
    vertex -8.522660006122084 11.106946764077296 0.0
    vertex -6.999999999999997 12.12435565298214 0.0
  endloop
endfacet
facet normal 0.0 0.0 -1.0
  outer loop
    vertex -7.000000000000005 -12.124355652982137 0.0
    vertex -6.999999999999997 12.12435565298214 0.0
    vertex -5.357568053111264 -12.934313455158012 0.0
  endloop
endfacet
facet normal 0.0 0.0 -1.0
  outer loop
    vertex -5.357568053111264 -12.934313455158012 0.0
    vertex -6.999999999999997 12.12435565298214 0.0
    vertex -5.357568053111253 12.934313455158016 0.0
  endloop
endfacet
facet normal 0.0 0.0 -1.0
  outer loop
    vertex -5.357568053111264 -12.934313455158012 0.0
    vertex -5.357568053111253 12.934313455158016 0.0
    vertex -3.623466631435301 -13.522961568046952 0.0
  endloop
endfacet
facet normal 0.0 0.0 -1.0
  outer loop
    vertex -3.623466631435301 -13.522961568046952 0.0
    vertex -5.357568053111253 12.934313455158016 0.0
    vertex -3.6234666314352886 13.522961568046956 0.0
  endloop
endfacet
facet normal 0.0 0.0 -1.0
  outer loop
    vertex -3.623466631435301 -13.522961568046952 0.0
    vertex -3.6234666314352886 13.522961568046956 0.0
    vertex -1.827366691080735 -13.880228059233344 0.0
  endloop
endfacet
facet normal 0.0 0.0 -1.0
  outer loop
    vertex -1.827366691080735 -13.880228059233344 0.0
    vertex -3.6234666314352886 13.522961568046956 0.0
    vertex -2.5 3.061616997868383e-16 0.0
  endloop
endfacet
facet normal 0.0 0.0 -1.0
  outer loop
    vertex -1.827366691080735 -13.880228059233344 0.0
    vertex -2.5 3.061616997868383e-16 0.0
    vertex -2.414814565722671 -0.6470476127563008 0.0
  endloop
endfacet
facet normal 0.0 0.0 -1.0
  outer loop
    vertex -1.827366691080735 -13.880228059233344 0.0
    vertex -2.414814565722671 -0.6470476127563008 0.0
    vertex -2.1650635094610973 -1.2499999999999993 0.0
  endloop
endfacet
facet normal 0.0 0.0 -1.0
  outer loop
    vertex -1.827366691080735 -13.880228059233344 0.0
    vertex -2.1650635094610973 -1.2499999999999993 0.0
    vertex -1.7677669529663698 -1.767766952966368 0.0
  endloop
endfacet
facet normal 0.0 0.0 -1.0
  outer loop
    vertex -1.827366691080735 -13.880228059233344 0.0
    vertex -1.7677669529663698 -1.767766952966368 0.0
    vertex -2.5717582782094417e-15 -14.0 0.0
  endloop
endfacet
facet normal 0.0 0.0 -1.0
  outer loop
    vertex -2.5717582782094417e-15 -14.0 0.0
    vertex -1.7677669529663698 -1.767766952966368 0.0
    vertex -1.250000000000001 -2.165063509461096 0.0
  endloop
endfacet
facet normal 0.0 0.0 -1.0
  outer loop
    vertex -2.5717582782094417e-15 -14.0 0.0
    vertex -1.250000000000001 -2.165063509461096 0.0
    vertex -0.6470476127563038 -2.4148145657226703 0.0
  endloop
endfacet
facet normal 0.0 0.0 -1.0
  outer loop
    vertex -2.5717582782094417e-15 -14.0 0.0
    vertex -0.6470476127563038 -2.4148145657226703 0.0
    vertex -4.592425496802574e-16 -2.5 0.0
  endloop
endfacet
facet normal 0.0 0.0 -1.0
  outer loop
    vertex -2.5717582782094417e-15 -14.0 0.0
    vertex -4.592425496802574e-16 -2.5 0.0
    vertex 1.8273666910807178 -13.880228059233346 0.0
  endloop
endfacet
facet normal 0.0 0.0 -1.0
  outer loop
    vertex 1.8273666910807178 -13.880228059233346 0.0
    vertex -4.592425496802574e-16 -2.5 0.0
    vertex 0.6470476127563007 -2.414814565722671 0.0
  endloop
endfacet
facet normal 0.0 0.0 -1.0
  outer loop
    vertex 1.8273666910807178 -13.880228059233346 0.0
    vertex 0.6470476127563007 -2.414814565722671 0.0
    vertex 1.2499999999999982 -2.1650635094610977 0.0
  endloop
endfacet
facet normal 0.0 0.0 -1.0
  outer loop
    vertex 1.8273666910807178 -13.880228059233346 0.0
    vertex 1.2499999999999982 -2.1650635094610977 0.0
    vertex 1.7677669529663682 -1.7677669529663693 0.0
  endloop
endfacet
facet normal 0.0 0.0 -1.0
  outer loop
    vertex 1.8273666910807178 -13.880228059233346 0.0
    vertex 1.7677669529663682 -1.7677669529663693 0.0
    vertex 2.165063509461096 -1.250000000000001 0.0
  endloop
endfacet
facet normal 0.0 0.0 -1.0
  outer loop
    vertex 1.8273666910807178 -13.880228059233346 0.0
    vertex 2.165063509461096 -1.250000000000001 0.0
    vertex 3.623466631435284 -13.522961568046957 0.0
  endloop
endfacet
facet normal 0.0 0.0 -1.0
  outer loop
    vertex 3.623466631435284 -13.522961568046957 0.0
    vertex 2.165063509461096 -1.250000000000001 0.0
    vertex 2.4148145657226703 -0.647047612756304 0.0
  endloop
endfacet
facet normal 0.0 0.0 -1.0
  outer loop
    vertex 3.623466631435284 -13.522961568046957 0.0
    vertex 2.4148145657226703 -0.647047612756304 0.0
    vertex 2.5 0.0 0.0
  endloop
endfacet
facet normal -3.6177150212934156e-31 -1.8088575106467072e-31 1.0
  outer loop
    vertex -13.880228059233346 -1.8273666910807187 16.499999999999996
    vertex -13.880228059233346 1.8273666910807278 16.499999999999996
    vertex -14.0 1.7145055188062944e-15 16.499999999999996
  endloop
endfacet
facet normal -3.6177150212934156e-31 -1.8088575106467072e-31 1.0
  outer loop
    vertex -13.880228059233346 1.8273666910807278 16.499999999999996
    vertex -13.880228059233346 -1.8273666910807187 16.499999999999996
    vertex -13.522961568046957 -3.623466631435285 16.499999999999996
  endloop
endfacet
facet normal -3.6177150212934156e-31 -1.8088575106467072e-31 1.0
  outer loop
    vertex -13.880228059233346 1.8273666910807278 16.499999999999996
    vertex -13.522961568046957 -3.623466631435285 16.499999999999996
    vertex -13.522961568046956 3.623466631435294 16.499999999999996
  endloop
endfacet
facet normal -3.6177150212934156e-31 -1.8088575106467072e-31 1.0
  outer loop
    vertex -13.522961568046956 3.623466631435294 16.499999999999996
    vertex -13.522961568046957 -3.623466631435285 16.499999999999996
    vertex -12.934313455158017 -5.357568053111249 16.499999999999996
  endloop
endfacet
facet normal -3.6177150212934156e-31 -1.8088575106467072e-31 1.0
  outer loop
    vertex -13.522961568046956 3.623466631435294 16.499999999999996
    vertex -12.934313455158017 -5.357568053111249 16.499999999999996
    vertex -12.934313455158016 5.357568053111258 16.499999999999996
  endloop
endfacet
facet normal -3.6177150212934156e-31 -1.8088575106467072e-31 1.0
  outer loop
    vertex -12.934313455158016 5.357568053111258 16.499999999999996
    vertex -12.934313455158017 -5.357568053111249 16.499999999999996
    vertex -12.124355652982143 -6.999999999999996 16.499999999999996
  endloop
endfacet
facet normal -3.6177150212934156e-31 -1.8088575106467072e-31 1.0
  outer loop
    vertex -12.934313455158016 5.357568053111258 16.499999999999996
    vertex -12.124355652982143 -6.999999999999996 16.499999999999996
    vertex -12.124355652982139 7.000000000000004 16.499999999999996
  endloop
endfacet
facet normal -3.6177150212934156e-31 -1.8088575106467072e-31 1.0
  outer loop
    vertex -12.124355652982139 7.000000000000004 16.499999999999996
    vertex -12.124355652982143 -6.999999999999996 16.499999999999996
    vertex -11.106946764077296 -8.522660006122084 16.499999999999996
  endloop
endfacet
facet normal -3.6177150212934156e-31 -1.8088575106467072e-31 1.0
  outer loop
    vertex -12.124355652982139 7.000000000000004 16.499999999999996
    vertex -11.106946764077296 -8.522660006122084 16.499999999999996
    vertex -11.106946764077291 8.522660006122093 16.499999999999996
  endloop
endfacet
facet normal -3.6177150212934156e-31 -1.8088575106467072e-31 1.0
  outer loop
    vertex -11.106946764077291 8.522660006122093 16.499999999999996
    vertex -11.106946764077296 -8.522660006122084 16.499999999999996
    vertex -9.89949493661167 -9.899494936611658 16.499999999999996
  endloop
endfacet
facet normal -3.6177150212934156e-31 -1.8088575106467072e-31 1.0
  outer loop
    vertex -11.106946764077291 8.522660006122093 16.499999999999996
    vertex -9.89949493661167 -9.899494936611658 16.499999999999996
    vertex -9.899494936611665 9.899494936611665 16.499999999999996
  endloop
endfacet
facet normal -3.6177150212934156e-31 -1.8088575106467072e-31 1.0
  outer loop
    vertex -9.899494936611665 9.899494936611665 16.499999999999996
    vertex -9.89949493661167 -9.899494936611658 16.499999999999996
    vertex -8.522660006122093 -11.10694676407729 16.499999999999996
  endloop
endfacet
facet normal -3.6177150212934156e-31 -1.8088575106467072e-31 1.0
  outer loop
    vertex -9.899494936611665 9.899494936611665 16.499999999999996
    vertex -8.522660006122093 -11.10694676407729 16.499999999999996
    vertex -8.522660006122084 11.106946764077296 16.499999999999996
  endloop
endfacet
facet normal -3.6177150212934156e-31 -1.8088575106467072e-31 1.0
  outer loop
    vertex -8.522660006122084 11.106946764077296 16.499999999999996
    vertex -8.522660006122093 -11.10694676407729 16.499999999999996
    vertex -7.000000000000005 -12.124355652982137 16.499999999999996
  endloop
endfacet
facet normal -3.6177150212934156e-31 -1.8088575106467072e-31 1.0
  outer loop
    vertex -8.522660006122084 11.106946764077296 16.499999999999996
    vertex -7.000000000000005 -12.124355652982137 16.499999999999996
    vertex -6.999999999999997 12.12435565298214 16.499999999999996
  endloop
endfacet
facet normal -3.6177150212934156e-31 -1.8088575106467072e-31 1.0
  outer loop
    vertex -6.999999999999997 12.12435565298214 16.499999999999996
    vertex -7.000000000000005 -12.124355652982137 16.499999999999996
    vertex -5.357568053111264 -12.934313455158012 16.499999999999996
  endloop
endfacet
facet normal -3.6177150212934156e-31 -1.8088575106467072e-31 1.0
  outer loop
    vertex -6.999999999999997 12.12435565298214 16.499999999999996
    vertex -5.357568053111264 -12.934313455158012 16.499999999999996
    vertex -5.357568053111253 12.934313455158016 16.499999999999996
  endloop
endfacet
facet normal -3.6177150212934156e-31 -1.8088575106467072e-31 1.0
  outer loop
    vertex -5.357568053111253 12.934313455158016 16.499999999999996
    vertex -5.357568053111264 -12.934313455158012 16.499999999999996
    vertex -3.623466631435301 -13.522961568046952 16.499999999999996
  endloop
endfacet
facet normal -3.6177150212934156e-31 -1.8088575106467072e-31 1.0
  outer loop
    vertex -5.357568053111253 12.934313455158016 16.499999999999996
    vertex -3.623466631435301 -13.522961568046952 16.499999999999996
    vertex -3.6234666314352886 13.522961568046956 16.499999999999996
  endloop
endfacet
facet normal -3.6177150212934156e-31 -1.8088575106467072e-31 1.0
  outer loop
    vertex -3.6234666314352886 13.522961568046956 16.499999999999996
    vertex -3.623466631435301 -13.522961568046952 16.499999999999996
    vertex -1.827366691080735 -13.880228059233344 16.499999999999996
  endloop
endfacet
facet normal -3.6177150212934156e-31 -1.8088575106467072e-31 1.0
  outer loop
    vertex -3.6234666314352886 13.522961568046956 16.499999999999996
    vertex -1.827366691080735 -13.880228059233344 16.499999999999996
    vertex -2.5 3.061616997868383e-16 16.499999999999996
  endloop
endfacet
facet normal -3.6177150212934156e-31 -1.8088575106467072e-31 1.0
  outer loop
    vertex -2.5 3.061616997868383e-16 16.499999999999996
    vertex -1.827366691080735 -13.880228059233344 16.499999999999996
    vertex -2.414814565722671 -0.6470476127563008 16.499999999999996
  endloop
endfacet
facet normal -3.6177150212934156e-31 -1.8088575106467072e-31 1.0
  outer loop
    vertex -2.414814565722671 -0.6470476127563008 16.499999999999996
    vertex -1.827366691080735 -13.880228059233344 16.499999999999996
    vertex -2.1650635094610973 -1.2499999999999993 16.499999999999996
  endloop
endfacet
facet normal -3.6177150212934156e-31 -1.8088575106467072e-31 1.0
  outer loop
    vertex -2.1650635094610973 -1.2499999999999993 16.499999999999996
    vertex -1.827366691080735 -13.880228059233344 16.499999999999996
    vertex -1.7677669529663698 -1.767766952966368 16.499999999999996
  endloop
endfacet
facet normal -3.6177150212934156e-31 -1.8088575106467072e-31 1.0
  outer loop
    vertex -1.7677669529663698 -1.767766952966368 16.499999999999996
    vertex -1.827366691080735 -13.880228059233344 16.499999999999996
    vertex -2.5717582782094417e-15 -14.0 16.499999999999996
  endloop
endfacet
facet normal -3.6177150212934156e-31 -1.8088575106467072e-31 1.0
  outer loop
    vertex -1.7677669529663698 -1.767766952966368 16.499999999999996
    vertex -2.5717582782094417e-15 -14.0 16.499999999999996
    vertex -1.250000000000001 -2.165063509461096 16.499999999999996
  endloop
endfacet
facet normal -3.6177150212934156e-31 -1.8088575106467072e-31 1.0
  outer loop
    vertex -1.250000000000001 -2.165063509461096 16.499999999999996
    vertex -2.5717582782094417e-15 -14.0 16.499999999999996
    vertex -0.6470476127563038 -2.4148145657226703 16.499999999999996
  endloop
endfacet
facet normal -3.6177150212934156e-31 -1.8088575106467072e-31 1.0
  outer loop
    vertex -0.6470476127563038 -2.4148145657226703 16.499999999999996
    vertex -2.5717582782094417e-15 -14.0 16.499999999999996
    vertex -4.592425496802574e-16 -2.5 16.499999999999996
  endloop
endfacet
facet normal -3.6177150212934156e-31 -1.8088575106467072e-31 1.0
  outer loop
    vertex -4.592425496802574e-16 -2.5 16.499999999999996
    vertex -2.5717582782094417e-15 -14.0 16.499999999999996
    vertex 1.8273666910807178 -13.880228059233346 16.499999999999996
  endloop
endfacet
facet normal -3.6177150212934156e-31 -1.8088575106467072e-31 1.0
  outer loop
    vertex -4.592425496802574e-16 -2.5 16.499999999999996
    vertex 1.8273666910807178 -13.880228059233346 16.499999999999996
    vertex 0.6470476127563007 -2.414814565722671 16.499999999999996
  endloop
endfacet
facet normal -3.6177150212934156e-31 -1.8088575106467072e-31 1.0
  outer loop
    vertex 0.6470476127563007 -2.414814565722671 16.499999999999996
    vertex 1.8273666910807178 -13.880228059233346 16.499999999999996
    vertex 1.2499999999999982 -2.1650635094610977 16.499999999999996
  endloop
endfacet
facet normal -3.6177150212934156e-31 -1.8088575106467072e-31 1.0
  outer loop
    vertex 1.2499999999999982 -2.1650635094610977 16.499999999999996
    vertex 1.8273666910807178 -13.880228059233346 16.499999999999996
    vertex 1.7677669529663682 -1.7677669529663693 16.499999999999996
  endloop
endfacet
facet normal -3.6177150212934156e-31 -1.8088575106467072e-31 1.0
  outer loop
    vertex 1.7677669529663682 -1.7677669529663693 16.499999999999996
    vertex 1.8273666910807178 -13.880228059233346 16.499999999999996
    vertex 2.165063509461096 -1.250000000000001 16.499999999999996
  endloop
endfacet
facet normal -3.6177150212934156e-31 -1.8088575106467072e-31 1.0
  outer loop
    vertex 2.165063509461096 -1.250000000000001 16.499999999999996
    vertex 1.8273666910807178 -13.880228059233346 16.499999999999996
    vertex 3.623466631435284 -13.522961568046957 16.499999999999996
  endloop
endfacet
facet normal -3.6177150212934156e-31 -1.8088575106467072e-31 1.0
  outer loop
    vertex 2.165063509461096 -1.250000000000001 16.499999999999996
    vertex 3.623466631435284 -13.522961568046957 16.499999999999996
    vertex 2.4148145657226703 -0.647047612756304 16.499999999999996
  endloop
endfacet
facet normal -3.6177150212934156e-31 -1.8088575106467072e-31 1.0
  outer loop
    vertex 2.4148145657226703 -0.647047612756304 16.499999999999996
    vertex 3.623466631435284 -13.522961568046957 16.499999999999996
    vertex 2.5 0.0 16.499999999999996
  endloop
endfacet
facet normal -3.6177150212934156e-31 -1.8088575106467072e-31 1.0
  outer loop
    vertex -2.5 3.061616997868383e-16 16.499999999999996
    vertex -1.8273666910807194 13.880228059233346 16.499999999999996
    vertex -3.6234666314352886 13.522961568046956 16.499999999999996
  endloop
endfacet
facet normal -3.6177150212934156e-31 -1.8088575106467072e-31 1.0
  outer loop
    vertex -1.8273666910807194 13.880228059233346 16.499999999999996
    vertex -2.5 3.061616997868383e-16 16.499999999999996
    vertex -2.4148145657226707 0.6470476127563025 16.499999999999996
  endloop
endfacet
facet normal -3.6177150212934156e-31 -1.8088575106467072e-31 1.0
  outer loop
    vertex -1.8273666910807194 13.880228059233346 16.499999999999996
    vertex -2.4148145657226707 0.6470476127563025 16.499999999999996
    vertex -2.1650635094610964 1.2500000000000009 16.499999999999996
  endloop
endfacet
facet normal -3.6177150212934156e-31 -1.8088575106467072e-31 1.0
  outer loop
    vertex -1.8273666910807194 13.880228059233346 16.499999999999996
    vertex -2.1650635094610964 1.2500000000000009 16.499999999999996
    vertex -1.7677669529663687 1.767766952966369 16.499999999999996
  endloop
endfacet
facet normal -3.6177150212934156e-31 -1.8088575106467072e-31 1.0
  outer loop
    vertex -1.8273666910807194 13.880228059233346 16.499999999999996
    vertex -1.7677669529663687 1.767766952966369 16.499999999999996
    vertex 8.572527594031472e-16 14.0 16.499999999999996
  endloop
endfacet
facet normal -3.6177150212934156e-31 -1.8088575106467072e-31 1.0
  outer loop
    vertex 8.572527594031472e-16 14.0 16.499999999999996
    vertex -1.7677669529663687 1.767766952966369 16.499999999999996
    vertex -1.2499999999999996 2.165063509461097 16.499999999999996
  endloop
endfacet
facet normal -3.6177150212934156e-31 -1.8088575106467072e-31 1.0
  outer loop
    vertex 8.572527594031472e-16 14.0 16.499999999999996
    vertex -1.2499999999999996 2.165063509461097 16.499999999999996
    vertex -0.6470476127563015 2.4148145657226707 16.499999999999996
  endloop
endfacet
facet normal -3.6177150212934156e-31 -1.8088575106467072e-31 1.0
  outer loop
    vertex 8.572527594031472e-16 14.0 16.499999999999996
    vertex -0.6470476127563015 2.4148145657226707 16.499999999999996
    vertex 1.5308084989341916e-16 2.5 16.499999999999996
  endloop
endfacet
facet normal -3.6177150212934156e-31 -1.8088575106467072e-31 1.0
  outer loop
    vertex 8.572527594031472e-16 14.0 16.499999999999996
    vertex 1.5308084989341916e-16 2.5 16.499999999999996
    vertex 0.6470476127563024 2.4148145657226707 16.499999999999996
  endloop
endfacet
facet normal -3.6177150212934156e-31 -1.8088575106467072e-31 1.0
  outer loop
    vertex 8.572527594031472e-16 14.0 16.499999999999996
    vertex 0.6470476127563024 2.4148145657226707 16.499999999999996
    vertex 1.8273666910807238 13.880228059233346 16.499999999999996
  endloop
endfacet
facet normal -3.6177150212934156e-31 -1.8088575106467072e-31 1.0
  outer loop
    vertex 1.8273666910807238 13.880228059233346 16.499999999999996
    vertex 0.6470476127563024 2.4148145657226707 16.499999999999996
    vertex 1.2500000000000004 2.1650635094610964 16.499999999999996
  endloop
endfacet
facet normal -3.6177150212934156e-31 -1.8088575106467072e-31 1.0
  outer loop
    vertex 1.8273666910807238 13.880228059233346 16.499999999999996
    vertex 1.2500000000000004 2.1650635094610964 16.499999999999996
    vertex 1.767766952966369 1.767766952966369 16.499999999999996
  endloop
endfacet
facet normal -3.6177150212934156e-31 -1.8088575106467072e-31 1.0
  outer loop
    vertex 1.8273666910807238 13.880228059233346 16.499999999999996
    vertex 1.767766952966369 1.767766952966369 16.499999999999996
    vertex 2.165063509461097 1.2499999999999998 16.499999999999996
  endloop
endfacet
facet normal -3.6177150212934156e-31 -1.8088575106467072e-31 1.0
  outer loop
    vertex 1.8273666910807238 13.880228059233346 16.499999999999996
    vertex 2.165063509461097 1.2499999999999998 16.499999999999996
    vertex 3.6234666314352935 13.522961568046956 16.499999999999996
  endloop
endfacet
facet normal -3.6177150212934156e-31 -1.8088575106467072e-31 1.0
  outer loop
    vertex 3.6234666314352935 13.522961568046956 16.499999999999996
    vertex 2.165063509461097 1.2499999999999998 16.499999999999996
    vertex 2.4148145657226707 0.6470476127563018 16.499999999999996
  endloop
endfacet
facet normal -3.6177150212934156e-31 -1.8088575106467072e-31 1.0
  outer loop
    vertex 3.6234666314352935 13.522961568046956 16.499999999999996
    vertex 2.4148145657226707 0.6470476127563018 16.499999999999996
    vertex 2.5 0.0 16.499999999999996
  endloop
endfacet
facet normal -3.6177150212934156e-31 -1.8088575106467072e-31 1.0
  outer loop
    vertex 3.6234666314352935 13.522961568046956 16.499999999999996
    vertex 2.5 0.0 16.499999999999996
    vertex 3.623466631435284 -13.522961568046957 16.499999999999996
  endloop
endfacet
facet normal -3.6177150212934156e-31 -1.8088575106467072e-31 1.0
  outer loop
    vertex 3.6234666314352935 13.522961568046956 16.499999999999996
    vertex 3.623466631435284 -13.522961568046957 16.499999999999996
    vertex 5.357568053111248 -12.934313455158017 16.499999999999996
  endloop
endfacet
facet normal -3.6177150212934156e-31 -1.8088575106467072e-31 1.0
  outer loop
    vertex 3.6234666314352935 13.522961568046956 16.499999999999996
    vertex 5.357568053111248 -12.934313455158017 16.499999999999996
    vertex 5.357568053111257 12.934313455158016 16.499999999999996
  endloop
endfacet
facet normal -3.6177150212934156e-31 -1.8088575106467072e-31 1.0
  outer loop
    vertex 5.357568053111257 12.934313455158016 16.499999999999996
    vertex 5.357568053111248 -12.934313455158017 16.499999999999996
    vertex 6.99999999999999 -12.124355652982146 16.499999999999996
  endloop
endfacet
facet normal -3.6177150212934156e-31 -1.8088575106467072e-31 1.0
  outer loop
    vertex 5.357568053111257 12.934313455158016 16.499999999999996
    vertex 6.99999999999999 -12.124355652982146 16.499999999999996
    vertex 7.000000000000001 12.12435565298214 16.499999999999996
  endloop
endfacet
facet normal -3.6177150212934156e-31 -1.8088575106467072e-31 1.0
  outer loop
    vertex 7.000000000000001 12.12435565298214 16.499999999999996
    vertex 6.99999999999999 -12.124355652982146 16.499999999999996
    vertex 8.522660006122079 -11.1069467640773 16.499999999999996
  endloop
endfacet
facet normal -3.6177150212934156e-31 -1.8088575106467072e-31 1.0
  outer loop
    vertex 7.000000000000001 12.12435565298214 16.499999999999996
    vertex 8.522660006122079 -11.1069467640773 16.499999999999996
    vertex 8.52266000612209 11.106946764077291 16.499999999999996
  endloop
endfacet
facet normal -3.6177150212934156e-31 -1.8088575106467072e-31 1.0
  outer loop
    vertex 8.52266000612209 11.106946764077291 16.499999999999996
    vertex 8.522660006122079 -11.1069467640773 16.499999999999996
    vertex 9.899494936611664 -9.899494936611667 16.499999999999996
  endloop
endfacet
facet normal -3.6177150212934156e-31 -1.8088575106467072e-31 1.0
  outer loop
    vertex 8.52266000612209 11.106946764077291 16.499999999999996
    vertex 9.899494936611664 -9.899494936611667 16.499999999999996
    vertex 9.899494936611665 9.899494936611665 16.499999999999996
  endloop
endfacet
facet normal -3.6177150212934156e-31 -1.8088575106467072e-31 1.0
  outer loop
    vertex 9.899494936611665 9.899494936611665 16.499999999999996
    vertex 9.899494936611664 -9.899494936611667 16.499999999999996
    vertex 11.10694676407729 -8.522660006122093 16.499999999999996
  endloop
endfacet
facet normal -3.6177150212934156e-31 -1.8088575106467072e-31 1.0
  outer loop
    vertex 9.899494936611665 9.899494936611665 16.499999999999996
    vertex 11.10694676407729 -8.522660006122093 16.499999999999996
    vertex 11.106946764077293 8.522660006122086 16.499999999999996
  endloop
endfacet
facet normal -3.6177150212934156e-31 -1.8088575106467072e-31 1.0
  outer loop
    vertex 11.106946764077293 8.522660006122086 16.499999999999996
    vertex 11.10694676407729 -8.522660006122093 16.499999999999996
    vertex 12.124355652982137 -7.000000000000005 16.499999999999996
  endloop
endfacet
facet normal -3.6177150212934156e-31 -1.8088575106467072e-31 1.0
  outer loop
    vertex 11.106946764077293 8.522660006122086 16.499999999999996
    vertex 12.124355652982137 -7.000000000000005 16.499999999999996
    vertex 12.12435565298214 6.999999999999998 16.499999999999996
  endloop
endfacet
facet normal -3.6177150212934156e-31 -1.8088575106467072e-31 1.0
  outer loop
    vertex 12.12435565298214 6.999999999999998 16.499999999999996
    vertex 12.124355652982137 -7.000000000000005 16.499999999999996
    vertex 12.934313455158012 -5.357568053111265 16.499999999999996
  endloop
endfacet
facet normal -3.6177150212934156e-31 -1.8088575106467072e-31 1.0
  outer loop
    vertex 12.12435565298214 6.999999999999998 16.499999999999996
    vertex 12.934313455158012 -5.357568053111265 16.499999999999996
    vertex 12.934313455158016 5.357568053111257 16.499999999999996
  endloop
endfacet
facet normal -3.6177150212934156e-31 -1.8088575106467072e-31 1.0
  outer loop
    vertex 12.934313455158016 5.357568053111257 16.499999999999996
    vertex 12.934313455158012 -5.357568053111265 16.499999999999996
    vertex 13.522961568046952 -3.623466631435302 16.499999999999996
  endloop
endfacet
facet normal -3.6177150212934156e-31 -1.8088575106467072e-31 1.0
  outer loop
    vertex 12.934313455158016 5.357568053111257 16.499999999999996
    vertex 13.522961568046952 -3.623466631435302 16.499999999999996
    vertex 13.522961568046956 3.6234666314352904 16.499999999999996
  endloop
endfacet
facet normal -3.6177150212934156e-31 -1.8088575106467072e-31 1.0
  outer loop
    vertex 13.522961568046956 3.6234666314352904 16.499999999999996
    vertex 13.522961568046952 -3.623466631435302 16.499999999999996
    vertex 13.880228059233344 -1.8273666910807358 16.499999999999996
  endloop
endfacet
facet normal -3.6177150212934156e-31 -1.8088575106467072e-31 1.0
  outer loop
    vertex 13.522961568046956 3.6234666314352904 16.499999999999996
    vertex 13.880228059233344 -1.8273666910807358 16.499999999999996
    vertex 13.880228059233346 1.827366691080722 16.499999999999996
  endloop
endfacet
facet normal -3.6177150212934156e-31 -1.8088575106467072e-31 1.0
  outer loop
    vertex 13.880228059233346 1.827366691080722 16.499999999999996
    vertex 13.880228059233344 -1.8273666910807358 16.499999999999996
    vertex 14.0 0.0 16.499999999999996
  endloop
endfacet
facet normal 0.7518398074789782 0.6593458151000682 0.0
  outer loop
    vertex 9.899494936611665 9.899494936611665 0.0
    vertex 11.106946764077293 8.522660006122086 16.499999999999996
    vertex 11.106946764077293 8.522660006122086 0.0
  endloop
endfacet
facet normal 0.7518398074789782 0.6593458151000682 0.0
  outer loop
    vertex 11.106946764077293 8.522660006122086 16.499999999999996
    vertex 9.899494936611665 9.899494936611665 0.0
    vertex 9.899494936611665 9.899494936611665 16.499999999999996
  endloop
endfacet
facet normal 0.8314696123025452 0.5555702330196022 0.0
  outer loop
    vertex 11.106946764077293 8.522660006122086 0.0
    vertex 12.12435565298214 6.999999999999998 16.499999999999996
    vertex 12.12435565298214 6.999999999999998 0.0
  endloop
endfacet
facet normal 0.8314696123025452 0.5555702330196022 0.0
  outer loop
    vertex 12.12435565298214 6.999999999999998 16.499999999999996
    vertex 11.106946764077293 8.522660006122086 0.0
    vertex 11.106946764077293 8.522660006122086 16.499999999999996
  endloop
endfacet
facet normal 0.8968727415326881 0.44228869021900175 0.0
  outer loop
    vertex 12.12435565298214 6.999999999999998 0.0
    vertex 12.934313455158016 5.357568053111257 16.499999999999996
    vertex 12.934313455158016 5.357568053111257 0.0
  endloop
endfacet
facet normal 0.8968727415326881 0.44228869021900175 0.0
  outer loop
    vertex 12.934313455158016 5.357568053111257 16.499999999999996
    vertex 12.12435565298214 6.999999999999998 0.0
    vertex 12.12435565298214 6.999999999999998 16.499999999999996
  endloop
endfacet
facet normal 0.946930129495106 0.3214394653031609 0.0
  outer loop
    vertex 12.934313455158016 5.357568053111257 0.0
    vertex 13.522961568046956 3.6234666314352904 16.499999999999996
    vertex 13.522961568046956 3.6234666314352904 0.0
  endloop
endfacet
facet normal 0.946930129495106 0.3214394653031609 0.0
  outer loop
    vertex 13.522961568046956 3.6234666314352904 16.499999999999996
    vertex 12.934313455158016 5.357568053111257 0.0
    vertex 12.934313455158016 5.357568053111257 16.499999999999996
  endloop
endfacet
facet normal 0.9807852804032304 0.1950903220161291 0.0
  outer loop
    vertex 13.522961568046956 3.6234666314352904 0.0
    vertex 13.880228059233346 1.827366691080722 16.499999999999996
    vertex 13.880228059233346 1.827366691080722 0.0
  endloop
endfacet
facet normal 0.9807852804032304 0.1950903220161291 0.0
  outer loop
    vertex 13.880228059233346 1.827366691080722 16.499999999999996
    vertex 13.522961568046956 3.6234666314352904 0.0
    vertex 13.522961568046956 3.6234666314352904 16.499999999999996
  endloop
endfacet
facet normal 0.9978589232386037 0.06540312923014255 0.0
  outer loop
    vertex 13.880228059233346 1.827366691080722 0.0
    vertex 14.0 0.0 16.499999999999996
    vertex 14.0 0.0 0.0
  endloop
endfacet
facet normal 0.9978589232386037 0.06540312923014255 0.0
  outer loop
    vertex 14.0 0.0 16.499999999999996
    vertex 13.880228059233346 1.827366691080722 0.0
    vertex 13.880228059233346 1.827366691080722 16.499999999999996
  endloop
endfacet
facet normal 0.9978589232386036 -0.06540312923014359 0.0
  outer loop
    vertex 14.0 0.0 0.0
    vertex 13.880228059233344 -1.8273666910807358 16.499999999999996
    vertex 13.880228059233344 -1.8273666910807358 0.0
  endloop
endfacet
facet normal 0.9978589232386036 -0.06540312923014359 0.0
  outer loop
    vertex 13.880228059233344 -1.8273666910807358 16.499999999999996
    vertex 14.0 0.0 0.0
    vertex 14.0 0.0 16.499999999999996
  endloop
endfacet
facet normal 0.9807852804032302 -0.19509032201612933 0.0
  outer loop
    vertex 13.880228059233344 -1.8273666910807358 0.0
    vertex 13.522961568046952 -3.623466631435302 16.499999999999996
    vertex 13.522961568046952 -3.623466631435302 0.0
  endloop
endfacet
facet normal 0.9807852804032302 -0.19509032201612933 0.0
  outer loop
    vertex 13.522961568046952 -3.623466631435302 16.499999999999996
    vertex 13.880228059233344 -1.8273666910807358 0.0
    vertex 13.880228059233344 -1.8273666910807358 16.499999999999996
  endloop
endfacet
facet normal 0.9469301294951059 -0.32143946530316136 0.0
  outer loop
    vertex 13.522961568046952 -3.623466631435302 0.0
    vertex 12.934313455158012 -5.357568053111265 16.499999999999996
    vertex 12.934313455158012 -5.357568053111265 0.0
  endloop
endfacet
facet normal 0.9469301294951059 -0.32143946530316136 0.0
  outer loop
    vertex 12.934313455158012 -5.357568053111265 16.499999999999996
    vertex 13.522961568046952 -3.623466631435302 0.0
    vertex 13.522961568046952 -3.623466631435302 16.499999999999996
  endloop
endfacet
facet normal 0.8968727415326877 -0.4422886902190027 0.0
  outer loop
    vertex 12.934313455158012 -5.357568053111265 0.0
    vertex 12.124355652982137 -7.000000000000005 16.499999999999996
    vertex 12.124355652982137 -7.000000000000005 0.0
  endloop
endfacet
facet normal 0.8968727415326877 -0.4422886902190027 0.0
  outer loop
    vertex 12.124355652982137 -7.000000000000005 16.499999999999996
    vertex 12.934313455158012 -5.357568053111265 0.0
    vertex 12.934313455158012 -5.357568053111265 16.499999999999996
  endloop
endfacet
facet normal 0.8314696123025451 -0.5555702330196026 0.0
  outer loop
    vertex 12.124355652982137 -7.000000000000005 0.0
    vertex 11.10694676407729 -8.522660006122093 16.499999999999996
    vertex 11.10694676407729 -8.522660006122093 0.0
  endloop
endfacet
facet normal 0.8314696123025451 -0.5555702330196026 0.0
  outer loop
    vertex 11.10694676407729 -8.522660006122093 16.499999999999996
    vertex 12.124355652982137 -7.000000000000005 0.0
    vertex 12.124355652982137 -7.000000000000005 16.499999999999996
  endloop
endfacet
facet normal 0.7518398074789775 -0.6593458151000688 0.0
  outer loop
    vertex 11.10694676407729 -8.522660006122093 0.0
    vertex 9.899494936611664 -9.899494936611667 16.499999999999996
    vertex 9.899494936611664 -9.899494936611667 0.0
  endloop
endfacet
facet normal 0.7518398074789775 -0.6593458151000688 0.0
  outer loop
    vertex 9.899494936611664 -9.899494936611667 16.499999999999996
    vertex 11.10694676407729 -8.522660006122093 0.0
    vertex 11.10694676407729 -8.522660006122093 16.499999999999996
  endloop
endfacet
facet normal 0.6593458151000684 -0.7518398074789779 0.0
  outer loop
    vertex 9.899494936611664 -9.899494936611667 16.499999999999996
    vertex 8.522660006122079 -11.1069467640773 0.0
    vertex 9.899494936611664 -9.899494936611667 0.0
  endloop
endfacet
facet normal 0.6593458151000684 -0.7518398074789779 0.0
  outer loop
    vertex 8.522660006122079 -11.1069467640773 0.0
    vertex 9.899494936611664 -9.899494936611667 16.499999999999996
    vertex 8.522660006122079 -11.1069467640773 16.499999999999996
  endloop
endfacet
facet normal 0.5555702330196017 -0.8314696123025457 0.0
  outer loop
    vertex 8.522660006122079 -11.1069467640773 16.499999999999996
    vertex 6.99999999999999 -12.124355652982146 0.0
    vertex 8.522660006122079 -11.1069467640773 0.0
  endloop
endfacet
facet normal 0.5555702330196017 -0.8314696123025457 0.0
  outer loop
    vertex 6.99999999999999 -12.124355652982146 0.0
    vertex 8.522660006122079 -11.1069467640773 16.499999999999996
    vertex 6.99999999999999 -12.124355652982146 16.499999999999996
  endloop
endfacet
facet normal 0.4422886902190006 -0.8968727415326888 0.0
  outer loop
    vertex 6.99999999999999 -12.124355652982146 16.499999999999996
    vertex 5.357568053111248 -12.934313455158017 0.0
    vertex 6.99999999999999 -12.124355652982146 0.0
  endloop
endfacet
facet normal 0.4422886902190006 -0.8968727415326888 0.0
  outer loop
    vertex 5.357568053111248 -12.934313455158017 0.0
    vertex 6.99999999999999 -12.124355652982146 16.499999999999996
    vertex 5.357568053111248 -12.934313455158017 16.499999999999996
  endloop
endfacet
facet normal 0.32143946530316125 -0.9469301294951058 0.0
  outer loop
    vertex 5.357568053111248 -12.934313455158017 16.499999999999996
    vertex 3.623466631435284 -13.522961568046957 0.0
    vertex 5.357568053111248 -12.934313455158017 0.0
  endloop
endfacet
facet normal 0.32143946530316125 -0.9469301294951058 0.0
  outer loop
    vertex 3.623466631435284 -13.522961568046957 0.0
    vertex 5.357568053111248 -12.934313455158017 16.499999999999996
    vertex 3.623466631435284 -13.522961568046957 16.499999999999996
  endloop
endfacet
facet normal 0.1950903220161278 -0.9807852804032305 0.0
  outer loop
    vertex 3.623466631435284 -13.522961568046957 16.499999999999996
    vertex 1.8273666910807178 -13.880228059233346 0.0
    vertex 3.623466631435284 -13.522961568046957 0.0
  endloop
endfacet
facet normal 0.1950903220161278 -0.9807852804032305 0.0
  outer loop
    vertex 1.8273666910807178 -13.880228059233346 0.0
    vertex 3.623466631435284 -13.522961568046957 16.499999999999996
    vertex 1.8273666910807178 -13.880228059233346 16.499999999999996
  endloop
endfacet
facet normal 0.0654031292301426 -0.9978589232386036 0.0
  outer loop
    vertex 1.8273666910807178 -13.880228059233346 16.499999999999996
    vertex -2.5717582782094417e-15 -14.0 0.0
    vertex 1.8273666910807178 -13.880228059233346 0.0
  endloop
endfacet
facet normal 0.0654031292301426 -0.9978589232386036 0.0
  outer loop
    vertex -2.5717582782094417e-15 -14.0 0.0
    vertex 1.8273666910807178 -13.880228059233346 16.499999999999996
    vertex -2.5717582782094417e-15 -14.0 16.499999999999996
  endloop
endfacet
facet normal -0.06540312923014371 -0.9978589232386036 -0.0
  outer loop
    vertex -2.5717582782094417e-15 -14.0 16.499999999999996
    vertex -1.827366691080735 -13.880228059233344 0.0
    vertex -2.5717582782094417e-15 -14.0 0.0
  endloop
endfacet
facet normal -0.06540312923014371 -0.9978589232386036 -0.0
  outer loop
    vertex -1.827366691080735 -13.880228059233344 0.0
    vertex -2.5717582782094417e-15 -14.0 16.499999999999996
    vertex -1.827366691080735 -13.880228059233344 16.499999999999996
  endloop
endfacet
facet normal -0.19509032201612928 -0.9807852804032302 -0.0
  outer loop
    vertex -1.827366691080735 -13.880228059233344 16.499999999999996
    vertex -3.623466631435301 -13.522961568046952 0.0
    vertex -1.827366691080735 -13.880228059233344 0.0
  endloop
endfacet
facet normal -0.19509032201612928 -0.9807852804032302 -0.0
  outer loop
    vertex -3.623466631435301 -13.522961568046952 0.0
    vertex -1.827366691080735 -13.880228059233344 16.499999999999996
    vertex -3.623466631435301 -13.522961568046952 16.499999999999996
  endloop
endfacet
facet normal -0.32143946530316136 -0.9469301294951059 -0.0
  outer loop
    vertex -3.623466631435301 -13.522961568046952 16.499999999999996
    vertex -5.357568053111264 -12.934313455158012 0.0
    vertex -3.623466631435301 -13.522961568046952 0.0
  endloop
endfacet
facet normal -0.32143946530316136 -0.9469301294951059 -0.0
  outer loop
    vertex -5.357568053111264 -12.934313455158012 0.0
    vertex -3.623466631435301 -13.522961568046952 16.499999999999996
    vertex -5.357568053111264 -12.934313455158012 16.499999999999996
  endloop
endfacet
facet normal -0.4422886902190025 -0.8968727415326877 -0.0
  outer loop
    vertex -5.357568053111264 -12.934313455158012 16.499999999999996
    vertex -7.000000000000005 -12.124355652982137 0.0
    vertex -5.357568053111264 -12.934313455158012 0.0
  endloop
endfacet
facet normal -0.4422886902190025 -0.8968727415326877 -0.0
  outer loop
    vertex -7.000000000000005 -12.124355652982137 0.0
    vertex -5.357568053111264 -12.934313455158012 16.499999999999996
    vertex -7.000000000000005 -12.124355652982137 16.499999999999996
  endloop
endfacet
facet normal -0.5555702330196026 -0.8314696123025451 -0.0
  outer loop
    vertex -7.000000000000005 -12.124355652982137 16.499999999999996
    vertex -8.522660006122093 -11.10694676407729 0.0
    vertex -7.000000000000005 -12.124355652982137 0.0
  endloop
endfacet
facet normal -0.5555702330196026 -0.8314696123025451 -0.0
  outer loop
    vertex -8.522660006122093 -11.10694676407729 0.0
    vertex -7.000000000000005 -12.124355652982137 16.499999999999996
    vertex -8.522660006122093 -11.10694676407729 16.499999999999996
  endloop
endfacet
facet normal -0.6593458151000694 -0.751839807478977 -0.0
  outer loop
    vertex -8.522660006122093 -11.10694676407729 16.499999999999996
    vertex -9.89949493661167 -9.899494936611658 0.0
    vertex -8.522660006122093 -11.10694676407729 0.0
  endloop
endfacet
facet normal -0.6593458151000694 -0.751839807478977 -0.0
  outer loop
    vertex -9.89949493661167 -9.899494936611658 0.0
    vertex -8.522660006122093 -11.10694676407729 16.499999999999996
    vertex -9.89949493661167 -9.899494936611658 16.499999999999996
  endloop
endfacet
facet normal -0.7518398074789775 -0.6593458151000688 -0.0
  outer loop
    vertex -11.106946764077296 -8.522660006122084 16.499999999999996
    vertex -9.89949493661167 -9.899494936611658 0.0
    vertex -9.89949493661167 -9.899494936611658 16.499999999999996
  endloop
endfacet
facet normal -0.7518398074789775 -0.6593458151000688 -0.0
  outer loop
    vertex -9.89949493661167 -9.899494936611658 0.0
    vertex -11.106946764077296 -8.522660006122084 16.499999999999996
    vertex -11.106946764077296 -8.522660006122084 0.0
  endloop
endfacet
facet normal -0.8314696123025457 -0.5555702330196017 -0.0
  outer loop
    vertex -12.124355652982143 -6.999999999999996 16.499999999999996
    vertex -11.106946764077296 -8.522660006122084 0.0
    vertex -11.106946764077296 -8.522660006122084 16.499999999999996
  endloop
endfacet
facet normal -0.8314696123025457 -0.5555702330196017 -0.0
  outer loop
    vertex -11.106946764077296 -8.522660006122084 0.0
    vertex -12.124355652982143 -6.999999999999996 16.499999999999996
    vertex -12.124355652982143 -6.999999999999996 0.0
  endloop
endfacet
facet normal -0.8968727415326884 -0.44228869021900136 -0.0
  outer loop
    vertex -12.934313455158017 -5.357568053111249 16.499999999999996
    vertex -12.124355652982143 -6.999999999999996 0.0
    vertex -12.124355652982143 -6.999999999999996 16.499999999999996
  endloop
endfacet
facet normal -0.8968727415326884 -0.44228869021900136 -0.0
  outer loop
    vertex -12.124355652982143 -6.999999999999996 0.0
    vertex -12.934313455158017 -5.357568053111249 16.499999999999996
    vertex -12.934313455158017 -5.357568053111249 0.0
  endloop
endfacet
facet normal -0.9469301294951058 -0.32143946530316125 -0.0
  outer loop
    vertex -13.522961568046957 -3.623466631435285 16.499999999999996
    vertex -12.934313455158017 -5.357568053111249 0.0
    vertex -12.934313455158017 -5.357568053111249 16.499999999999996
  endloop
endfacet
facet normal -0.9469301294951058 -0.32143946530316125 -0.0
  outer loop
    vertex -12.934313455158017 -5.357568053111249 0.0
    vertex -13.522961568046957 -3.623466631435285 16.499999999999996
    vertex -13.522961568046957 -3.623466631435285 0.0
  endloop
endfacet
facet normal -0.9807852804032305 -0.1950903220161278 -0.0
  outer loop
    vertex -13.880228059233346 -1.8273666910807187 16.499999999999996
    vertex -13.522961568046957 -3.623466631435285 0.0
    vertex -13.522961568046957 -3.623466631435285 16.499999999999996
  endloop
endfacet
facet normal -0.9807852804032305 -0.1950903220161278 -0.0
  outer loop
    vertex -13.522961568046957 -3.623466631435285 0.0
    vertex -13.880228059233346 -1.8273666910807187 16.499999999999996
    vertex -13.880228059233346 -1.8273666910807187 0.0
  endloop
endfacet
facet normal -0.9978589232386036 -0.0654031292301426 -0.0
  outer loop
    vertex -14.0 1.7145055188062944e-15 16.499999999999996
    vertex -13.880228059233346 -1.8273666910807187 0.0
    vertex -13.880228059233346 -1.8273666910807187 16.499999999999996
  endloop
endfacet
facet normal -0.9978589232386036 -0.0654031292301426 -0.0
  outer loop
    vertex -13.880228059233346 -1.8273666910807187 0.0
    vertex -14.0 1.7145055188062944e-15 16.499999999999996
    vertex -14.0 1.7145055188062944e-15 0.0
  endloop
endfacet
facet normal -0.9978589232386036 0.06540312923014241 0.0
  outer loop
    vertex -13.880228059233346 1.8273666910807278 16.499999999999996
    vertex -14.0 1.7145055188062944e-15 0.0
    vertex -14.0 1.7145055188062944e-15 16.499999999999996
  endloop
endfacet
facet normal -0.9978589232386036 0.06540312923014241 0.0
  outer loop
    vertex -14.0 1.7145055188062944e-15 0.0
    vertex -13.880228059233346 1.8273666910807278 16.499999999999996
    vertex -13.880228059233346 1.8273666910807278 0.0
  endloop
endfacet
facet normal -0.9807852804032302 0.19509032201612928 0.0
  outer loop
    vertex -13.522961568046956 3.623466631435294 16.499999999999996
    vertex -13.880228059233346 1.8273666910807278 0.0
    vertex -13.880228059233346 1.8273666910807278 16.499999999999996
  endloop
endfacet
facet normal -0.9807852804032302 0.19509032201612928 0.0
  outer loop
    vertex -13.880228059233346 1.8273666910807278 0.0
    vertex -13.522961568046956 3.623466631435294 16.499999999999996
    vertex -13.522961568046956 3.623466631435294 0.0
  endloop
endfacet
facet normal -0.9469301294951058 0.32143946530316125 0.0
  outer loop
    vertex -12.934313455158016 5.357568053111258 16.499999999999996
    vertex -13.522961568046956 3.623466631435294 0.0
    vertex -13.522961568046956 3.623466631435294 16.499999999999996
  endloop
endfacet
facet normal -0.9469301294951058 0.32143946530316125 0.0
  outer loop
    vertex -13.522961568046956 3.623466631435294 0.0
    vertex -12.934313455158016 5.357568053111258 16.499999999999996
    vertex -12.934313455158016 5.357568053111258 0.0
  endloop
endfacet
facet normal -0.896872741532688 0.4422886902190021 0.0
  outer loop
    vertex -12.124355652982139 7.000000000000004 16.499999999999996
    vertex -12.934313455158016 5.357568053111258 0.0
    vertex -12.934313455158016 5.357568053111258 16.499999999999996
  endloop
endfacet
facet normal -0.896872741532688 0.4422886902190021 0.0
  outer loop
    vertex -12.934313455158016 5.357568053111258 0.0
    vertex -12.124355652982139 7.000000000000004 16.499999999999996
    vertex -12.124355652982139 7.000000000000004 0.0
  endloop
endfacet
facet normal -0.8314696123025452 0.5555702330196022 0.0
  outer loop
    vertex -11.106946764077291 8.522660006122093 16.499999999999996
    vertex -12.124355652982139 7.000000000000004 0.0
    vertex -12.124355652982139 7.000000000000004 16.499999999999996
  endloop
endfacet
facet normal -0.8314696123025452 0.5555702330196022 0.0
  outer loop
    vertex -12.124355652982139 7.000000000000004 0.0
    vertex -11.106946764077291 8.522660006122093 16.499999999999996
    vertex -11.106946764077291 8.522660006122093 0.0
  endloop
endfacet
facet normal -0.751839807478977 0.6593458151000692 0.0
  outer loop
    vertex -9.899494936611665 9.899494936611665 16.499999999999996
    vertex -11.106946764077291 8.522660006122093 0.0
    vertex -11.106946764077291 8.522660006122093 16.499999999999996
  endloop
endfacet
facet normal -0.751839807478977 0.6593458151000692 0.0
  outer loop
    vertex -11.106946764077291 8.522660006122093 0.0
    vertex -9.899494936611665 9.899494936611665 16.499999999999996
    vertex -9.899494936611665 9.899494936611665 0.0
  endloop
endfacet
facet normal -0.6593458151000686 0.7518398074789777 0.0
  outer loop
    vertex -9.899494936611665 9.899494936611665 16.499999999999996
    vertex -8.522660006122084 11.106946764077296 0.0
    vertex -9.899494936611665 9.899494936611665 0.0
  endloop
endfacet
facet normal -0.6593458151000686 0.7518398074789777 0.0
  outer loop
    vertex -8.522660006122084 11.106946764077296 0.0
    vertex -9.899494936611665 9.899494936611665 16.499999999999996
    vertex -8.522660006122084 11.106946764077296 16.499999999999996
  endloop
endfacet
facet normal -0.5555702330196015 0.8314696123025457 0.0
  outer loop
    vertex -8.522660006122084 11.106946764077296 16.499999999999996
    vertex -6.999999999999997 12.12435565298214 0.0
    vertex -8.522660006122084 11.106946764077296 0.0
  endloop
endfacet
facet normal -0.5555702330196015 0.8314696123025457 0.0
  outer loop
    vertex -6.999999999999997 12.12435565298214 0.0
    vertex -8.522660006122084 11.106946764077296 16.499999999999996
    vertex -6.999999999999997 12.12435565298214 16.499999999999996
  endloop
endfacet
facet normal -0.44228869021900113 0.8968727415326884 0.0
  outer loop
    vertex -6.999999999999997 12.12435565298214 16.499999999999996
    vertex -5.357568053111253 12.934313455158016 0.0
    vertex -6.999999999999997 12.12435565298214 0.0
  endloop
endfacet
facet normal -0.44228869021900113 0.8968727415326884 0.0
  outer loop
    vertex -5.357568053111253 12.934313455158016 0.0
    vertex -6.999999999999997 12.12435565298214 16.499999999999996
    vertex -5.357568053111253 12.934313455158016 16.499999999999996
  endloop
endfacet
facet normal -0.32143946530316125 0.9469301294951058 0.0
  outer loop
    vertex -5.357568053111253 12.934313455158016 16.499999999999996
    vertex -3.6234666314352886 13.522961568046956 0.0
    vertex -5.357568053111253 12.934313455158016 0.0
  endloop
endfacet
facet normal -0.32143946530316125 0.9469301294951058 0.0
  outer loop
    vertex -3.6234666314352886 13.522961568046956 0.0
    vertex -5.357568053111253 12.934313455158016 16.499999999999996
    vertex -3.6234666314352886 13.522961568046956 16.499999999999996
  endloop
endfacet
facet normal -0.19509032201612903 0.9807852804032304 0.0
  outer loop
    vertex -3.6234666314352886 13.522961568046956 16.499999999999996
    vertex -1.8273666910807194 13.880228059233346 0.0
    vertex -3.6234666314352886 13.522961568046956 0.0
  endloop
endfacet
facet normal -0.19509032201612903 0.9807852804032304 0.0
  outer loop
    vertex -1.8273666910807194 13.880228059233346 0.0
    vertex -3.6234666314352886 13.522961568046956 16.499999999999996
    vertex -1.8273666910807194 13.880228059233346 16.499999999999996
  endloop
endfacet
facet normal -0.06540312923014263 0.9978589232386037 0.0
  outer loop
    vertex -1.8273666910807194 13.880228059233346 16.499999999999996
    vertex 8.572527594031472e-16 14.0 0.0
    vertex -1.8273666910807194 13.880228059233346 0.0
  endloop
endfacet
facet normal -0.06540312923014263 0.9978589232386037 0.0
  outer loop
    vertex 8.572527594031472e-16 14.0 0.0
    vertex -1.8273666910807194 13.880228059233346 16.499999999999996
    vertex 8.572527594031472e-16 14.0 16.499999999999996
  endloop
endfacet
facet normal 0.0654031292301425 0.9978589232386036 0.0
  outer loop
    vertex 8.572527594031472e-16 14.0 16.499999999999996
    vertex 1.8273666910807238 13.880228059233346 0.0
    vertex 8.572527594031472e-16 14.0 0.0
  endloop
endfacet
facet normal 0.0654031292301425 0.9978589232386036 0.0
  outer loop
    vertex 1.8273666910807238 13.880228059233346 0.0
    vertex 8.572527594031472e-16 14.0 16.499999999999996
    vertex 1.8273666910807238 13.880228059233346 16.499999999999996
  endloop
endfacet
facet normal 0.19509032201612894 0.9807852804032303 0.0
  outer loop
    vertex 1.8273666910807238 13.880228059233346 16.499999999999996
    vertex 3.6234666314352935 13.522961568046956 0.0
    vertex 1.8273666910807238 13.880228059233346 0.0
  endloop
endfacet
facet normal 0.19509032201612894 0.9807852804032303 0.0
  outer loop
    vertex 3.6234666314352935 13.522961568046956 0.0
    vertex 1.8273666910807238 13.880228059233346 16.499999999999996
    vertex 3.6234666314352935 13.522961568046956 16.499999999999996
  endloop
endfacet
facet normal 0.32143946530316125 0.9469301294951058 0.0
  outer loop
    vertex 3.6234666314352935 13.522961568046956 16.499999999999996
    vertex 5.357568053111257 12.934313455158016 0.0
    vertex 3.6234666314352935 13.522961568046956 0.0
  endloop
endfacet
facet normal 0.32143946530316125 0.9469301294951058 0.0
  outer loop
    vertex 5.357568053111257 12.934313455158016 0.0
    vertex 3.6234666314352935 13.522961568046956 16.499999999999996
    vertex 5.357568053111257 12.934313455158016 16.499999999999996
  endloop
endfacet
facet normal 0.4422886902190019 0.896872741532688 0.0
  outer loop
    vertex 5.357568053111257 12.934313455158016 16.499999999999996
    vertex 7.000000000000001 12.12435565298214 0.0
    vertex 5.357568053111257 12.934313455158016 0.0
  endloop
endfacet
facet normal 0.4422886902190019 0.896872741532688 0.0
  outer loop
    vertex 7.000000000000001 12.12435565298214 0.0
    vertex 5.357568053111257 12.934313455158016 16.499999999999996
    vertex 7.000000000000001 12.12435565298214 16.499999999999996
  endloop
endfacet
facet normal 0.5555702330196022 0.8314696123025452 0.0
  outer loop
    vertex 7.000000000000001 12.12435565298214 16.499999999999996
    vertex 8.52266000612209 11.106946764077291 0.0
    vertex 7.000000000000001 12.12435565298214 0.0
  endloop
endfacet
facet normal 0.5555702330196022 0.8314696123025452 0.0
  outer loop
    vertex 8.52266000612209 11.106946764077291 0.0
    vertex 7.000000000000001 12.12435565298214 16.499999999999996
    vertex 8.52266000612209 11.106946764077291 16.499999999999996
  endloop
endfacet
facet normal 0.6593458151000684 0.7518398074789778 0.0
  outer loop
    vertex 8.52266000612209 11.106946764077291 16.499999999999996
    vertex 9.899494936611665 9.899494936611665 0.0
    vertex 8.52266000612209 11.106946764077291 0.0
  endloop
endfacet
facet normal 0.6593458151000684 0.7518398074789778 0.0
  outer loop
    vertex 9.899494936611665 9.899494936611665 0.0
    vertex 8.52266000612209 11.106946764077291 16.499999999999996
    vertex 9.899494936611665 9.899494936611665 16.499999999999996
  endloop
endfacet
endsolid Gear-1-Bushing
